<svg width="111" height="108" viewBox="0 0 111 108" fill="none" xmlns="http://www.w3.org/2000/svg">
<path d="M101.652 16.6509C99.5126 13.1615 95.9023 11.817 91.9105 12.68C90.4393 12.998 91.0625 15.1828 92.5325 14.8648C96.3568 14.0379 99.346 16.187 100.549 19.7013C101.464 22.3728 100.086 25.102 98.2105 27.0098C94.5399 30.7447 88.3591 31.0633 84.4555 27.5652C81.729 25.1211 80.8133 21.1163 81.7248 17.7047C82.7757 13.7697 86.4489 12.2587 90.3505 12.7526C91.8426 12.9414 91.8239 10.6732 90.3505 10.4864C77.9554 8.91732 75.6953 24.855 84.6837 30.5923C90.5061 34.3091 98.3037 31.6687 101.784 26.212C103.693 23.2179 103.462 19.6062 101.652 16.6509Z" fill="#F06442"/>
<path d="M77.5213 25.1529C77.434 24.5563 76.9524 23.9524 76.201 23.9524C76.0657 23.9524 75.9257 23.9724 75.7854 24.0123C73.9163 24.5354 72.2633 25.094 70.733 25.7196C69.9451 26.0415 69.7214 26.7996 69.8482 27.408C69.9771 28.0264 70.4435 28.4426 71.0091 28.4426C71.1807 28.4426 71.3599 28.4045 71.5406 28.3311C73.0502 27.7135 74.6855 27.1613 76.5403 26.6418C77.3357 26.4187 77.6065 25.7332 77.5213 25.1529Z" fill="#F06442"/>
<path d="M71.934 7.02358C74.1392 8.43878 76.5211 9.87228 79.6588 11.6717C79.8889 11.8037 80.128 11.8703 80.3691 11.8707C80.9811 11.8707 81.5328 11.4321 81.7099 10.8045C81.8791 10.206 81.639 9.63595 81.0821 9.31695C77.9494 7.52007 75.5731 6.09014 73.3786 4.68102C73.1404 4.52826 72.8911 4.45032 72.6387 4.45032C72.0703 4.45032 71.544 4.86717 71.3582 5.46473C71.1683 6.07604 71.3888 6.6736 71.934 7.02358Z" fill="#F06442"/>
<path d="M91.8637 34.0811C91.4645 34.0811 91.0956 34.2257 90.8523 34.4777C90.619 34.7199 90.5083 35.0453 90.534 35.4185C90.6482 37.0796 90.7632 38.7407 90.8848 40.4006C90.9482 41.2583 91.6821 41.7063 92.3753 41.7063C92.7749 41.7063 93.1433 41.5612 93.3857 41.3091C93.6184 41.067 93.7274 40.7415 93.6997 40.3684C93.5781 38.7081 93.4639 37.0483 93.3497 35.3872C93.2908 34.5294 92.5574 34.0811 91.8637 34.0811Z" fill="#F06442"/>
<path d="M81.6051 31.1255C81.1249 31.1255 80.7133 31.3522 80.4449 31.7639C78.4977 34.7533 76.5149 37.6993 74.4863 40.7051C74.2054 41.1213 74.1748 41.5719 74.3995 41.975C74.651 42.4262 75.1892 42.7285 75.7394 42.7285C76.2182 42.7285 76.6324 42.5059 76.9054 42.1015C78.9299 39.1029 80.9092 36.1625 82.8678 33.1543C83.1421 32.734 83.1664 32.278 82.9364 31.8735C82.682 31.4266 82.1462 31.1255 81.6051 31.1255Z" fill="#F06442"/>
<path d="M100.515 11.3621C100.994 11.3621 101.408 11.142 101.683 10.7424C102.403 9.69559 103.098 8.6635 103.684 7.54882C103.92 7.10107 103.905 6.62672 103.643 6.21326C103.367 5.77712 102.862 5.49535 102.357 5.49535C101.88 5.49535 101.473 5.75034 101.239 6.19514C100.666 7.28464 99.9789 8.30557 99.2661 9.34176C98.9821 9.75496 98.9479 10.2033 99.1702 10.6055C99.4196 11.0575 99.9601 11.3617 100.515 11.3621Z" fill="#F06442"/>
<path d="M109.748 34.7602C107.682 33.1665 105.892 31.9189 104.114 30.8326C103.879 30.6885 103.634 30.616 103.386 30.616C102.798 30.616 102.26 31.0425 102.078 31.6532C101.898 32.2589 102.127 32.8433 102.678 33.1802C104.37 34.2148 106.045 35.3736 107.797 36.7247C108.066 36.9323 108.382 37.0421 108.709 37.0421C109.351 37.0421 109.968 36.6258 110.174 36.0537C110.348 35.5739 110.192 35.1034 109.748 34.7602Z" fill="#F06442"/>
<path d="M90.4243 8.86714C90.8254 8.86714 91.1911 8.72188 91.4271 8.46886C91.6536 8.2261 91.7523 7.90059 91.7131 7.52793C91.4912 5.4216 91.3607 3.30162 91.2461 1.31109C91.1963 0.450424 90.4673 0 89.773 0C89.3743 0 89.0044 0.144368 88.7584 0.396409C88.5227 0.638271 88.409 0.963434 88.4301 1.33645C88.5453 3.33644 88.6765 5.46553 88.8987 7.57462C88.9879 8.42288 89.7338 8.86714 90.4243 8.86714Z" fill="#F06442"/>
<path d="M109.56 18.3032C108.743 18.4084 106.327 18.414 105.851 18.4144C104.952 18.4144 104.481 19.1011 104.481 19.7794C104.481 20.4566 104.952 21.1433 105.851 21.1433C106.332 21.1433 108.777 21.1368 109.623 21.0281C110.459 20.9205 111 20.3857 111 19.6655C111 18.9916 110.345 18.1982 109.56 18.3032Z" fill="#F06442"/>
<path d="M59.2457 37.3458C59.312 36.7078 59.8926 36.2431 60.5427 36.3081C61.1928 36.3732 61.6663 36.9432 61.6 37.5813L61.2849 40.6134V40.9574L61.8962 42.7617L61.8981 42.7681C61.9788 42.9152 62.0296 43.0813 62.0387 43.2592V43.2615L62.0391 43.269C62.0395 43.2755 62.04 43.2851 62.0407 43.2978C62.042 43.3232 62.044 43.3609 62.0464 43.4104C62.0514 43.5095 62.0584 43.656 62.0676 43.8455C62.0861 44.2245 62.1126 44.7758 62.1443 45.4661C62.1969 46.6114 62.2638 48.1396 62.3334 49.8977H64.1326C64.7861 49.8978 65.3159 50.4177 65.3159 51.059C65.3159 51.7003 64.7861 52.2202 64.1326 52.2203H62.4212C62.4705 53.5831 62.5186 55.03 62.5611 56.5067H63.4605C64.114 56.5067 64.6438 57.0266 64.6438 57.668C64.6438 58.3093 64.114 58.8293 63.4605 58.8293H62.6215C62.6613 60.5023 62.6919 62.177 62.7059 63.7765H65.4762C66.1297 63.7765 66.6594 64.2964 66.6595 64.9378C66.6595 65.5791 66.1297 66.099 65.4762 66.099H62.7132C62.7049 68.1266 62.6352 70.2654 62.531 72.3682H64.1326C64.7861 72.3683 65.3159 72.8882 65.3159 73.5295C65.3159 74.1708 64.7861 74.6907 64.1326 74.6908H62.4024C62.2923 76.4894 62.1644 78.2184 62.0364 79.779C61.867 81.8444 61.6975 83.6208 61.5704 84.8812C61.5068 85.5114 61.4538 86.013 61.4167 86.3574C61.3981 86.5294 61.3835 86.6623 61.3735 86.7524C61.3685 86.7975 61.3646 86.832 61.362 86.8552C61.3607 86.8668 61.3596 86.8757 61.3589 86.8817L61.3581 86.8885L61.3577 86.8908C61.304 87.3622 60.9635 87.7546 60.4976 87.8812C54.9571 89.3868 50.9295 89.7044 43.1367 89.3052C43.1351 89.6907 43.1337 90.1546 43.1301 90.6782C43.1223 91.8376 43.1084 93.2913 43.0847 94.8387H45.3211C45.9746 94.8388 46.5044 95.3587 46.5044 96C46.5044 96.6413 45.9746 97.1612 45.3211 97.1613H43.0412C42.9992 99.0876 42.94 101.015 42.854 102.581C42.806 103.454 42.7495 104.229 42.6814 104.837C42.6474 105.139 42.6089 105.416 42.5639 105.65C42.5256 105.849 42.4627 106.133 42.3393 106.373C42.1206 106.8 41.7342 107.019 41.5285 107.12C41.2812 107.242 41.0008 107.334 40.7269 107.405C40.1736 107.55 39.4714 107.661 38.7043 107.746C37.1593 107.917 35.1928 108 33.267 108C31.3425 108 29.4141 107.917 27.9479 107.745C27.2245 107.66 26.5582 107.547 26.0481 107.393C25.8013 107.318 25.5135 107.211 25.2635 107.046C25.0473 106.903 24.5744 106.522 24.5744 105.851V90.5523H23.1503C22.4968 90.5523 21.967 90.0324 21.967 89.391C21.967 88.7496 22.4968 88.2297 23.1503 88.2297H24.5744V82.6217H21.8068C21.1533 82.6217 20.6236 82.1017 20.6235 81.4604C20.6235 80.8191 21.1533 80.2991 21.8068 80.2991H24.5744V76.0645C24.2112 76.0599 23.7759 76.054 23.2855 76.0437C21.7995 76.0127 19.7997 75.9503 17.7534 75.8256C15.7144 75.7013 13.5973 75.5133 11.8889 75.2249C11.0382 75.0813 10.2488 74.9064 9.60703 74.6874C9.28586 74.5777 8.97201 74.4474 8.6949 74.2874C8.4282 74.1334 8.12262 73.9105 7.90064 73.5858C7.68623 73.2722 7.57519 72.8828 7.50582 72.5784C7.42812 72.2374 7.36758 71.8343 7.319 71.3936C7.22156 70.5099 7.1626 69.3855 7.13064 68.1234C7.09519 66.7232 7.09316 65.1265 7.11215 63.4555H5.01056C4.35707 63.4555 3.82725 62.9356 3.82725 62.2942C3.82726 61.6529 4.35707 61.133 5.01056 61.1329H7.15067C7.16345 60.5329 7.17743 59.9306 7.19381 59.3313C7.21672 58.4937 7.2434 57.6607 7.27124 56.8465H4.33878C3.68526 56.8465 3.15548 56.3266 3.15548 55.6852C3.15551 55.0439 3.68528 54.5239 4.33878 54.5239H7.35713C7.40904 53.2119 7.46211 51.9958 7.51121 50.9471C7.56406 49.8184 7.61165 48.8827 7.64603 48.2291C7.66321 47.9023 7.67725 47.646 7.68686 47.4711C7.68838 47.4434 7.68941 47.4176 7.69071 47.394L7.32324 46.1919L4.88421 45.358C4.26708 45.147 3.94118 44.4848 4.1562 43.8792C4.37121 43.2735 5.04558 42.9538 5.66268 43.1647L8.67256 44.1937L8.73881 44.2186C9.06474 44.3521 9.31413 44.6223 9.41636 44.9565L10.008 46.892C10.0239 46.9439 10.0356 46.9961 10.0438 47.0481C10.0617 47.1396 10.0702 47.2344 10.0646 47.3317L10.0643 47.3358C10.0643 47.3358 10.0638 47.3427 10.0635 47.3483C10.0628 47.3595 10.062 47.3764 10.0608 47.3986C10.0583 47.443 10.0548 47.5094 10.05 47.5959C10.0405 47.7691 10.0266 48.0239 10.0096 48.3489C9.97538 48.9989 9.92812 49.93 9.87551 51.0537C9.77025 53.3018 9.64375 56.318 9.55965 59.3936C9.53627 60.2488 9.51659 61.1074 9.5011 61.9544C9.5346 62.0619 9.5531 62.1759 9.5531 62.2942C9.5531 62.4255 9.52966 62.5512 9.48878 62.6688C9.45915 64.6147 9.45623 66.4758 9.49648 68.0655C9.5278 69.3026 9.585 70.3536 9.67213 71.1438C9.71582 71.54 9.7646 71.8484 9.81542 72.0714C9.83666 72.1647 9.85549 72.2279 9.86819 72.2676C9.87625 72.2727 9.8847 72.2794 9.89515 72.2854C9.99373 72.3423 10.1519 72.4144 10.3843 72.4937C10.85 72.6526 11.4953 72.8019 12.2899 72.936C13.872 73.203 15.8893 73.385 17.9002 73.5076C19.9036 73.6297 21.8691 73.6909 23.336 73.7215C24.0688 73.7368 24.6759 73.7445 25.099 73.7484C25.3105 73.7503 25.476 73.7513 25.5882 73.7518C25.6443 73.752 25.6871 73.7521 25.7157 73.7521H25.7577C26.0715 73.7521 26.3724 73.8746 26.5943 74.0924C26.8162 74.3101 26.941 74.6055 26.941 74.9134V81.0431C26.9919 81.1727 27.0211 81.3132 27.0211 81.4604C27.0211 81.6074 26.9918 81.7476 26.941 81.877V88.9737C26.9919 89.1033 27.0211 89.2437 27.0211 89.391C27.0211 89.5381 26.9918 89.6784 26.941 89.808V105.226C27.2471 105.3 27.6789 105.374 28.2291 105.439C29.5682 105.596 31.3947 105.677 33.267 105.677C35.1378 105.677 37.0102 105.596 38.4393 105.438C39.1593 105.358 39.7281 105.263 40.116 105.161C40.1688 105.148 40.215 105.134 40.2555 105.122C40.2793 104.981 40.3045 104.802 40.329 104.583C40.3901 104.038 40.4438 103.312 40.4908 102.456C40.5846 100.749 40.6479 98.5838 40.69 96.4487C40.732 94.316 40.753 92.2231 40.7635 90.6627C40.7688 89.8828 40.7715 89.2363 40.7728 88.785C40.7734 88.5594 40.7738 88.3825 40.7739 88.2622V88.0785C40.7739 87.7587 40.9086 87.453 41.1456 87.2336C41.3827 87.0143 41.7013 86.9004 42.0266 86.9191C50.1043 87.3848 53.9992 87.1576 59.0905 85.8474C59.124 85.5326 59.1671 85.1301 59.2153 84.6525C59.3413 83.4033 59.5095 81.6412 59.6775 79.5926C60.0141 75.4895 60.3485 70.2594 60.3485 65.698C60.3485 65.5896 60.3479 65.4808 60.3478 65.3713C60.2927 65.2373 60.2619 65.0911 60.2619 64.9378C60.2619 64.7877 60.2915 64.6445 60.3443 64.5129C60.3193 60.1758 60.1662 55.1587 60.0119 51.0953C59.9276 48.8773 59.8435 46.9467 59.7804 45.5708C59.7488 44.8829 59.7221 44.3336 59.7037 43.9567C59.6962 43.8033 59.6899 43.6784 59.6852 43.5843C59.6726 43.5551 59.6609 43.5253 59.6506 43.4947L58.9788 41.512C58.9388 41.3938 58.9183 41.2702 58.9183 41.1457V40.5552C58.9183 40.5158 58.92 40.4764 58.9241 40.4372L59.2457 37.3458ZM40.7739 57.7991C40.7739 52.8383 40.9436 48.0464 41.1129 44.4972C41.1976 42.722 41.282 41.256 41.3456 40.2331C41.3773 39.7217 41.404 39.321 41.4226 39.0476C41.4319 38.911 41.4391 38.8059 41.4442 38.735C41.4467 38.6996 41.4486 38.6727 41.4499 38.6545L41.4503 38.6492V38.5021C41.4503 38.4668 41.4522 38.4316 41.4553 38.3971C41.424 38.058 41.5158 37.7336 41.5751 37.5476C41.6478 37.32 41.7481 37.0766 41.8559 36.84C42.0727 36.364 42.3606 35.8259 42.6383 35.3335C42.9183 34.8369 43.1993 34.367 43.4094 34.0226C43.5147 33.85 43.6027 33.708 43.6648 33.6086C43.6958 33.559 43.7202 33.5199 43.7372 33.4929C43.7457 33.4795 43.7523 33.4688 43.7568 33.4616L43.7622 33.4532L43.7638 33.451C44.1097 32.9069 44.8402 32.74 45.3947 33.0794C45.949 33.4188 46.1184 34.1351 45.7725 34.6792L45.7672 34.6875C45.7634 34.6935 45.7574 34.7026 45.7498 34.7147C45.7345 34.739 45.7116 34.7754 45.6824 34.8221C45.624 34.9156 45.5402 35.0509 45.4397 35.2156C45.2382 35.5461 44.9718 35.9917 44.709 36.4578C44.4439 36.9281 44.1934 37.4 44.0168 37.7877C43.928 37.9828 43.8676 38.1348 43.8335 38.2417C43.8255 38.2668 43.8202 38.2863 43.8165 38.3003C43.8164 38.3333 43.8149 38.3661 43.8119 38.3986C43.815 38.4326 43.8169 38.4673 43.8169 38.5021V39.1629C43.8169 39.2826 43.798 39.3979 43.7638 39.5066C43.7482 39.7425 43.7291 40.0335 43.7079 40.3745C43.6449 41.3881 43.5609 42.8433 43.4768 44.6061C43.3086 48.1331 43.1405 52.8863 43.1405 57.7991C43.1405 62.7115 43.3087 67.2994 43.4768 70.6603C43.5608 72.3402 43.6446 73.7123 43.7075 74.6636C43.7314 75.0245 43.7525 75.3249 43.7692 75.5583C44.1284 75.6378 44.8053 75.7269 46.0071 75.7269C47.4384 75.7269 48.3056 75.6021 48.8009 75.4858C48.7922 75.3864 48.7821 75.279 48.7724 75.1637C48.7085 74.4054 48.6235 73.3067 48.5386 71.9399C48.3688 69.207 48.1989 65.3977 48.1989 61.0902C48.1989 56.7832 48.3686 52.8104 48.5382 49.9154C48.6231 48.4674 48.7079 47.2875 48.7716 46.4686C48.8035 46.0592 48.8304 45.74 48.8491 45.5224C48.8584 45.4136 48.8656 45.3302 48.8706 45.2737C48.8732 45.2455 48.8755 45.224 48.8768 45.2094C48.8775 45.2022 48.8783 45.1928 48.8783 45.1928L48.8787 45.1883C48.8787 45.1883 48.8787 45.1866 48.9138 45.1898L48.8787 45.1883C48.8844 45.1269 48.895 45.0651 48.9099 45.0072V43.3548C48.9099 43.0306 48.9583 41.9152 49.0039 40.9279C49.0272 40.4239 49.0508 39.9379 49.0682 39.5784C49.077 39.3987 49.0839 39.2504 49.089 39.1471C49.0916 39.0954 49.0938 39.0548 49.0952 39.0272C49.0959 39.0135 49.0964 39.003 49.0967 38.9958L49.0971 38.9875V38.9849C49.129 38.3443 49.6843 37.8501 50.3371 37.8814C50.9694 37.9118 51.4615 38.4242 51.4626 39.0386L51.461 39.0983V39.1009L51.4606 39.1089C51.4603 39.1159 51.4598 39.1263 51.4591 39.1399C51.4578 39.1672 51.4555 39.2075 51.4529 39.2589C51.4479 39.3619 51.4408 39.5099 51.4321 39.6891C51.4147 40.0476 51.3914 40.5313 51.3682 41.033C51.3209 42.0573 51.2765 43.0985 51.2765 43.3548V45.0968C51.2765 45.2004 51.2613 45.3005 51.2353 45.3962V45.3988L51.2349 45.4022C51.2349 45.4022 51.2344 45.4104 51.2338 45.417C51.2326 45.4303 51.2308 45.4506 51.2284 45.4774C51.2236 45.5312 51.2163 45.6117 51.2072 45.7175C51.189 45.9293 51.1631 46.2429 51.1317 46.6459C51.0689 47.4521 50.9849 48.6172 50.901 50.0489C50.7331 52.9136 50.5655 56.8399 50.5655 61.0902C50.5655 65.34 50.7329 69.1008 50.9006 71.7985C50.9844 73.1469 51.0683 74.2287 51.1309 74.972C51.1622 75.3437 51.1883 75.6308 51.2064 75.8241C51.2155 75.9207 51.2224 75.9939 51.2272 76.0426C51.2296 76.0669 51.2314 76.0851 51.2326 76.097C51.2332 76.103 51.2342 76.1103 51.2342 76.1103L51.2345 76.1133C51.2702 76.4613 51.1442 76.8072 50.8913 77.0538L50.057 76.2301L50.7862 76.9514C50.8901 77.0548 50.889 77.0557 50.889 77.0557L50.8871 77.058L50.8829 77.0617L50.8744 77.0701C50.8685 77.0756 50.8622 77.081 50.8559 77.0867C50.8434 77.098 50.83 77.1096 50.8158 77.1215C50.7875 77.1451 50.756 77.1698 50.7207 77.1952C50.65 77.246 50.5647 77.2997 50.4626 77.354C50.259 77.4622 49.9866 77.5745 49.621 77.6764C48.8943 77.8789 47.7662 78.0495 46.0071 78.0495C44.2761 78.0495 43.2508 77.8855 42.6171 77.6382C42.2902 77.5107 41.9962 77.3339 41.7785 77.0791C41.6673 76.949 41.5817 76.8047 41.5254 76.6512C41.4977 76.5756 41.4784 76.5009 41.4661 76.4293C41.46 76.3937 41.4558 76.3591 41.453 76.3257L41.4523 76.3186L41.4519 76.3125C41.4515 76.3081 41.451 76.3017 41.4503 76.2932C41.449 76.2762 41.4471 76.251 41.4445 76.218C41.4395 76.1518 41.4323 76.0536 41.423 75.9258C41.4043 75.6701 41.3777 75.2948 41.3459 74.814C41.2823 73.8522 41.1976 72.4677 41.1129 70.7741C40.9435 67.388 40.7739 62.7604 40.7739 57.7991ZM43.8119 76.1401C43.8141 76.1681 43.8153 76.1964 43.8154 76.2244V76.2187V76.207C43.8152 76.1994 43.8149 76.1916 43.8146 76.184L43.8119 76.1401ZM43.8119 76.1401V76.1378L43.8115 76.1348L43.8119 76.1401ZM53.5434 66.9205V50.0088C53.451 49.7994 53.42 49.5615 53.469 49.3208C53.5506 48.9203 53.5963 48.4061 53.62 47.9633C53.6316 47.7481 53.6376 47.5607 53.6404 47.428C53.6419 47.3619 53.6424 47.3094 53.6428 47.2746C53.6429 47.2573 53.6431 47.2443 53.6431 47.236V47.2258C53.6431 47.2016 53.6439 47.1773 53.6454 47.1532L53.8427 44.0565C53.8835 43.4164 54.4454 42.93 55.0976 42.97C55.7498 43.0101 56.2454 43.5615 56.2047 44.2016L56.0094 47.264C56.0093 47.2734 56.0095 47.2846 56.0094 47.2973C56.0089 47.3402 56.0079 47.4013 56.0063 47.4772C56.003 47.6287 55.9967 47.8408 55.9836 48.0851C55.9692 48.3531 55.9456 48.6753 55.9077 49.0067C55.9091 49.0297 55.91 49.0529 55.91 49.0762V66.9205C55.91 67.5618 55.3802 68.0818 54.7267 68.0818C54.0732 68.0817 53.5434 67.5618 53.5434 66.9205ZM26.5165 34.2875C26.3912 33.6592 26.808 33.0494 27.4483 32.9252C28.0894 32.8007 28.712 33.21 28.8388 33.8392L27.6778 34.0645C28.8345 33.84 28.8388 33.8392 28.8388 33.8392L28.8396 33.843L28.8403 33.8483C28.8403 33.8483 28.8424 33.8571 28.8434 33.8627C28.8455 33.8738 28.848 33.8883 28.8511 33.9061C28.8575 33.9421 28.8658 33.9918 28.8754 34.0547C28.8946 34.1806 28.919 34.3605 28.9428 34.593C28.9905 35.0581 29.0364 35.7341 29.0364 36.6135V38.5021C29.0364 38.656 29.0051 38.8025 28.9497 38.9369C28.9452 38.987 28.9394 39.0522 28.9324 39.1312C28.9141 39.3365 28.888 39.6356 28.8565 40.0089C28.7936 40.7559 28.7097 41.7996 28.6258 42.9863C28.4574 45.3676 28.2911 48.2965 28.2911 50.5581C28.2911 52.8177 28.4569 55.5809 28.625 57.795C28.7088 58.8985 28.7929 59.8591 28.8558 60.5436C28.8872 60.8857 28.9134 61.1588 28.9316 61.3458C28.9408 61.4392 28.948 61.5113 28.9528 61.5597C28.9553 61.5839 28.957 61.6024 28.9582 61.6145C28.9588 61.6206 28.9598 61.6281 28.9598 61.6281V61.6312C28.9955 61.9793 28.8694 62.3255 28.6166 62.5721L27.7826 61.7484C28.6167 62.5721 28.6166 62.5721 28.6166 62.5721L28.6092 62.5796C28.6092 62.5796 28.6028 62.5853 28.5992 62.5887C28.592 62.5955 28.5835 62.6037 28.5734 62.6129C28.5533 62.6313 28.5272 62.6543 28.4956 62.6813C28.4324 62.7352 28.3463 62.8053 28.2368 62.8855C28.0177 63.0457 27.7042 63.248 27.2965 63.4468C26.4772 63.8463 25.2856 64.2263 23.7327 64.2263C22.1773 64.2263 21.1005 63.8439 20.3793 63.375C20.024 63.144 19.7715 62.9023 19.5989 62.7002C19.5129 62.5996 19.4471 62.5096 19.3986 62.436C19.3743 62.3992 19.3542 62.3663 19.3381 62.3385C19.3301 62.3246 19.3231 62.312 19.3169 62.3007C19.3138 62.295 19.3107 62.2894 19.308 62.2844L19.3042 62.2772L19.3027 62.2738C19.3027 62.2738 19.3354 62.2532 20.3577 61.7484C19.3205 62.2606 19.3 62.2689 19.3 62.2689L19.2973 62.2636L19.2938 62.2564C19.2914 62.2515 19.2887 62.2464 19.2861 62.2409C19.2807 62.2298 19.275 62.2172 19.2688 62.2035C19.2564 62.1761 19.2422 62.1435 19.2268 62.1048C19.196 62.0276 19.1597 61.9261 19.1197 61.796C19.0398 61.5363 18.9449 61.1585 18.8535 60.6241C18.6712 59.5571 18.4995 57.8444 18.4995 55.1658C18.4995 52.4841 18.6713 50.4608 18.8462 49.0966C18.9336 48.4146 19.0219 47.8975 19.0896 47.5452C19.1041 47.4702 19.1177 47.4027 19.1301 47.3426V45.0968C19.1301 45.0377 19.1348 44.9787 19.144 44.9202L19.5384 42.4041C19.6378 41.7702 20.2418 41.3355 20.8877 41.433C21.5336 41.5305 21.9766 42.1233 21.8773 42.7572L21.4967 45.1849V46.9544C21.5506 47.1427 21.5577 47.3468 21.5056 47.5502C21.5056 47.5502 21.5038 47.5575 21.5021 47.5645C21.4985 47.5795 21.4923 47.6047 21.4844 47.6401C21.4685 47.711 21.4444 47.8229 21.415 47.9758C21.3562 48.2818 21.2756 48.7522 21.1943 49.3866C21.0317 50.6554 20.8661 52.5817 20.8661 55.1658C20.8661 57.7533 21.0323 59.3323 21.1874 60.24C21.2648 60.6928 21.3383 60.9733 21.385 61.125C21.3959 61.1604 21.4064 61.1882 21.4139 61.2097C21.4529 61.255 21.5373 61.3419 21.6862 61.4388C21.9774 61.6281 22.5883 61.9037 23.7327 61.9037C24.8796 61.9037 25.7131 61.6253 26.2438 61.3666C26.3563 61.3117 26.4553 61.2568 26.5415 61.2059C26.5289 61.0723 26.5142 60.9205 26.4988 60.7523C26.4351 60.0586 26.3499 59.0857 26.265 57.9677C26.0957 55.7386 25.9245 52.9062 25.9245 50.5581C25.9245 48.2119 26.0955 45.2165 26.2646 42.8256C26.3494 41.6263 26.4344 40.572 26.498 39.8173C26.5298 39.4399 26.5564 39.1372 26.575 38.9286C26.5843 38.8242 26.5916 38.7434 26.5966 38.6885C26.5991 38.661 26.6011 38.64 26.6024 38.6258C26.603 38.6187 26.6036 38.6095 26.6036 38.6095L26.6039 38.6053C26.6133 38.5053 26.6369 38.4084 26.6698 38.318V36.6135C26.6698 35.8135 26.6281 35.215 26.5881 34.8255C26.5682 34.6307 26.5486 34.4879 26.535 34.3983C26.5282 34.3537 26.5228 34.3223 26.5196 34.3042C26.5181 34.2959 26.5165 34.2875 26.5165 34.2875ZM12.5611 60.9723V51.059C12.5611 50.896 12.5956 50.7408 12.6574 50.6001C12.6055 50.3942 12.6092 50.1723 12.6824 49.9563L13.2556 48.2639L12.7937 46.1057C12.6594 45.4781 13.069 44.8624 13.7085 44.7305C14.3481 44.5986 14.9755 45.0006 15.1099 45.6283L15.6376 48.093C15.6807 48.2942 15.6686 48.5031 15.6025 48.6982L14.928 50.6889C14.9174 50.7203 14.9049 50.7508 14.8918 50.7807C14.9142 50.87 14.9277 50.9629 14.9277 51.059V60.9723C14.9277 61.6136 14.3979 62.1336 13.7444 62.1336C13.0909 62.1335 12.5611 61.6136 12.5611 60.9723ZM32.7165 60.9723V41.8065C32.7165 41.5171 32.8248 41.253 33.0031 41.0496C33.2554 40.2927 33.5612 39.5475 33.8101 38.9777C33.9524 38.6517 34.0787 38.3775 34.1698 38.1838C34.1808 38.1605 34.1915 38.1383 34.2014 38.1173V35.8064C34.2014 35.1651 34.7312 34.6452 35.3847 34.6452C36.0382 34.6452 36.568 35.1651 36.568 35.8064V38.3778C36.568 38.5536 36.5269 38.727 36.4486 38.8851L36.4475 38.8885C36.4475 38.8885 36.444 38.895 36.4413 38.9006C36.4358 38.9119 36.4271 38.9295 36.4159 38.9527C36.3934 38.9993 36.3602 39.0688 36.3184 39.1576C36.2348 39.3354 36.1175 39.59 35.9852 39.8929C35.7183 40.504 35.3996 41.2904 35.1675 42.0355C35.1455 42.1061 35.1168 42.1728 35.0831 42.2359V60.9723C35.0831 61.6136 34.5533 62.1335 33.8998 62.1336C33.2463 62.1336 32.7165 61.6136 32.7165 60.9723Z" fill="#1C7D56"/>
<path d="M3.54991 43.5484C3.54991 43.0139 3.10843 42.5806 2.56383 42.5806C2.01923 42.5806 1.57774 43.0139 1.57774 43.5484C1.57774 44.0829 2.01923 44.5161 2.56383 44.5161V46.0645C1.14786 46.0645 0 44.938 0 43.5484C0 42.1588 1.14786 41.0323 2.56383 41.0323C3.97979 41.0323 5.12765 42.1588 5.12765 43.5484C5.12765 44.938 3.97979 46.0645 2.56383 46.0645V44.5161C3.10843 44.5161 3.54991 44.0829 3.54991 43.5484ZM13.8052 43.5484C13.8052 43.0139 13.3637 42.5806 12.8191 42.5806C12.2745 42.5806 11.833 43.0139 11.833 43.5484C11.833 44.0829 12.2745 44.5161 12.8191 44.5161V46.0645C11.4032 46.0645 10.2553 44.938 10.2553 43.5484C10.2553 42.1588 11.4032 41.0323 12.8191 41.0323C14.2351 41.0323 15.383 42.1588 15.383 43.5484C15.383 44.938 14.2351 46.0645 12.8191 46.0645V44.5161C13.3637 44.5161 13.8052 44.0829 13.8052 43.5484ZM55.6153 41.6129C55.6153 41.0784 55.1738 40.6452 54.6292 40.6452C54.0846 40.6452 53.6431 41.0784 53.6431 41.6129C53.6431 42.1474 54.0846 42.5806 54.6292 42.5806V44.129C53.2133 44.129 52.0654 43.0025 52.0654 41.6129C52.0654 40.2233 53.2133 39.0968 54.6292 39.0968C56.0452 39.0968 57.193 40.2233 57.193 41.6129C57.193 43.0025 56.0452 44.129 54.6292 44.129V42.5806C55.1738 42.5806 55.6153 42.1474 55.6153 41.6129ZM22.4828 40.0645C22.4828 39.53 22.0413 39.0968 21.4967 39.0968C20.9521 39.0968 20.5106 39.53 20.5106 40.0645C20.5106 40.599 20.9521 41.0323 21.4967 41.0323V42.5806C20.0807 42.5806 18.9329 41.4541 18.9329 40.0645C18.9329 38.6749 20.0807 37.5484 21.4967 37.5484C22.9127 37.5484 24.0605 38.6749 24.0605 40.0645C24.0605 41.4541 22.9127 42.5806 21.4967 42.5806V41.0323C22.0413 41.0323 22.4828 40.599 22.4828 40.0645ZM52.0654 36.5806C52.0654 36.0462 51.6239 35.6129 51.0793 35.6129C50.5347 35.6129 50.0932 36.0462 50.0932 36.5806C50.0932 37.1151 50.5347 37.5484 51.0793 37.5484V39.0968C49.6633 39.0968 48.5155 37.9703 48.5155 36.5806C48.5155 35.191 49.6633 34.0645 51.0793 34.0645C52.4953 34.0645 53.6431 35.191 53.6431 36.5806C53.6431 37.9703 52.4953 39.0968 51.0793 39.0968V37.5484C51.6239 37.5484 52.0654 37.1151 52.0654 36.5806ZM62.3207 35.0323C62.3207 34.4978 61.8792 34.0645 61.3346 34.0645C60.79 34.0645 60.3485 34.4978 60.3485 35.0323C60.3485 35.5667 60.79 36 61.3346 36V37.5484C59.9187 37.5484 58.7708 36.4219 58.7708 35.0323C58.7708 33.6426 59.9187 32.5161 61.3346 32.5161C62.7506 32.5161 63.8984 33.6426 63.8984 35.0323C63.8984 36.4219 62.7506 37.5484 61.3346 37.5484V36C61.8792 36 62.3207 35.5667 62.3207 35.0323ZM36.288 33.0968C36.288 32.5623 35.8465 32.129 35.3019 32.129C34.7573 32.129 34.3158 32.5623 34.3158 33.0968C34.3158 33.6312 34.7573 34.0645 35.3019 34.0645V35.6129C33.886 35.6129 32.7381 34.4864 32.7381 33.0968C32.7381 31.7072 33.886 30.5806 35.3019 30.5806C36.7179 30.5806 37.8657 31.7072 37.8657 33.0968C37.8657 34.4864 36.7179 35.6129 35.3019 35.6129V34.0645C35.8465 34.0645 36.288 33.6312 36.288 33.0968ZM28.0049 31.5484C28.0049 31.12 27.5872 30.5806 26.8216 30.5806C26.0559 30.5806 25.6383 31.12 25.6383 31.5484C25.6383 31.9768 26.0559 32.5161 26.8216 32.5161V34.0645C25.2967 34.0645 24.0605 32.938 24.0605 31.5484C24.0605 30.1588 25.2967 29.0323 26.8216 29.0323C28.3465 29.0323 29.5826 30.1588 29.5826 31.5484C29.5826 32.938 28.3465 34.0645 26.8216 34.0645V32.5161C27.5872 32.5161 28.0049 31.9768 28.0049 31.5484ZM46.9377 31.5484C46.9377 31.0139 46.4963 30.5806 45.9517 30.5806C45.4071 30.5806 44.9656 31.0139 44.9656 31.5484C44.9656 32.0829 45.4071 32.5161 45.9517 32.5161V34.0645C44.5357 34.0645 43.3878 32.938 43.3878 31.5484C43.3878 30.1588 44.5357 29.0323 45.9517 29.0323C47.3676 29.0323 48.5155 30.1588 48.5155 31.5484C48.5155 32.938 47.3676 34.0645 45.9517 34.0645V32.5161C46.4963 32.5161 46.9377 32.0829 46.9377 31.5484Z" fill="#1C7D56"/>
<path d="M42.644 99.4846C51.6649 99.8214 58.9163 100.913 65.9881 104.243C66.5773 104.521 66.8258 105.215 66.5432 105.793C66.2604 106.371 65.5534 106.615 64.9643 106.337C58.313 103.205 51.4327 102.137 42.5539 101.806C41.9009 101.781 41.3916 101.242 41.4164 100.601C41.4413 99.9601 41.991 99.4602 42.644 99.4846ZM24.4099 98.7104C25.0629 98.6861 25.6126 99.1859 25.6375 99.8267C25.6623 100.468 25.153 101.007 24.5 101.031C15.6212 101.363 8.74088 102.431 2.08966 105.563C1.50049 105.841 0.793495 105.597 0.510762 105.019C0.228087 104.44 0.476665 103.746 1.06582 103.469C8.13764 100.138 15.389 99.0472 24.4099 98.7104Z" fill="#1C7D56"/>
</svg>
