<svg width="95" height="49" viewBox="0 0 95 49" fill="none" xmlns="http://www.w3.org/2000/svg">
<path d="M41.8222 44.7849V43.0142H42.1218V44.5025H42.9269V44.7849H41.8222Z" fill="#3B4754"/>
<path d="M44.1235 44.7849H43.8672V44.6039C43.754 44.7391 43.6048 44.8067 43.4195 44.8067C43.2775 44.8067 43.1608 44.7668 43.0693 44.6872C42.9803 44.6051 42.9358 44.4989 42.9358 44.3685C42.9358 44.2381 42.9839 44.1392 43.0802 44.0716C43.1764 44.004 43.3088 43.9702 43.4773 43.9702H43.8455V43.9195C43.8455 43.7408 43.7456 43.6515 43.5459 43.6515C43.4207 43.6515 43.2908 43.6974 43.156 43.7891L43.0296 43.6117C43.1957 43.4813 43.381 43.4161 43.5856 43.4161C43.7516 43.4161 43.8828 43.4584 43.9791 43.5429C44.0753 43.625 44.1235 43.7493 44.1235 43.9159V44.7849ZM43.8419 44.1693H43.5242C43.3196 44.1693 43.2174 44.2333 43.2174 44.3613C43.2174 44.4265 43.2426 44.4771 43.2932 44.5134C43.3437 44.5472 43.4147 44.5641 43.5062 44.5641C43.6 44.5641 43.6794 44.5387 43.7444 44.488C43.8094 44.4349 43.8419 44.3661 43.8419 44.2816V44.1693Z" fill="#3B4754"/>
<path d="M45.7213 44.1042C45.7213 44.307 45.6588 44.4747 45.5336 44.6075C45.4085 44.7403 45.2593 44.8067 45.086 44.8067C44.9151 44.8067 44.7623 44.7318 44.6275 44.5822V44.7849H44.3459V42.9056H44.6275V43.6732C44.7406 43.5018 44.8862 43.4161 45.0643 43.4161C45.2496 43.4161 45.4049 43.4801 45.53 43.6081C45.6576 43.736 45.7213 43.9014 45.7213 44.1042ZM45.021 44.5532C45.1365 44.5532 45.234 44.5122 45.3134 44.4301C45.3952 44.3456 45.4361 44.2394 45.4361 44.1114C45.4361 43.9835 45.3952 43.8772 45.3134 43.7927C45.234 43.7082 45.1377 43.666 45.0246 43.666C44.9115 43.666 44.8164 43.7095 44.7394 43.7964C44.6624 43.8809 44.6239 43.9859 44.6239 44.1114C44.6239 44.2394 44.6624 44.3456 44.7394 44.4301C44.8164 44.5122 44.9103 44.5532 45.021 44.5532Z" fill="#3B4754"/>
<path d="M46.4843 44.5532C46.6071 44.5532 46.7081 44.5122 46.7876 44.4301C46.8694 44.348 46.9103 44.2418 46.9103 44.1114C46.9103 43.981 46.8694 43.8748 46.7876 43.7927C46.7081 43.7107 46.6071 43.6696 46.4843 43.6696C46.3616 43.6696 46.2605 43.7107 46.1811 43.7927C46.1016 43.8748 46.0619 43.981 46.0619 44.1114C46.0619 44.2418 46.1016 44.3468 46.1811 44.4264C46.2605 44.5109 46.3616 44.5532 46.4843 44.5532ZM46.4843 44.8067C46.2821 44.8067 46.1137 44.7403 45.9789 44.6075C45.8441 44.4723 45.7767 44.307 45.7767 44.1114C45.7767 43.9159 45.8441 43.7517 45.9789 43.6189C46.1137 43.4837 46.2821 43.4161 46.4843 43.4161C46.6865 43.4161 46.8549 43.4837 46.9897 43.6189C47.1245 43.7517 47.1919 43.9159 47.1919 44.1114C47.1919 44.2997 47.1245 44.4639 46.9897 44.6039C46.8549 44.7391 46.6865 44.8067 46.4843 44.8067Z" fill="#3B4754"/>
<path d="M47.6184 44.2056V44.7849H47.3368V43.4379H47.6184V43.7058C47.6641 43.6213 47.7255 43.5525 47.8025 43.4994C47.8819 43.4463 47.9649 43.4186 48.0516 43.4161L48.0552 43.7022H48.0407C47.9036 43.7022 47.7989 43.7469 47.7267 43.8362C47.6545 43.9255 47.6184 44.0486 47.6184 44.2056Z" fill="#3B4754"/>
<path d="M49.2503 44.7849H48.994V44.6039C48.8809 44.7391 48.7316 44.8067 48.5463 44.8067C48.4043 44.8067 48.2876 44.7668 48.1962 44.6872C48.1071 44.6051 48.0626 44.4989 48.0626 44.3685C48.0626 44.2381 48.1107 44.1392 48.207 44.0716C48.3032 44.004 48.4356 43.9702 48.6041 43.9702H48.9723V43.9195C48.9723 43.7408 48.8724 43.6515 48.6727 43.6515C48.5475 43.6515 48.4176 43.6974 48.2828 43.7891L48.1564 43.6117C48.3225 43.4813 48.5078 43.4161 48.7124 43.4161C48.8785 43.4161 49.0096 43.4584 49.1059 43.5429C49.2022 43.625 49.2503 43.7493 49.2503 43.9159V44.7849ZM48.9687 44.1693H48.651C48.4464 44.1693 48.3442 44.2333 48.3442 44.3613C48.3442 44.4265 48.3694 44.4771 48.42 44.5134C48.4705 44.5472 48.5415 44.5641 48.633 44.5641C48.7268 44.5641 48.8063 44.5387 48.8712 44.488C48.9362 44.4349 48.9687 44.3661 48.9687 44.2816V44.1693Z" fill="#3B4754"/>
<path d="M49.8193 43.666V44.3504C49.8193 44.4156 49.8361 44.4675 49.8698 44.5061C49.9059 44.5423 49.9541 44.5604 50.0142 44.5604C50.0696 44.5604 50.1273 44.5303 50.1875 44.4699L50.303 44.6727C50.202 44.762 50.0924 44.8067 49.9745 44.8067C49.8518 44.8067 49.7483 44.7644 49.6641 44.6799C49.5798 44.593 49.5377 44.4808 49.5377 44.3432V43.666H49.368V43.4379H49.5377V43.0142H49.8193V43.4379H50.1731V43.666H49.8193Z" fill="#3B4754"/>
<path d="M50.9716 44.5532C51.0944 44.5532 51.1955 44.5122 51.2749 44.4301C51.3567 44.348 51.3976 44.2418 51.3976 44.1114C51.3976 43.981 51.3567 43.8748 51.2749 43.7927C51.1955 43.7107 51.0944 43.6696 50.9716 43.6696C50.8489 43.6696 50.7478 43.7107 50.6684 43.7927C50.589 43.8748 50.5493 43.981 50.5493 44.1114C50.5493 44.2418 50.589 44.3468 50.6684 44.4264C50.7478 44.5109 50.8489 44.5532 50.9716 44.5532ZM50.9716 44.8067C50.7695 44.8067 50.601 44.7403 50.4662 44.6075C50.3315 44.4723 50.2641 44.307 50.2641 44.1114C50.2641 43.9159 50.3315 43.7517 50.4662 43.6189C50.601 43.4837 50.7695 43.4161 50.9716 43.4161C51.1738 43.4161 51.3423 43.4837 51.4771 43.6189C51.6118 43.7517 51.6792 43.9159 51.6792 44.1114C51.6792 44.2997 51.6118 44.4639 51.4771 44.6039C51.3423 44.7391 51.1738 44.8067 50.9716 44.8067ZM51.1016 43.2641H50.8453L51.1124 42.8947L51.4085 43.0214L51.1016 43.2641Z" fill="#3B4754"/>
<path d="M52.1057 44.2056V44.7849H51.8241V43.4379H52.1057V43.7058C52.1514 43.6213 52.2128 43.5525 52.2898 43.4994C52.3692 43.4463 52.4523 43.4186 52.5389 43.4161L52.5425 43.7022H52.5281C52.3909 43.7022 52.2862 43.7469 52.214 43.8362C52.1418 43.9255 52.1057 44.0486 52.1057 44.2056Z" fill="#3B4754"/>
<path d="M52.9326 44.7849H52.651V43.4379H52.9326V44.7849ZM52.6149 43.0395C52.6149 42.9913 52.6317 42.9502 52.6654 42.9164C52.7015 42.8802 52.7449 42.8621 52.7954 42.8621C52.8435 42.8621 52.8844 42.8802 52.9181 42.9164C52.9542 42.9502 52.9723 42.9913 52.9723 43.0395C52.9723 43.0902 52.9542 43.1337 52.9181 43.1699C52.8844 43.2037 52.8435 43.2206 52.7954 43.2206C52.7449 43.2206 52.7027 43.2025 52.669 43.1663C52.6329 43.1325 52.6149 43.0902 52.6149 43.0395Z" fill="#3B4754"/>
<path d="M53.7874 44.5532C53.9102 44.5532 54.0112 44.5122 54.0907 44.4301C54.1725 44.348 54.2134 44.2418 54.2134 44.1114C54.2134 43.981 54.1725 43.8748 54.0907 43.7927C54.0112 43.7107 53.9102 43.6696 53.7874 43.6696C53.6647 43.6696 53.5636 43.7107 53.4842 43.7927C53.4048 43.8748 53.365 43.981 53.365 44.1114C53.365 44.2418 53.4048 44.3468 53.4842 44.4264C53.5636 44.5109 53.6647 44.5532 53.7874 44.5532ZM53.7874 44.8067C53.5853 44.8067 53.4168 44.7403 53.282 44.6075C53.1472 44.4723 53.0798 44.307 53.0798 44.1114C53.0798 43.9159 53.1472 43.7517 53.282 43.6189C53.4168 43.4837 53.5853 43.4161 53.7874 43.4161C53.9896 43.4161 54.1581 43.4837 54.2928 43.6189C54.4276 43.7517 54.495 43.9159 54.495 44.1114C54.495 44.2997 54.4276 44.4639 54.2928 44.6039C54.1581 44.7391 53.9896 44.8067 53.7874 44.8067Z" fill="#3B4754"/>
<path d="M55.0724 44.1042C55.0724 43.9014 55.1361 43.736 55.2637 43.6081C55.3912 43.4801 55.5477 43.4161 55.733 43.4161C55.9111 43.4161 56.0543 43.4922 56.1626 43.6443V42.9056H56.4478V44.7849H56.1626V44.5822C56.0615 44.7318 55.9099 44.8067 55.7077 44.8067C55.532 44.8067 55.3816 44.7415 55.2565 44.6111C55.1337 44.4784 55.0724 44.3094 55.0724 44.1042ZM55.7691 44.5532C55.8822 44.5532 55.9773 44.5122 56.0543 44.4301C56.1313 44.348 56.1698 44.243 56.1698 44.115C56.1698 43.9895 56.1301 43.8833 56.0507 43.7964C55.9737 43.7095 55.8786 43.666 55.7655 43.666C55.6524 43.666 55.5549 43.7095 55.4731 43.7964C55.3937 43.8809 55.3539 43.9871 55.3539 44.115C55.3539 44.243 55.3949 44.348 55.4767 44.4301C55.5585 44.5122 55.656 44.5532 55.7691 44.5532Z" fill="#3B4754"/>
<path d="M57.9292 44.2345H56.875C56.8822 44.3311 56.9268 44.4096 57.0086 44.4699C57.0904 44.5303 57.1855 44.5604 57.2938 44.5604C57.4647 44.5604 57.5922 44.5073 57.6765 44.4011L57.8389 44.5785C57.6945 44.7306 57.5056 44.8067 57.2721 44.8067C57.0796 44.8067 56.9184 44.7427 56.7884 44.6148C56.6584 44.4868 56.5934 44.3178 56.5934 44.1078C56.5934 43.9026 56.6596 43.736 56.792 43.6081C56.9244 43.4801 57.0844 43.4161 57.2721 43.4161C57.4599 43.4161 57.6163 43.4729 57.7414 43.5863C57.8666 43.6998 57.9292 43.8507 57.9292 44.039V44.2345ZM57.6476 44.01C57.6476 43.9014 57.6127 43.8157 57.5429 43.7529C57.4755 43.6901 57.3877 43.6588 57.2794 43.6588C57.1711 43.6588 57.076 43.6914 56.9942 43.7565C56.9147 43.8217 56.875 43.9062 56.875 44.01H57.6476Z" fill="#3B4754"/>
<path d="M59.2331 43.0142C59.4978 43.0142 59.6916 43.0661 59.8143 43.1699C59.9395 43.2713 60.0021 43.4294 60.0021 43.6443C60.0021 43.8567 59.9395 44.0136 59.8143 44.115C59.6892 44.214 59.4966 44.2635 59.2367 44.2635H58.9263V44.7849H58.6266V43.0142H59.2331ZM59.2692 43.9955C59.4281 43.9955 59.5388 43.9654 59.6013 43.905C59.6663 43.8446 59.6988 43.7493 59.6988 43.6189C59.6988 43.4982 59.6615 43.4125 59.5869 43.3618C59.5123 43.3111 59.392 43.2858 59.2259 43.2858H58.9263V43.9955H59.2692Z" fill="#3B4754"/>
<path d="M61.3913 44.2345H60.3371C60.3444 44.3311 60.3889 44.4096 60.4707 44.4699C60.5525 44.5303 60.6476 44.5604 60.7559 44.5604C60.9268 44.5604 61.0543 44.5073 61.1386 44.4011L61.301 44.5785C61.1566 44.7306 60.9677 44.8067 60.7342 44.8067C60.5417 44.8067 60.3805 44.7427 60.2505 44.6148C60.1205 44.4868 60.0555 44.3178 60.0555 44.1078C60.0555 43.9026 60.1217 43.736 60.2541 43.6081C60.3865 43.4801 60.5465 43.4161 60.7342 43.4161C60.922 43.4161 61.0784 43.4729 61.2036 43.5863C61.3287 43.6998 61.3913 43.8507 61.3913 44.039V44.2345ZM61.1097 44.01C61.1097 43.9014 61.0748 43.8157 61.005 43.7529C60.9376 43.6901 60.8498 43.6588 60.7415 43.6588C60.6332 43.6588 60.5381 43.6914 60.4563 43.7565C60.3768 43.8217 60.3371 43.9062 60.3371 44.01H61.1097Z" fill="#3B4754"/>
<path d="M61.992 44.8067C61.7754 44.8067 61.5804 44.7391 61.4072 44.6039L61.5443 44.383C61.6984 44.5013 61.85 44.5604 61.9992 44.5604C62.0618 44.5604 62.1111 44.546 62.1472 44.517C62.1857 44.4856 62.205 44.447 62.205 44.4011C62.205 44.3335 62.1159 44.2732 61.9378 44.22C61.933 44.2176 61.927 44.2152 61.9198 44.2128C61.915 44.2104 61.9114 44.2092 61.909 44.2092C61.6298 44.1343 61.4902 44.0076 61.4902 43.829C61.4902 43.7034 61.5371 43.6032 61.631 43.5284C61.7273 43.4536 61.8536 43.4161 62.01 43.4161C62.1641 43.4161 62.3109 43.462 62.4505 43.5537L62.3458 43.7638C62.2375 43.6913 62.1183 43.6551 61.9884 43.6551C61.8368 43.6551 61.7609 43.7034 61.7609 43.8C61.7609 43.841 61.7754 43.8712 61.8043 43.8905C61.8356 43.9074 61.8861 43.9243 61.9559 43.9412C62.0618 43.9702 62.1508 43.9992 62.223 44.0281C62.2712 44.0498 62.3133 44.0728 62.3494 44.0969C62.4408 44.1597 62.4866 44.255 62.4866 44.383C62.4866 44.5085 62.4396 44.6111 62.3458 44.6908C62.2543 44.768 62.1364 44.8067 61.992 44.8067Z" fill="#3B4754"/>
<path d="M62.5471 44.1042C62.5471 43.899 62.6097 43.7336 62.7349 43.6081C62.86 43.4801 63.0153 43.4161 63.2006 43.4161C63.3835 43.4161 63.5291 43.5018 63.6374 43.6732V43.4379H63.9226V45.2774H63.6374V44.5822C63.5026 44.7318 63.351 44.8067 63.1825 44.8067C63.0092 44.8067 62.86 44.7403 62.7349 44.6075C62.6097 44.4747 62.5471 44.307 62.5471 44.1042ZM63.2439 44.5532C63.357 44.5532 63.4521 44.5122 63.5291 44.4301C63.6061 44.3456 63.6446 44.2394 63.6446 44.1114C63.6446 43.9859 63.6049 43.8809 63.5255 43.7964C63.4485 43.7095 63.3534 43.666 63.2403 43.666C63.1272 43.666 63.0297 43.7082 62.9479 43.7927C62.8684 43.8772 62.8287 43.9835 62.8287 44.1114C62.8287 44.2394 62.8696 44.3456 62.9515 44.4301C63.0333 44.5122 63.1308 44.5532 63.2439 44.5532Z" fill="#3B4754"/>
<path d="M65.0935 43.4379H65.3787V44.7849H65.0935V44.5387C65.0478 44.6208 64.984 44.686 64.9022 44.7342C64.8227 44.7825 64.7373 44.8067 64.6458 44.8067C64.4918 44.8067 64.3691 44.7596 64.2776 44.6654C64.1861 44.5713 64.1404 44.4373 64.1404 44.2635V43.4379H64.422V44.1766C64.422 44.4252 64.5243 44.5496 64.7289 44.5496C64.8324 44.5496 64.919 44.5158 64.9888 44.4482C65.0586 44.3806 65.0935 44.2864 65.0935 44.1657V43.4379Z" fill="#3B4754"/>
<path d="M65.8926 44.7849H65.611V43.4379H65.8926V44.7849ZM65.5749 43.0395C65.5749 42.9913 65.5917 42.9502 65.6254 42.9164C65.6615 42.8802 65.7048 42.8621 65.7554 42.8621C65.8035 42.8621 65.8444 42.8802 65.8781 42.9164C65.9142 42.9502 65.9323 42.9913 65.9323 43.0395C65.9323 43.0902 65.9142 43.1337 65.8781 43.1699C65.8444 43.2037 65.8035 43.2206 65.7554 43.2206C65.7048 43.2206 65.6627 43.2025 65.629 43.1663C65.5929 43.1325 65.5749 43.0902 65.5749 43.0395Z" fill="#3B4754"/>
<path d="M66.5922 44.8067C66.3756 44.8067 66.1806 44.7391 66.0073 44.6039L66.1445 44.383C66.2986 44.5013 66.4502 44.5604 66.5994 44.5604C66.662 44.5604 66.7113 44.546 66.7474 44.517C66.7859 44.4856 66.8052 44.447 66.8052 44.4011C66.8052 44.3335 66.7161 44.2732 66.538 44.22C66.5332 44.2176 66.5272 44.2152 66.52 44.2128C66.5152 44.2104 66.5116 44.2092 66.5091 44.2092C66.23 44.1343 66.0904 44.0076 66.0904 43.829C66.0904 43.7034 66.1373 43.6032 66.2312 43.5284C66.3274 43.4536 66.4538 43.4161 66.6102 43.4161C66.7643 43.4161 66.9111 43.462 67.0507 43.5537L66.946 43.7638C66.8377 43.6913 66.7185 43.6551 66.5886 43.6551C66.4369 43.6551 66.3611 43.7034 66.3611 43.8C66.3611 43.841 66.3756 43.8712 66.4044 43.8905C66.4357 43.9074 66.4863 43.9243 66.5561 43.9412C66.662 43.9702 66.751 43.9992 66.8232 44.0281C66.8714 44.0498 66.9135 44.0728 66.9496 44.0969C67.041 44.1597 67.0868 44.255 67.0868 44.383C67.0868 44.5085 67.0398 44.6111 66.946 44.6908C66.8545 44.768 66.7366 44.8067 66.5922 44.8067Z" fill="#3B4754"/>
<path d="M68.3206 44.7849H68.0643V44.6039C67.9512 44.7391 67.802 44.8067 67.6166 44.8067C67.4746 44.8067 67.3579 44.7668 67.2665 44.6872C67.1774 44.6051 67.1329 44.4989 67.1329 44.3685C67.1329 44.2381 67.181 44.1392 67.2773 44.0716C67.3736 44.004 67.5059 43.9702 67.6744 43.9702H68.0426V43.9195C68.0426 43.7408 67.9427 43.6515 67.743 43.6515C67.6178 43.6515 67.4879 43.6974 67.3531 43.7891L67.2267 43.6117C67.3928 43.4813 67.5781 43.4161 67.7827 43.4161C67.9488 43.4161 68.0799 43.4584 68.1762 43.5429C68.2725 43.625 68.3206 43.7493 68.3206 43.9159V44.7849ZM68.039 44.1693H67.7213C67.5168 44.1693 67.4145 44.2333 67.4145 44.3613C67.4145 44.4265 67.4397 44.4771 67.4903 44.5134C67.5408 44.5472 67.6118 44.5641 67.7033 44.5641C67.7971 44.5641 67.8766 44.5387 67.9415 44.488C68.0065 44.4349 68.039 44.3661 68.039 44.2816V44.1693Z" fill="#3B4754"/>
<path d="M69.0051 44.8067C68.7885 44.8067 68.5936 44.7391 68.4203 44.6039L68.5575 44.383C68.7115 44.5013 68.8631 44.5604 69.0123 44.5604C69.0749 44.5604 69.1242 44.546 69.1603 44.517C69.1989 44.4856 69.2181 44.447 69.2181 44.4011C69.2181 44.3335 69.1291 44.2732 68.951 44.22C68.9462 44.2176 68.9401 44.2152 68.9329 44.2128C68.9281 44.2104 68.9245 44.2092 68.9221 44.2092C68.6429 44.1343 68.5033 44.0076 68.5033 43.829C68.5033 43.7034 68.5502 43.6032 68.6441 43.5284C68.7404 43.4536 68.8667 43.4161 69.0232 43.4161C69.1772 43.4161 69.324 43.462 69.4636 43.5537L69.3589 43.7638C69.2506 43.6913 69.1315 43.6551 69.0015 43.6551C68.8499 43.6551 68.7741 43.7034 68.7741 43.8C68.7741 43.841 68.7885 43.8712 68.8174 43.8905C68.8487 43.9074 68.8992 43.9243 68.969 43.9412C69.0749 43.9702 69.164 43.9992 69.2362 44.0281C69.2843 44.0498 69.3264 44.0728 69.3625 44.0969C69.454 44.1597 69.4997 44.255 69.4997 44.383C69.4997 44.5085 69.4528 44.6111 69.3589 44.6908C69.2674 44.768 69.1495 44.8067 69.0051 44.8067Z" fill="#3B4754"/>
<path d="M70.2057 43.0142H70.5054V44.7849H70.2057V43.0142Z" fill="#3B4754"/>
<path d="M71.059 44.7849H70.7775V43.4379H71.059V43.6805C71.1048 43.5984 71.1674 43.5344 71.2468 43.4886C71.3286 43.4403 71.4152 43.4161 71.5067 43.4161C71.6631 43.4161 71.7871 43.4632 71.8785 43.5574C71.97 43.6515 72.0157 43.7855 72.0157 43.9593V44.7849H71.7305V44.0462C71.7305 43.7976 71.6282 43.6732 71.4237 43.6732C71.3202 43.6732 71.2335 43.707 71.1637 43.7746C71.0939 43.8398 71.059 43.9328 71.059 44.0535V44.7849Z" fill="#3B4754"/>
<path d="M72.5801 43.666V44.3504C72.5801 44.4156 72.597 44.4675 72.6307 44.5061C72.6668 44.5423 72.7149 44.5604 72.7751 44.5604C72.8304 44.5604 72.8882 44.5303 72.9484 44.4699L73.0639 44.6727C72.9628 44.762 72.8533 44.8067 72.7354 44.8067C72.6126 44.8067 72.5091 44.7644 72.4249 44.6799C72.3407 44.593 72.2985 44.4808 72.2985 44.3432V43.666H72.1289V43.4379H72.2985V43.0142H72.5801V43.4379H72.9339V43.666H72.5801Z" fill="#3B4754"/>
<path d="M74.3643 44.2345H73.3101C73.3173 44.3311 73.3619 44.4096 73.4437 44.4699C73.5255 44.5303 73.6206 44.5604 73.7289 44.5604C73.8998 44.5604 74.0273 44.5073 74.1115 44.4011L74.274 44.5785C74.1296 44.7306 73.9407 44.8067 73.7072 44.8067C73.5147 44.8067 73.3534 44.7427 73.2235 44.6148C73.0935 44.4868 73.0285 44.3178 73.0285 44.1078C73.0285 43.9026 73.0947 43.736 73.2271 43.6081C73.3594 43.4801 73.5195 43.4161 73.7072 43.4161C73.8949 43.4161 74.0514 43.4729 74.1765 43.5863C74.3017 43.6998 74.3643 43.8507 74.3643 44.039V44.2345ZM74.0827 44.01C74.0827 43.9014 74.0478 43.8157 73.978 43.7529C73.9106 43.6901 73.8227 43.6588 73.7144 43.6588C73.6061 43.6588 73.5111 43.6914 73.4292 43.7565C73.3498 43.8217 73.3101 43.9062 73.3101 44.01H74.0827Z" fill="#3B4754"/>
<path d="M74.7845 44.2056V44.7849H74.5029V43.4379H74.7845V43.7058C74.8302 43.6213 74.8916 43.5525 74.9686 43.4994C75.048 43.4463 75.131 43.4186 75.2177 43.4161L75.2213 43.7022H75.2068C75.0697 43.7022 74.965 43.7469 74.8928 43.8362C74.8206 43.9255 74.7845 44.0486 74.7845 44.2056Z" fill="#3B4754"/>
<path d="M75.2431 44.1042C75.2431 43.9014 75.3069 43.736 75.4345 43.6081C75.562 43.4801 75.7185 43.4161 75.9038 43.4161C76.0819 43.4161 76.2251 43.4922 76.3334 43.6443V42.9056H76.6186V44.7849H76.3334V44.5822C76.2323 44.7318 76.0807 44.8067 75.8785 44.8067C75.7028 44.8067 75.5524 44.7415 75.4272 44.6111C75.3045 44.4784 75.2431 44.3094 75.2431 44.1042ZM75.9399 44.5532C76.053 44.5532 76.148 44.5122 76.2251 44.4301C76.3021 44.348 76.3406 44.243 76.3406 44.115C76.3406 43.9895 76.3009 43.8833 76.2215 43.7964C76.1444 43.7095 76.0494 43.666 75.9363 43.666C75.8231 43.666 75.7257 43.7095 75.6438 43.7964C75.5644 43.8809 75.5247 43.9871 75.5247 44.115C75.5247 44.243 75.5656 44.348 75.6475 44.4301C75.7293 44.5122 75.8268 44.5532 75.9399 44.5532Z" fill="#3B4754"/>
<path d="M77.1324 44.7849H76.8508V43.4379H77.1324V44.7849ZM76.8148 43.0395C76.8148 42.9913 76.8316 42.9502 76.8653 42.9164C76.9014 42.8802 76.9447 42.8621 76.9953 42.8621C77.0434 42.8621 77.0843 42.8802 77.118 42.9164C77.1541 42.9502 77.1721 42.9913 77.1721 43.0395C77.1721 43.0902 77.1541 43.1337 77.118 43.1699C77.0843 43.2037 77.0434 43.2206 76.9953 43.2206C76.9447 43.2206 76.9026 43.2025 76.8689 43.1663C76.8328 43.1325 76.8148 43.0902 76.8148 43.0395Z" fill="#3B4754"/>
<path d="M77.832 44.8067C77.6154 44.8067 77.4205 44.7391 77.2472 44.6039L77.3844 44.383C77.5384 44.5013 77.6901 44.5604 77.8393 44.5604C77.9018 44.5604 77.9512 44.546 77.9873 44.517C78.0258 44.4856 78.045 44.447 78.045 44.4011C78.045 44.3335 77.956 44.2732 77.7779 44.22C77.7731 44.2176 77.7671 44.2152 77.7598 44.2128C77.755 44.2104 77.7514 44.2092 77.749 44.2092C77.4698 44.1343 77.3302 44.0076 77.3302 43.829C77.3302 43.7034 77.3772 43.6032 77.471 43.5284C77.5673 43.4536 77.6937 43.4161 77.8501 43.4161C78.0041 43.4161 78.1509 43.462 78.2905 43.5537L78.1858 43.7638C78.0775 43.6913 77.9584 43.6551 77.8284 43.6551C77.6768 43.6551 77.601 43.7034 77.601 43.8C77.601 43.841 77.6154 43.8712 77.6443 43.8905C77.6756 43.9074 77.7262 43.9243 77.7959 43.9412C77.9018 43.9702 77.9909 43.9992 78.0631 44.0281C78.1112 44.0498 78.1534 44.0728 78.1894 44.0969C78.2809 44.1597 78.3266 44.255 78.3266 44.383C78.3266 44.5085 78.2797 44.6111 78.1858 44.6908C78.0944 44.768 77.9764 44.8067 77.832 44.8067Z" fill="#3B4754"/>
<path d="M78.3836 44.1114C78.3836 43.9086 78.4534 43.742 78.593 43.6117C78.7326 43.4813 78.9046 43.4161 79.1092 43.4161C79.3114 43.4161 79.4823 43.4862 79.6218 43.6262L79.4558 43.8326C79.3403 43.7312 79.2235 43.6805 79.1056 43.6805C78.9853 43.6805 78.8818 43.7203 78.7951 43.8C78.7109 43.8772 78.6688 43.9774 78.6688 44.1005C78.6688 44.2261 78.7109 44.3323 78.7951 44.4192C78.8818 44.5037 78.9877 44.546 79.1128 44.546C79.238 44.546 79.3571 44.4892 79.4702 44.3758L79.6363 44.5568C79.4654 44.7234 79.2765 44.8067 79.0695 44.8067C78.877 44.8067 78.7145 44.7427 78.5821 44.6148C78.4498 44.4844 78.3836 44.3166 78.3836 44.1114Z" fill="#3B4754"/>
<path d="M80.0337 44.7849H79.7521V43.4379H80.0337V44.7849ZM79.716 43.0395C79.716 42.9913 79.7329 42.9502 79.7666 42.9164C79.8027 42.8802 79.846 42.8621 79.8965 42.8621C79.9447 42.8621 79.9856 42.8802 80.0193 42.9164C80.0554 42.9502 80.0734 42.9913 80.0734 43.0395C80.0734 43.0902 80.0554 43.1337 80.0193 43.1699C79.9856 43.2037 79.9447 43.2206 79.8965 43.2206C79.846 43.2206 79.8039 43.2025 79.7702 43.1663C79.7341 43.1325 79.716 43.0902 79.716 43.0395Z" fill="#3B4754"/>
<path d="M81.6467 44.1042C81.6467 44.307 81.5841 44.4747 81.4589 44.6075C81.3338 44.7403 81.1846 44.8067 81.0113 44.8067C80.8404 44.8067 80.6876 44.7318 80.5528 44.5822V45.2774H80.2712V43.4379H80.5528V43.6732C80.6659 43.5018 80.8115 43.4161 80.9896 43.4161C81.175 43.4161 81.3302 43.4801 81.4553 43.6081C81.5829 43.736 81.6467 43.9014 81.6467 44.1042ZM80.9463 44.5532C81.0618 44.5532 81.1593 44.5122 81.2387 44.4301C81.3206 44.3456 81.3615 44.2394 81.3615 44.1114C81.3615 43.9835 81.3206 43.8772 81.2387 43.7927C81.1593 43.7082 81.063 43.666 80.9499 43.666C80.8368 43.666 80.7417 43.7095 80.6647 43.7964C80.5877 43.8809 80.5492 43.9859 80.5492 44.1114C80.5492 44.2394 80.5877 44.3456 80.6647 44.4301C80.7417 44.5122 80.8356 44.5532 80.9463 44.5532Z" fill="#3B4754"/>
<path d="M82.0739 44.7849H81.7923V42.9056H82.0739V44.7849Z" fill="#3B4754"/>
<path d="M82.593 44.7849H82.3114V43.4379H82.593V44.7849ZM82.2753 43.0395C82.2753 42.9913 82.2922 42.9502 82.3259 42.9164C82.362 42.8802 82.4053 42.8621 82.4558 42.8621C82.504 42.8621 82.5449 42.8802 82.5786 42.9164C82.6147 42.9502 82.6327 42.9913 82.6327 43.0395C82.6327 43.0902 82.6147 43.1337 82.5786 43.1699C82.5449 43.2037 82.504 43.2206 82.4558 43.2206C82.4053 43.2206 82.3632 43.2025 82.3295 43.1663C82.2934 43.1325 82.2753 43.0902 82.2753 43.0395Z" fill="#3B4754"/>
<path d="M83.1121 44.7849H82.8305V43.4379H83.1121V43.6805C83.1579 43.5984 83.2204 43.5344 83.2999 43.4886C83.3817 43.4403 83.4683 43.4161 83.5598 43.4161C83.7162 43.4161 83.8402 43.4632 83.9316 43.5574C84.0231 43.6515 84.0688 43.7855 84.0688 43.9593V44.7849H83.7836V44.0462C83.7836 43.7976 83.6813 43.6732 83.4767 43.6732C83.3733 43.6732 83.2866 43.707 83.2168 43.7746C83.147 43.8398 83.1121 43.9328 83.1121 44.0535V44.7849Z" fill="#3B4754"/>
<path d="M85.3733 44.7849H85.117V44.6039C85.0038 44.7391 84.8546 44.8067 84.6693 44.8067C84.5273 44.8067 84.4106 44.7668 84.3191 44.6872C84.2301 44.6051 84.1856 44.4989 84.1856 44.3685C84.1856 44.2381 84.2337 44.1392 84.33 44.0716C84.4262 44.004 84.5586 43.9702 84.7271 43.9702H85.0953V43.9195C85.0953 43.7408 84.9954 43.6515 84.7957 43.6515C84.6705 43.6515 84.5406 43.6974 84.4058 43.7891L84.2794 43.6117C84.4455 43.4813 84.6308 43.4161 84.8354 43.4161C85.0014 43.4161 85.1326 43.4584 85.2289 43.5429C85.3251 43.625 85.3733 43.7493 85.3733 43.9159V44.7849ZM85.0917 44.1693H84.774C84.5694 44.1693 84.4671 44.2333 84.4671 44.3613C84.4671 44.4265 84.4924 44.4771 84.543 44.5134C84.5935 44.5472 84.6645 44.5641 84.756 44.5641C84.8498 44.5641 84.9292 44.5387 84.9942 44.488C85.0592 44.4349 85.0917 44.3661 85.0917 44.2816V44.1693Z" fill="#3B4754"/>
<path d="M85.8773 44.2056V44.7849H85.5957V43.4379H85.8773V43.7058C85.923 43.6213 85.9844 43.5525 86.0614 43.4994C86.1408 43.4463 86.2239 43.4186 86.3105 43.4161L86.3141 43.7022H86.2997C86.1625 43.7022 86.0578 43.7469 85.9856 43.8362C85.9134 43.9255 85.8773 44.0486 85.8773 44.2056Z" fill="#3B4754"/>
<path d="M87.6717 44.2345H86.6175C86.6248 44.3311 86.6693 44.4096 86.7511 44.4699C86.8329 44.5303 86.928 44.5604 87.0363 44.5604C87.2072 44.5604 87.3347 44.5073 87.419 44.4011L87.5814 44.5785C87.437 44.7306 87.2481 44.8067 87.0146 44.8067C86.8221 44.8067 86.6609 44.7427 86.5309 44.6148C86.4009 44.4868 86.336 44.3178 86.336 44.1078C86.336 43.9026 86.4021 43.736 86.5345 43.6081C86.6669 43.4801 86.8269 43.4161 87.0146 43.4161C87.2024 43.4161 87.3588 43.4729 87.484 43.5863C87.6091 43.6998 87.6717 43.8507 87.6717 44.039V44.2345ZM87.3901 44.01C87.3901 43.9014 87.3552 43.8157 87.2854 43.7529C87.218 43.6901 87.1302 43.6588 87.0219 43.6588C86.9136 43.6588 86.8185 43.6914 86.7367 43.7565C86.6572 43.8217 86.6175 43.9062 86.6175 44.01H87.3901Z" fill="#3B4754"/>
<path d="M88.2724 44.8067C88.0558 44.8067 87.8608 44.7391 87.6876 44.6039L87.8247 44.383C87.9788 44.5013 88.1304 44.5604 88.2796 44.5604C88.3422 44.5604 88.3915 44.546 88.4276 44.517C88.4661 44.4856 88.4854 44.447 88.4854 44.4011C88.4854 44.3335 88.3963 44.2732 88.2182 44.22C88.2134 44.2176 88.2074 44.2152 88.2002 44.2128C88.1954 44.2104 88.1918 44.2092 88.1894 44.2092C87.9102 44.1343 87.7706 44.0076 87.7706 43.829C87.7706 43.7034 87.8175 43.6032 87.9114 43.5284C88.0077 43.4536 88.134 43.4161 88.2904 43.4161C88.4445 43.4161 88.5913 43.462 88.7309 43.5537L88.6262 43.7638C88.5179 43.6913 88.3988 43.6551 88.2688 43.6551C88.1172 43.6551 88.0414 43.7034 88.0414 43.8C88.0414 43.841 88.0558 43.8712 88.0847 43.8905C88.116 43.9074 88.1665 43.9243 88.2363 43.9412C88.3422 43.9702 88.4312 43.9992 88.5034 44.0281C88.5516 44.0498 88.5937 44.0728 88.6298 44.0969C88.7213 44.1597 88.767 44.255 88.767 44.383C88.767 44.5085 88.72 44.6111 88.6262 44.6908C88.5347 44.768 88.4168 44.8067 88.2724 44.8067Z" fill="#3B4754"/>
<path d="M90.6824 44.2345H89.6282C89.6355 44.3311 89.68 44.4096 89.7618 44.4699C89.8436 44.5303 89.9387 44.5604 90.047 44.5604C90.2179 44.5604 90.3454 44.5073 90.4297 44.4011L90.5921 44.5785C90.4477 44.7306 90.2588 44.8067 90.0253 44.8067C89.8328 44.8067 89.6716 44.7427 89.5416 44.6148C89.4116 44.4868 89.3467 44.3178 89.3467 44.1078C89.3467 43.9026 89.4128 43.736 89.5452 43.6081C89.6776 43.4801 89.8376 43.4161 90.0253 43.4161C90.2131 43.4161 90.3695 43.4729 90.4947 43.5863C90.6198 43.6998 90.6824 43.8507 90.6824 44.039V44.2345ZM90.4008 44.01C90.4008 43.9014 90.3659 43.8157 90.2961 43.7529C90.2287 43.6901 90.1409 43.6588 90.0326 43.6588C89.9243 43.6588 89.8292 43.6914 89.7474 43.7565C89.6679 43.8217 89.6282 43.9062 89.6282 44.01H90.4008Z" fill="#3B4754"/>
<path d="M48.4453 45.8242V46.1031H47.5031V46.5738H48.3478V46.8382H47.5031V47.3125H48.4742V47.595H47.2035V45.8242H48.4453Z" fill="#3B4754"/>
<path d="M48.922 47.595H48.6404V46.2479H48.922V46.4905C48.9677 46.4084 49.0303 46.3445 49.1097 46.2986C49.1915 46.2503 49.2781 46.2262 49.3696 46.2262C49.526 46.2262 49.65 46.2733 49.7414 46.3674C49.8329 46.4616 49.8786 46.5955 49.8786 46.7694V47.595H49.5934V46.8563C49.5934 46.6076 49.4911 46.4833 49.2866 46.4833C49.1831 46.4833 49.0964 46.5171 49.0266 46.5847C48.9568 46.6499 48.922 46.7428 48.922 46.8635V47.595Z" fill="#3B4754"/>
<path d="M51.3383 46.2479V47.4212C51.3383 47.6529 51.2758 47.8304 51.1506 47.9535C51.0255 48.0766 50.8582 48.1382 50.6488 48.1382C50.4515 48.1382 50.2686 48.0742 50.1001 47.9462L50.2337 47.7326C50.3684 47.8316 50.502 47.8811 50.6344 47.8811C50.9232 47.8811 51.0676 47.7362 51.0676 47.4465V47.2727C51.0267 47.3524 50.9665 47.4163 50.8871 47.4646C50.8077 47.5105 50.7198 47.5334 50.6235 47.5334C50.4454 47.5334 50.2986 47.4719 50.1831 47.3487C50.07 47.2232 50.0134 47.0675 50.0134 46.8816C50.0134 46.6933 50.07 46.5376 50.1831 46.4145C50.2986 46.2889 50.4454 46.2262 50.6235 46.2262C50.8016 46.2262 50.946 46.2998 51.0568 46.4471V46.2479H51.3383ZM50.6705 47.2763C50.7836 47.2763 50.8763 47.2377 50.9485 47.1604C51.0207 47.0808 51.0568 46.983 51.0568 46.8671C51.0568 46.7488 51.0195 46.6511 50.9448 46.5738C50.8726 46.4941 50.78 46.4543 50.6669 46.4543C50.5537 46.4543 50.4623 46.4953 50.3925 46.5774C50.3251 46.6571 50.2914 46.7537 50.2914 46.8671C50.2914 46.983 50.3263 47.0808 50.3961 47.1604C50.4659 47.2377 50.5574 47.2763 50.6705 47.2763Z" fill="#3B4754"/>
<path d="M52.8222 47.0446H51.768C51.7753 47.1411 51.8198 47.2196 51.9016 47.2799C51.9834 47.3403 52.0785 47.3705 52.1868 47.3705C52.3577 47.3705 52.4852 47.3174 52.5695 47.2111L52.7319 47.3886C52.5875 47.5407 52.3986 47.6167 52.1652 47.6167C51.9726 47.6167 51.8114 47.5527 51.6814 47.4248C51.5514 47.2968 51.4865 47.1278 51.4865 46.9178C51.4865 46.7126 51.5526 46.5461 51.685 46.4181C51.8174 46.2902 51.9774 46.2262 52.1652 46.2262C52.3529 46.2262 52.5093 46.2829 52.6345 46.3964C52.7596 46.5098 52.8222 46.6607 52.8222 46.849V47.0446ZM52.5406 46.82C52.5406 46.7114 52.5057 46.6257 52.4359 46.563C52.3685 46.5002 52.2807 46.4688 52.1724 46.4688C52.0641 46.4688 51.969 46.5014 51.8872 46.5666C51.8078 46.6317 51.768 46.7162 51.768 46.82H52.5406Z" fill="#3B4754"/>
<path d="M53.2424 47.595H52.9608V46.2479H53.2424V46.4905C53.2881 46.4084 53.3507 46.3445 53.4301 46.2986C53.512 46.2503 53.5986 46.2262 53.6901 46.2262C53.8465 46.2262 53.9704 46.2733 54.0619 46.3674C54.1533 46.4616 54.1991 46.5955 54.1991 46.7694V47.595H53.9139V46.8563C53.9139 46.6076 53.8116 46.4833 53.607 46.4833C53.5035 46.4833 53.4169 46.5171 53.3471 46.5847C53.2773 46.6499 53.2424 46.7428 53.2424 46.8635V47.595Z" fill="#3B4754"/>
<path d="M54.6985 47.595H54.4169V45.7156H54.6985V46.4905C54.7394 46.4084 54.8008 46.3445 54.8826 46.2986C54.9645 46.2503 55.0523 46.2262 55.1462 46.2262C55.3026 46.2262 55.4265 46.2733 55.518 46.3674C55.6095 46.4616 55.6552 46.5955 55.6552 46.7694V47.595H55.37V46.8563C55.37 46.6076 55.2677 46.4833 55.0631 46.4833C54.9596 46.4833 54.873 46.5171 54.8032 46.5847C54.7334 46.6499 54.6985 46.7428 54.6985 46.8635V47.595Z" fill="#3B4754"/>
<path d="M56.9597 47.595H56.7034V47.4139C56.5902 47.5491 56.441 47.6167 56.2557 47.6167C56.1137 47.6167 55.997 47.5769 55.9055 47.4972C55.8165 47.4151 55.7719 47.3089 55.7719 47.1786C55.7719 47.0482 55.8201 46.9492 55.9164 46.8816C56.0126 46.814 56.145 46.7802 56.3135 46.7802H56.6817V46.7295C56.6817 46.5509 56.5818 46.4616 56.3821 46.4616C56.2569 46.4616 56.1269 46.5074 55.9922 46.5992L55.8658 46.4217C56.0319 46.2914 56.2172 46.2262 56.4218 46.2262C56.5878 46.2262 56.719 46.2684 56.8153 46.3529C56.9115 46.435 56.9597 46.5593 56.9597 46.7259V47.595ZM56.6781 46.9794H56.3604C56.1558 46.9794 56.0535 47.0434 56.0535 47.1713C56.0535 47.2365 56.0788 47.2872 56.1293 47.3234C56.1799 47.3572 56.2509 47.3741 56.3423 47.3741C56.4362 47.3741 56.5156 47.3487 56.5806 47.298C56.6456 47.2449 56.6781 47.1761 56.6781 47.0916V46.9794Z" fill="#3B4754"/>
<path d="M57.4637 47.0156V47.595H57.1821V46.2479H57.4637V46.5159C57.5094 46.4314 57.5708 46.3626 57.6478 46.3095C57.7272 46.2564 57.8102 46.2286 57.8969 46.2262L57.9005 46.5123H57.8861C57.7489 46.5123 57.6442 46.5569 57.572 46.6462C57.4998 46.7356 57.4637 46.8587 57.4637 47.0156Z" fill="#3B4754"/>
<path d="M58.2906 47.595H58.009V46.2479H58.2906V47.595ZM57.9729 45.8496C57.9729 45.8013 57.9897 45.7603 58.0234 45.7265C58.0595 45.6902 58.1028 45.6721 58.1534 45.6721C58.2015 45.6721 58.2424 45.6902 58.2761 45.7265C58.3122 45.7603 58.3303 45.8013 58.3303 45.8496C58.3303 45.9003 58.3122 45.9437 58.2761 45.9799C58.2424 46.0137 58.2015 46.0306 58.1534 46.0306C58.1028 46.0306 58.0607 46.0125 58.027 45.9763C57.9909 45.9425 57.9729 45.9003 57.9729 45.8496Z" fill="#3B4754"/>
<path d="M59.6147 47.595H59.3584V47.4139C59.2453 47.5491 59.0961 47.6167 58.9108 47.6167C58.7688 47.6167 58.652 47.5769 58.5606 47.4972C58.4715 47.4151 58.427 47.3089 58.427 47.1786C58.427 47.0482 58.4751 46.9492 58.5714 46.8816C58.6677 46.814 58.8001 46.7802 58.9685 46.7802H59.3368V46.7295C59.3368 46.5509 59.2369 46.4616 59.0371 46.4616C58.912 46.4616 58.782 46.5074 58.6472 46.5992L58.5209 46.4217C58.6869 46.2914 58.8722 46.2262 59.0768 46.2262C59.2429 46.2262 59.3741 46.2684 59.4703 46.3529C59.5666 46.435 59.6147 46.5593 59.6147 46.7259V47.595ZM59.3331 46.9794H59.0155C58.8109 46.9794 58.7086 47.0434 58.7086 47.1713C58.7086 47.2365 58.7339 47.2872 58.7844 47.3234C58.8349 47.3572 58.9059 47.3741 58.9974 47.3741C59.0913 47.3741 59.1707 47.3487 59.2357 47.298C59.3006 47.2449 59.3331 47.1761 59.3331 47.0916V46.9794Z" fill="#3B4754"/>
<path d="M60.2696 46.9142C60.2696 46.7114 60.3334 46.5461 60.461 46.4181C60.5885 46.2902 60.7449 46.2262 60.9303 46.2262C61.1084 46.2262 61.2516 46.3022 61.3599 46.4543V45.7156H61.6451V47.595H61.3599V47.3922C61.2588 47.5419 61.1072 47.6167 60.905 47.6167C60.7293 47.6167 60.5789 47.5515 60.4537 47.4212C60.331 47.2884 60.2696 47.1194 60.2696 46.9142ZM60.9664 47.3632C61.0795 47.3632 61.1745 47.3222 61.2516 47.2401C61.3286 47.158 61.3671 47.053 61.3671 46.9251C61.3671 46.7995 61.3274 46.6933 61.248 46.6064C61.1709 46.5195 61.0759 46.476 60.9628 46.476C60.8496 46.476 60.7522 46.5195 60.6703 46.6064C60.5909 46.6909 60.5512 46.7971 60.5512 46.9251C60.5512 47.053 60.5921 47.158 60.6739 47.2401C60.7558 47.3222 60.8532 47.3632 60.9664 47.3632Z" fill="#3B4754"/>
<path d="M63.1264 47.0446H62.0723C62.0795 47.1411 62.124 47.2196 62.2059 47.2799C62.2877 47.3403 62.3828 47.3705 62.4911 47.3705C62.6619 47.3705 62.7895 47.3174 62.8737 47.2111L63.0362 47.3886C62.8918 47.5407 62.7029 47.6167 62.4694 47.6167C62.2769 47.6167 62.1156 47.5527 61.9856 47.4248C61.8557 47.2968 61.7907 47.1278 61.7907 46.9178C61.7907 46.7126 61.8569 46.5461 61.9893 46.4181C62.1216 46.2902 62.2817 46.2262 62.4694 46.2262C62.6571 46.2262 62.8136 46.2829 62.9387 46.3964C63.0639 46.5098 63.1264 46.6607 63.1264 46.849V47.0446ZM62.8448 46.82C62.8448 46.7114 62.8099 46.6257 62.7402 46.563C62.6728 46.5002 62.5849 46.4688 62.4766 46.4688C62.3683 46.4688 62.2733 46.5014 62.1914 46.5666C62.112 46.6317 62.0723 46.7162 62.0723 46.82H62.8448Z" fill="#3B4754"/>
<path d="M64.0621 46.2696C64.0621 46.3445 64.0898 46.3988 64.1452 46.4326C64.2005 46.4736 64.3185 46.5159 64.499 46.5593C64.6891 46.6052 64.8275 46.668 64.9141 46.7476C65.0032 46.8273 65.0477 46.942 65.0477 47.0916C65.0477 47.2486 64.9887 47.3753 64.8708 47.4719C64.7553 47.5684 64.6037 47.6167 64.4159 47.6167C64.144 47.6167 63.8985 47.5201 63.6795 47.327L63.8672 47.1025C64.0501 47.2594 64.2354 47.3379 64.4232 47.3379C64.517 47.3379 64.5928 47.3174 64.6506 47.2763C64.7084 47.2329 64.7372 47.1773 64.7372 47.1097C64.7372 47.0422 64.7108 46.989 64.6578 46.9504C64.6073 46.9118 64.5158 46.8768 64.3834 46.8454C64.1548 46.7923 63.996 46.7295 63.9069 46.6571C63.8034 46.5774 63.7517 46.4555 63.7517 46.2914C63.7517 46.132 63.8094 46.0077 63.925 45.9184C64.0405 45.8266 64.1885 45.7808 64.369 45.7808C64.6121 45.7808 64.8203 45.852 64.9935 45.9944L64.8347 46.2189C64.7818 46.1707 64.7108 46.132 64.6217 46.1031C64.5327 46.0717 64.4448 46.056 64.3582 46.056C64.2691 46.056 64.1969 46.0753 64.1416 46.1139C64.0886 46.1501 64.0621 46.202 64.0621 46.2696Z" fill="#3B4754"/>
<path d="M65.82 47.3632C65.9427 47.3632 66.0438 47.3222 66.1232 47.2401C66.2051 47.158 66.246 47.0518 66.246 46.9214C66.246 46.7911 66.2051 46.6849 66.1232 46.6028C66.0438 46.5207 65.9427 46.4797 65.82 46.4797C65.6972 46.4797 65.5962 46.5207 65.5167 46.6028C65.4373 46.6849 65.3976 46.7911 65.3976 46.9214C65.3976 47.0518 65.4373 47.1568 65.5167 47.2365C65.5962 47.321 65.6972 47.3632 65.82 47.3632ZM65.82 47.6167C65.6178 47.6167 65.4493 47.5503 65.3146 47.4175C65.1798 47.2824 65.1124 47.117 65.1124 46.9214C65.1124 46.7259 65.1798 46.5617 65.3146 46.429C65.4493 46.2938 65.6178 46.2262 65.82 46.2262C66.0221 46.2262 66.1906 46.2938 66.3254 46.429C66.4602 46.5617 66.5276 46.7259 66.5276 46.9214C66.5276 47.1097 66.4602 47.2739 66.3254 47.4139C66.1906 47.5491 66.0221 47.6167 65.82 47.6167Z" fill="#3B4754"/>
<path d="M67.019 46.2479H67.3728V46.476H67.019V47.595H66.7374V46.476H66.5678V46.2479H66.7374V46.1429C66.7374 46.0053 66.7795 45.8942 66.8638 45.8097C66.948 45.7228 67.0515 45.6794 67.1742 45.6794C67.297 45.6794 67.4065 45.724 67.5028 45.8134L67.3872 46.0125C67.3295 45.9546 67.2717 45.9256 67.214 45.9256C67.1538 45.9256 67.1057 45.9449 67.0696 45.9836C67.0359 46.0198 67.019 46.0705 67.019 46.1357V46.2479Z" fill="#3B4754"/>
<path d="M67.8185 46.476V47.1604C67.8185 47.2256 67.8354 47.2775 67.8691 47.3162C67.9052 47.3524 67.9533 47.3705 68.0135 47.3705C68.0688 47.3705 68.1266 47.3403 68.1868 47.2799L68.3023 47.4827C68.2012 47.5721 68.0917 47.6167 67.9738 47.6167C67.851 47.6167 67.7475 47.5745 67.6633 47.49C67.5791 47.4031 67.537 47.2908 67.537 47.1532V46.476H67.3673V46.2479H67.537V45.8242H67.8185V46.2479H68.1723V46.476H67.8185Z" fill="#3B4754"/>
<path d="M68.9817 47.595H68.6568L68.1947 46.2479H68.4871L68.8193 47.2655L69.155 46.2479H69.4474L69.7796 47.2655L70.1153 46.2479H70.4077L69.942 47.595H69.6171L69.2994 46.6716L68.9817 47.595Z" fill="#3B4754"/>
<path d="M71.57 47.595H71.3137V47.4139C71.2006 47.5491 71.0514 47.6167 70.866 47.6167C70.724 47.6167 70.6073 47.5769 70.5159 47.4972C70.4268 47.4151 70.3823 47.3089 70.3823 47.1786C70.3823 47.0482 70.4304 46.9492 70.5267 46.8816C70.623 46.814 70.7553 46.7802 70.9238 46.7802H71.292V46.7295C71.292 46.5509 71.1921 46.4616 70.9924 46.4616C70.8672 46.4616 70.7373 46.5074 70.6025 46.5992L70.4762 46.4217C70.6422 46.2914 70.8275 46.2262 71.0321 46.2262C71.1982 46.2262 71.3293 46.2684 71.4256 46.3529C71.5219 46.435 71.57 46.5593 71.57 46.7259V47.595ZM71.2884 46.9794H70.9707C70.7662 46.9794 70.6639 47.0434 70.6639 47.1713C70.6639 47.2365 70.6891 47.2872 70.7397 47.3234C70.7902 47.3572 70.8612 47.3741 70.9527 47.3741C71.0465 47.3741 71.126 47.3487 71.1909 47.298C71.2559 47.2449 71.2884 47.1761 71.2884 47.0916V46.9794Z" fill="#3B4754"/>
<path d="M72.074 47.0156V47.595H71.7924V46.2479H72.074V46.5159C72.1197 46.4314 72.1811 46.3626 72.2581 46.3095C72.3375 46.2564 72.4206 46.2286 72.5072 46.2262L72.5108 46.5123H72.4964C72.3592 46.5123 72.2545 46.5569 72.1823 46.6462C72.1101 46.7356 72.074 46.8587 72.074 47.0156Z" fill="#3B4754"/>
<path d="M73.8684 47.0446H72.8143C72.8215 47.1411 72.866 47.2196 72.9478 47.2799C73.0297 47.3403 73.1247 47.3705 73.233 47.3705C73.4039 47.3705 73.5315 47.3174 73.6157 47.2111L73.7781 47.3886C73.6337 47.5407 73.4448 47.6167 73.2114 47.6167C73.0188 47.6167 72.8576 47.5527 72.7276 47.4248C72.5976 47.2968 72.5327 47.1278 72.5327 46.9178C72.5327 46.7126 72.5989 46.5461 72.7312 46.4181C72.8636 46.2902 73.0236 46.2262 73.2114 46.2262C73.3991 46.2262 73.5555 46.2829 73.6807 46.3964C73.8058 46.5098 73.8684 46.6607 73.8684 46.849V47.0446ZM73.5868 46.82C73.5868 46.7114 73.5519 46.6257 73.4821 46.563C73.4147 46.5002 73.3269 46.4688 73.2186 46.4688C73.1103 46.4688 73.0152 46.5014 72.9334 46.5666C72.854 46.6317 72.8143 46.7162 72.8143 46.82H73.5868Z" fill="#3B4754"/>
<path d="M74.8077 47.595H74.5261V46.2479H74.8077V46.4905C74.8534 46.4084 74.916 46.3445 74.9954 46.2986C75.0773 46.2503 75.1639 46.2262 75.2554 46.2262C75.4118 46.2262 75.5358 46.2733 75.6272 46.3674C75.7187 46.4616 75.7644 46.5955 75.7644 46.7694V47.595H75.4792V46.8563C75.4792 46.6076 75.3769 46.4833 75.1723 46.4833C75.0688 46.4833 74.9822 46.5171 74.9124 46.5847C74.8426 46.6499 74.8077 46.7428 74.8077 46.8635V47.595Z" fill="#3B4754"/>
<path d="M76.5996 47.3632C76.7223 47.3632 76.8234 47.3222 76.9028 47.2401C76.9846 47.158 77.0256 47.0518 77.0256 46.9214C77.0256 46.7911 76.9846 46.6849 76.9028 46.6028C76.8234 46.5207 76.7223 46.4797 76.5996 46.4797C76.4768 46.4797 76.3757 46.5207 76.2963 46.6028C76.2169 46.6849 76.1772 46.7911 76.1772 46.9214C76.1772 47.0518 76.2169 47.1568 76.2963 47.2365C76.3757 47.321 76.4768 47.3632 76.5996 47.3632ZM76.5996 47.6167C76.3974 47.6167 76.2289 47.5503 76.0942 47.4175C75.9594 47.2824 75.892 47.117 75.892 46.9214C75.892 46.7259 75.9594 46.5617 76.0942 46.429C76.2289 46.2938 76.3974 46.2262 76.5996 46.2262C76.8017 46.2262 76.9702 46.2938 77.105 46.429C77.2398 46.5617 77.3071 46.7259 77.3071 46.9214C77.3071 47.1097 77.2398 47.2739 77.105 47.4139C76.9702 47.5491 76.8017 47.6167 76.5996 47.6167Z" fill="#3B4754"/>
<path d="M78.2491 46.2696C78.2491 46.3445 78.2768 46.3988 78.3322 46.4326C78.3875 46.4736 78.5054 46.5159 78.6859 46.5593C78.8761 46.6052 79.0145 46.668 79.1011 46.7476C79.1901 46.8273 79.2347 46.942 79.2347 47.0916C79.2347 47.2486 79.1757 47.3753 79.0578 47.4719C78.9423 47.5684 78.7906 47.6167 78.6029 47.6167C78.3309 47.6167 78.0855 47.5201 77.8665 47.327L78.0542 47.1025C78.2371 47.2594 78.4224 47.3379 78.6101 47.3379C78.704 47.3379 78.7798 47.3174 78.8376 47.2763C78.8953 47.2329 78.9242 47.1773 78.9242 47.1097C78.9242 47.0422 78.8977 46.989 78.8448 46.9504C78.7942 46.9118 78.7028 46.8768 78.5704 46.8454C78.3418 46.7923 78.1829 46.7295 78.0939 46.6571C77.9904 46.5774 77.9387 46.4555 77.9387 46.2914C77.9387 46.132 77.9964 46.0077 78.1119 45.9184C78.2275 45.8266 78.3755 45.7808 78.556 45.7808C78.7991 45.7808 79.0072 45.852 79.1805 45.9944L79.0217 46.2189C78.9687 46.1707 78.8977 46.132 78.8087 46.1031C78.7196 46.0717 78.6318 46.056 78.5451 46.056C78.4561 46.056 78.3839 46.0753 78.3285 46.1139C78.2756 46.1501 78.2491 46.202 78.2491 46.2696Z" fill="#3B4754"/>
<path d="M80.6387 47.0446H79.5846C79.5918 47.1411 79.6363 47.2196 79.7181 47.2799C79.8 47.3403 79.895 47.3705 80.0033 47.3705C80.1742 47.3705 80.3018 47.3174 80.386 47.2111L80.5485 47.3886C80.4041 47.5407 80.2151 47.6167 79.9817 47.6167C79.7891 47.6167 79.6279 47.5527 79.4979 47.4248C79.368 47.2968 79.303 47.1278 79.303 46.9178C79.303 46.7126 79.3692 46.5461 79.5015 46.4181C79.6339 46.2902 79.794 46.2262 79.9817 46.2262C80.1694 46.2262 80.3259 46.2829 80.451 46.3964C80.5761 46.5098 80.6387 46.6607 80.6387 46.849V47.0446ZM80.3571 46.82C80.3571 46.7114 80.3222 46.6257 80.2524 46.563C80.1851 46.5002 80.0972 46.4688 79.9889 46.4688C79.8806 46.4688 79.7855 46.5014 79.7037 46.5666C79.6243 46.6317 79.5846 46.7162 79.5846 46.82H80.3571Z" fill="#3B4754"/>
<path d="M81.0589 47.0156V47.595H80.7774V46.2479H81.0589V46.5159C81.1047 46.4314 81.166 46.3626 81.243 46.3095C81.3225 46.2564 81.4055 46.2286 81.4921 46.2262L81.4958 46.5123H81.4813C81.3441 46.5123 81.2394 46.5569 81.1672 46.6462C81.095 46.7356 81.0589 46.8587 81.0589 47.0156Z" fill="#3B4754"/>
<path d="M81.9508 46.476V47.1604C81.9508 47.2256 81.9676 47.2775 82.0013 47.3162C82.0374 47.3524 82.0856 47.3705 82.1457 47.3705C82.2011 47.3705 82.2589 47.3403 82.319 47.2799L82.4345 47.4827C82.3335 47.5721 82.224 47.6167 82.106 47.6167C81.9833 47.6167 81.8798 47.5745 81.7956 47.49C81.7113 47.4031 81.6692 47.2908 81.6692 47.1532V46.476H81.4995V46.2479H81.6692V45.8242H81.9508V46.2479H82.3046V46.476H81.9508Z" fill="#3B4754"/>
<path d="M83.5725 47.595H83.3161V47.4139C83.203 47.5491 83.0538 47.6167 82.8685 47.6167C82.7265 47.6167 82.6098 47.5769 82.5183 47.4972C82.4293 47.4151 82.3848 47.3089 82.3848 47.1786C82.3848 47.0482 82.4329 46.9492 82.5292 46.8816C82.6254 46.814 82.7578 46.7802 82.9263 46.7802H83.2945V46.7295C83.2945 46.5509 83.1946 46.4616 82.9949 46.4616C82.8697 46.4616 82.7397 46.5074 82.605 46.5992L82.4786 46.4217C82.6447 46.2914 82.83 46.2262 83.0346 46.2262C83.2006 46.2262 83.3318 46.2684 83.4281 46.3529C83.5243 46.435 83.5725 46.5593 83.5725 46.7259V47.595ZM83.2909 46.9794H82.9732C82.7686 46.9794 82.6663 47.0434 82.6663 47.1713C82.6663 47.2365 82.6916 47.2872 82.7421 47.3234C82.7927 47.3572 82.8637 47.3741 82.9551 47.3741C83.049 47.3741 83.1284 47.3487 83.1934 47.298C83.2584 47.2449 83.2909 47.1761 83.2909 47.0916V46.9794ZM83.0201 46.0198C82.9359 45.9811 82.8853 45.9618 82.8685 45.9618C82.8156 45.9618 82.7867 45.9993 82.7819 46.0741H82.5977C82.5977 45.9751 82.617 45.8954 82.6555 45.8351C82.6964 45.7747 82.7518 45.7446 82.8216 45.7446C82.8625 45.7446 82.9251 45.7639 83.0093 45.8025C83.0959 45.8435 83.1489 45.8641 83.1681 45.8641C83.2187 45.8641 83.2439 45.8266 83.2439 45.7518H83.4353C83.4329 45.9715 83.3547 46.0813 83.2006 46.0813C83.1621 46.0813 83.102 46.0608 83.0201 46.0198Z" fill="#3B4754"/>
<path d="M84.4122 47.3632C84.535 47.3632 84.636 47.3222 84.7155 47.2401C84.7973 47.158 84.8382 47.0518 84.8382 46.9214C84.8382 46.7911 84.7973 46.6849 84.7155 46.6028C84.636 46.5207 84.535 46.4797 84.4122 46.4797C84.2895 46.4797 84.1884 46.5207 84.109 46.6028C84.0295 46.6849 83.9898 46.7911 83.9898 46.9214C83.9898 47.0518 84.0295 47.1568 84.109 47.2365C84.1884 47.321 84.2895 47.3632 84.4122 47.3632ZM84.4122 47.6167C84.2101 47.6167 84.0416 47.5503 83.9068 47.4175C83.772 47.2824 83.7046 47.117 83.7046 46.9214C83.7046 46.7259 83.772 46.5617 83.9068 46.429C84.0416 46.2938 84.2101 46.2262 84.4122 46.2262C84.6144 46.2262 84.7828 46.2938 84.9176 46.429C85.0524 46.5617 85.1198 46.7259 85.1198 46.9214C85.1198 47.1097 85.0524 47.2739 84.9176 47.4139C84.7828 47.5491 84.6144 47.6167 84.4122 47.6167Z" fill="#3B4754"/>
<path d="M35.0556 37.4086V23.2425H37.4527V35.149H43.8931V37.4086H35.0556Z" fill="#28333E"/>
<path d="M53.4658 37.4086H51.4153V35.9601C50.5103 37.0417 49.3166 37.5824 47.8341 37.5824C46.6981 37.5824 45.7643 37.2638 45.0327 36.6264C44.3203 35.9698 43.9641 35.12 43.9641 34.0771C43.9641 33.0342 44.3491 32.2424 45.1193 31.7016C45.8894 31.1609 46.9484 30.8905 48.2962 30.8905H51.242V30.4849C51.242 29.0557 50.443 28.3412 48.8449 28.3412C47.8437 28.3412 46.804 28.7081 45.7258 29.442L44.715 28.0225C46.0435 26.9796 47.526 26.4582 49.1626 26.4582C50.4911 26.4582 51.5404 26.7961 52.3106 27.4721C53.0807 28.1287 53.4658 29.1233 53.4658 30.4559V37.4086ZM51.2131 32.4838H48.6716C47.035 32.4838 46.2168 32.9956 46.2168 34.0192C46.2168 34.5406 46.4189 34.9462 46.8232 35.2359C47.2276 35.5063 47.7956 35.6415 48.5272 35.6415C49.2781 35.6415 49.9135 35.4387 50.4333 35.0331C50.9532 34.6082 51.2131 34.0578 51.2131 33.3819V32.4838Z" fill="#28333E"/>
<path d="M66.2487 31.9623C66.2487 33.5846 65.7481 34.9269 64.7469 35.9891C63.7457 37.0513 62.552 37.5824 61.1657 37.5824C59.7987 37.5824 58.5761 36.9837 57.4979 35.7863V41.3484H55.2452V26.632H57.4979V28.515C58.4028 27.1438 59.5677 26.4582 60.9925 26.4582C62.475 26.4582 63.7169 26.9699 64.7181 27.9935C65.7385 29.0171 66.2487 30.3401 66.2487 31.9623ZM60.6459 35.5546C61.5701 35.5546 62.3498 35.2262 62.9852 34.5696C63.6399 33.8936 63.9672 33.0439 63.9672 32.0203C63.9672 30.9967 63.6399 30.1469 62.9852 29.471C62.3498 28.795 61.5797 28.457 60.6748 28.457C59.7699 28.457 59.0093 28.8047 58.3932 29.4999C57.7771 30.1759 57.469 31.016 57.469 32.0203C57.469 33.0439 57.7771 33.8936 58.3932 34.5696C59.0093 35.2262 59.7602 35.5546 60.6459 35.5546Z" fill="#28333E"/>
<path d="M77.4066 33.0052H68.9734C69.0312 33.7778 69.3874 34.4054 70.042 34.8883C70.6966 35.3711 71.4572 35.6125 72.3236 35.6125C73.6906 35.6125 74.7111 35.1876 75.3849 34.3378L76.6846 35.7573C75.5293 36.9741 74.0179 37.5824 72.1503 37.5824C70.61 37.5824 69.32 37.0706 68.2803 36.047C67.2406 35.0235 66.7207 33.6715 66.7207 31.9913C66.7207 30.3497 67.2502 29.0171 68.3092 27.9935C69.3681 26.9699 70.6485 26.4582 72.1503 26.4582C73.6521 26.4582 74.9036 26.912 75.9048 27.8197C76.906 28.7274 77.4066 29.9345 77.4066 31.4409V33.0052ZM75.1539 31.2091C75.1539 30.3401 74.8747 29.6544 74.3163 29.1523C73.7772 28.6502 73.0745 28.3991 72.2081 28.3991C71.3416 28.3991 70.5811 28.6598 69.9265 29.1813C69.2911 29.7027 68.9734 30.3787 68.9734 31.2091H75.1539Z" fill="#28333E"/>
<path d="M82.2123 37.5824C80.4795 37.5824 78.9199 37.0417 77.5337 35.9601L78.6311 34.193C79.8634 35.1393 81.0763 35.6125 82.2701 35.6125C82.7707 35.6125 83.1654 35.4966 83.4542 35.2649C83.7622 35.0138 83.9163 34.7048 83.9163 34.3378C83.9163 33.7971 83.2039 33.3143 81.7791 32.8894C81.7406 32.8701 81.6925 32.8507 81.6347 32.8314C81.5962 32.8121 81.5673 32.8025 81.5481 32.8025C79.3146 32.2038 78.1979 31.1898 78.1979 29.7607C78.1979 28.7564 78.5734 27.9549 79.3243 27.3562C80.0944 26.7575 81.1052 26.4582 82.3567 26.4582C83.589 26.4582 84.7634 26.8251 85.8802 27.559L85.0426 29.2392C84.1762 28.6598 83.2231 28.3701 82.1834 28.3701C80.9705 28.3701 80.364 28.7564 80.364 29.5289C80.364 29.8572 80.4795 30.0986 80.7105 30.2532C80.9608 30.3883 81.3652 30.5235 81.9235 30.6587C82.7707 30.8905 83.4831 31.1222 84.0607 31.354C84.4458 31.5278 84.7827 31.7113 85.0715 31.9044C85.8031 32.4065 86.169 33.1694 86.169 34.193C86.169 35.1973 85.7935 36.0181 85.0426 36.6554C84.311 37.2734 83.3675 37.5824 82.2123 37.5824Z" fill="#28333E"/>
<path d="M91.0434 37.5824C89.3105 37.5824 87.751 37.0417 86.3647 35.9601L87.4622 34.193C88.6944 35.1393 89.9074 35.6125 91.1011 35.6125C91.6017 35.6125 91.9964 35.4966 92.2852 35.2649C92.5933 35.0138 92.7473 34.7048 92.7473 34.3378C92.7473 33.7971 92.0349 33.3143 90.6101 32.8894C90.5716 32.8701 90.5235 32.8507 90.4657 32.8314C90.4272 32.8121 90.3984 32.8025 90.3791 32.8025C88.1457 32.2038 87.0289 31.1898 87.0289 29.7607C87.0289 28.7564 87.4044 27.9549 88.1553 27.3562C88.9254 26.7575 89.9363 26.4582 91.1878 26.4582C92.42 26.4582 93.5945 26.8251 94.7112 27.559L93.8737 29.2392C93.0072 28.6598 92.0542 28.3701 91.0145 28.3701C89.8015 28.3701 89.195 28.7564 89.195 29.5289C89.195 29.8572 89.3105 30.0986 89.5416 30.2532C89.7919 30.3883 90.1962 30.5235 90.7545 30.6587C91.6017 30.8905 92.3141 31.1222 92.8917 31.354C93.2768 31.5278 93.6137 31.7113 93.9025 31.9044C94.6342 32.4065 95 33.1694 95 34.193C95 35.1973 94.6245 36.0181 93.8737 36.6554C93.142 37.2734 92.1986 37.5824 91.0434 37.5824Z" fill="#28333E"/>
<path d="M45.1231 7.55456C44.1734 5.97141 42.5708 5.36141 40.7988 5.75296C40.1458 5.89724 40.4224 6.8885 41.075 6.74421C42.7725 6.36903 44.0995 7.34412 44.6336 8.93857C45.0398 10.1506 44.4279 11.3889 43.5954 12.2544C41.966 13.949 39.2224 14.0936 37.4896 12.5064C36.2793 11.3976 35.8728 9.58057 36.2775 8.0327C36.744 6.24739 38.3745 5.5618 40.1064 5.78589C40.7687 5.87156 40.7604 4.84248 40.1064 4.75773C34.6042 4.04582 33.601 11.2768 37.5909 13.8798C40.1755 15.5662 43.6368 14.3682 45.1817 11.8925C46.0291 10.5341 45.9267 8.89539 45.1231 7.55456Z" fill="#F06442"/>
<path d="M34.4115 11.412C34.3728 11.1413 34.159 10.8673 33.8254 10.8673C33.7654 10.8673 33.7033 10.8764 33.6409 10.8945C32.8113 11.1318 32.0775 11.3852 31.3982 11.6691C31.0485 11.8151 30.9492 12.1591 31.0055 12.4351C31.0627 12.7157 31.2697 12.9045 31.5208 12.9045H31.521C31.5971 12.9045 31.6765 12.8872 31.7567 12.8539C32.4268 12.5737 33.1527 12.3232 33.9761 12.0875C34.3292 11.9863 34.4494 11.6752 34.4115 11.412Z" fill="#F06442"/>
<path d="M31.9314 3.18662C32.9102 3.8287 33.9676 4.47909 35.3604 5.29551C35.4625 5.35538 35.5686 5.3856 35.6756 5.3858C35.9473 5.3858 36.1922 5.18679 36.2708 4.90202C36.346 4.6305 36.2394 4.37187 35.9921 4.22713C34.6015 3.41189 33.5467 2.76312 32.5726 2.1238C32.4669 2.05449 32.3562 2.01913 32.2441 2.01913C31.9918 2.01913 31.7582 2.20825 31.6757 2.47937C31.5914 2.75672 31.6893 3.02784 31.9314 3.18662Z" fill="#F06442"/>
<path d="M40.7781 15.4627C40.6009 15.4627 40.4371 15.5283 40.3291 15.6427C40.2256 15.7525 40.1764 15.9002 40.1879 16.0695C40.2385 16.8231 40.2896 17.5768 40.3436 18.3299C40.3717 18.719 40.6975 18.9223 41.0052 18.9223C41.1826 18.9223 41.3461 18.8565 41.4537 18.7421C41.557 18.6323 41.6054 18.4846 41.5931 18.3153C41.5391 17.562 41.4884 16.809 41.4377 16.0553C41.4116 15.6661 41.086 15.4627 40.7781 15.4627Z" fill="#F06442"/>
<path d="M36.2243 14.1218C36.0112 14.1218 35.8284 14.2246 35.7093 14.4114C34.8449 15.7677 33.9648 17.1043 33.0643 18.4681C32.9396 18.6569 32.926 18.8613 33.0257 19.0442C33.1374 19.2489 33.3763 19.3861 33.6205 19.3861H33.6207C33.8333 19.3861 34.0169 19.2851 34.1381 19.1016C35.0368 17.7412 35.9154 16.407 36.7848 15.0422C36.9066 14.8515 36.9174 14.6447 36.8153 14.4611C36.7024 14.2583 36.4645 14.1218 36.2243 14.1218Z" fill="#F06442"/>
<path d="M44.6185 5.15503C44.8308 5.15503 45.0147 5.05518 45.1368 4.87387C45.4566 4.39892 45.765 3.93066 46.0252 3.42493C46.1297 3.22178 46.1231 3.00657 46.0069 2.81898C45.8843 2.6211 45.6604 2.49326 45.4362 2.49326C45.2245 2.49326 45.0435 2.60895 44.9399 2.81076C44.6854 3.30507 44.3804 3.76827 44.064 4.23839C43.9379 4.42586 43.9227 4.62929 44.0214 4.81177C44.1321 5.01682 44.3721 5.15483 44.6185 5.15503Z" fill="#F06442"/>
<path d="M48.717 15.7708C47.7998 15.0478 47.0051 14.4817 46.2159 13.9889C46.1116 13.9235 46.0029 13.8906 45.8926 13.8906C45.6319 13.8906 45.3932 14.0841 45.3123 14.3612C45.2322 14.636 45.3341 14.9011 45.5785 15.054C46.3297 15.5234 47.0731 16.0491 47.8507 16.6621C47.9704 16.7563 48.1104 16.8061 48.2556 16.8061H48.2558C48.5409 16.8061 48.8145 16.6173 48.9061 16.3577C48.9832 16.14 48.914 15.9266 48.717 15.7708Z" fill="#F06442"/>
<path d="M40.1391 4.02306C40.3172 4.02306 40.4795 3.95715 40.5843 3.84235C40.6848 3.73221 40.7286 3.58452 40.7112 3.41545C40.6127 2.4598 40.5548 1.49796 40.5039 0.594849C40.4818 0.204359 40.1582 0 39.85 0C39.673 0 39.5088 0.0655002 39.3996 0.179852C39.295 0.289586 39.2445 0.437113 39.2539 0.606353C39.305 1.51375 39.3633 2.47973 39.4619 3.43663C39.5015 3.82149 39.8326 4.02306 40.1391 4.02306Z" fill="#F06442"/>
<path d="M48.6335 8.30422C48.2706 8.35194 47.1983 8.35449 46.9871 8.35469C46.5878 8.35469 46.3788 8.66623 46.3788 8.97397C46.379 9.28126 46.5878 9.5928 46.9869 9.5928H46.9871C47.2009 9.5928 48.2859 9.58984 48.6616 9.54054C49.0326 9.49169 49.2726 9.24905 49.2726 8.92232C49.2726 8.61657 48.9817 8.25659 48.6335 8.30422Z" fill="#F06442"/>
<path d="M26.299 16.9439C26.3285 16.6545 26.5862 16.4436 26.8747 16.4731C27.1633 16.5026 27.3735 16.7613 27.3441 17.0508L27.2042 18.4265V18.5825L27.4756 19.4012C27.4759 19.4021 27.4761 19.4031 27.4764 19.4041C27.5123 19.4708 27.5348 19.5461 27.5389 19.6269V19.6279C27.5389 19.6286 27.5389 19.6299 27.539 19.6313C27.5392 19.6343 27.5394 19.6386 27.5397 19.6444C27.5403 19.6559 27.5412 19.673 27.5423 19.6955C27.5445 19.7404 27.5476 19.8069 27.5517 19.8929C27.5599 20.0648 27.5716 20.315 27.5857 20.6281C27.609 21.1478 27.6388 21.8411 27.6697 22.6388H28.4683C28.7584 22.6388 28.9936 22.8747 28.9936 23.1656C28.9936 23.4566 28.7584 23.6925 28.4683 23.6925H27.7086C27.7305 24.3108 27.7519 24.9673 27.7707 25.6373H28.17C28.4601 25.6373 28.6952 25.8732 28.6952 26.1642C28.6952 26.4552 28.4601 26.6911 28.17 26.6911H27.7976C27.8152 27.4501 27.8288 28.2099 27.835 28.9356H29.0647C29.3548 28.9356 29.59 29.1715 29.59 29.4625C29.59 29.7535 29.3548 29.9894 29.0647 29.9894H27.8382C27.8346 30.9093 27.8036 31.8797 27.7574 32.8337H28.4683C28.7584 32.8338 28.9936 33.0696 28.9936 33.3606C28.9936 33.6516 28.7584 33.8875 28.4683 33.8875H27.7003C27.6514 34.7035 27.5947 35.488 27.5378 36.196C27.4626 37.1331 27.3874 37.9391 27.3309 38.5109C27.3027 38.7968 27.2792 39.0244 27.2627 39.1807C27.2545 39.2587 27.248 39.319 27.2436 39.3599C27.2413 39.3803 27.2396 39.396 27.2384 39.4065C27.2379 39.4118 27.2374 39.4158 27.2371 39.4185C27.2369 39.4199 27.2368 39.4209 27.2367 39.4216C27.2367 39.422 27.2367 39.4225 27.2367 39.4225L27.2365 39.4227C27.2127 39.6366 27.0615 39.8146 26.8547 39.872C24.3953 40.5551 22.6075 40.6992 19.1483 40.5181C19.1476 40.693 19.1469 40.9035 19.1454 41.141C19.1419 41.667 19.1357 42.3266 19.1252 43.0287H20.1179C20.408 43.0287 20.6432 43.2646 20.6432 43.5556C20.6432 43.8465 20.408 44.0824 20.1179 44.0824H19.1059C19.0872 44.9564 19.061 45.8307 19.0228 46.5416C19.0015 46.9373 18.9764 47.2892 18.9462 47.5648C18.9311 47.7021 18.914 47.8278 18.894 47.9339C18.877 48.0242 18.8491 48.1528 18.7943 48.262C18.6973 48.4555 18.5257 48.5548 18.4344 48.6009C18.3246 48.6563 18.2002 48.6976 18.0786 48.7302C17.833 48.7961 17.5212 48.8462 17.1807 48.8847C16.4949 48.9623 15.622 49 14.7671 49C13.9129 49 13.0569 48.9623 12.406 48.8842C12.0849 48.8457 11.7891 48.7947 11.5627 48.7246C11.4531 48.6906 11.3254 48.6421 11.2144 48.5671C11.1184 48.5023 10.9085 48.3294 10.9085 48.0251V41.0839H10.2764C9.98628 41.0839 9.75111 40.848 9.75111 40.557C9.75111 40.266 9.98628 40.0301 10.2764 40.0301H10.9085V37.4858H9.67998C9.3899 37.4858 9.15475 37.2499 9.15471 36.9589C9.15471 36.6679 9.38988 36.432 9.67998 36.432H10.9085V34.5108C10.7473 34.5087 10.5541 34.506 10.3364 34.5013C9.67674 34.4872 8.78904 34.4589 7.8807 34.4024C6.9756 34.346 6.03579 34.2606 5.27745 34.1298C4.89984 34.0647 4.54942 33.9853 4.26454 33.8859C4.12197 33.8362 3.98265 33.7771 3.85965 33.7045C3.74126 33.6346 3.60561 33.5335 3.50707 33.3862C3.4119 33.2439 3.36261 33.0672 3.33181 32.9291C3.29733 32.7744 3.27045 32.5915 3.24889 32.3916C3.20563 31.9906 3.17946 31.4805 3.16528 30.9078C3.14954 30.2726 3.14864 29.5481 3.15707 28.79H2.22417C1.93409 28.79 1.69891 28.5541 1.69891 28.2631C1.69891 27.9722 1.93409 27.7363 2.22417 27.7362H3.17417C3.17984 27.464 3.18604 27.1907 3.19332 26.9188C3.20348 26.5388 3.21533 26.1609 3.22768 25.7915H1.92598C1.63588 25.7915 1.40071 25.5556 1.40071 25.2646C1.40072 24.9736 1.63589 24.7377 1.92598 24.7377H3.26581C3.28885 24.1425 3.31241 23.5907 3.33421 23.1149C3.35767 22.6028 3.3788 22.1783 3.39405 21.8817C3.40168 21.7335 3.40792 21.6172 3.41218 21.5378C3.41285 21.5252 3.41331 21.5135 3.41389 21.5028L3.25077 20.9574L2.16809 20.5791C1.89415 20.4833 1.74948 20.1829 1.84493 19.9081C1.94037 19.6334 2.23972 19.4883 2.51365 19.584L3.84973 20.0508L3.87914 20.0622C4.02382 20.1227 4.13452 20.2453 4.1799 20.3969L4.44253 21.2751C4.44957 21.2986 4.45476 21.3223 4.45844 21.3459C4.46635 21.3874 4.47012 21.4304 4.46767 21.4745V21.4751C4.46767 21.4751 4.46753 21.4758 4.4675 21.4764C4.46743 21.4777 4.46729 21.4796 4.46716 21.4821C4.46687 21.4872 4.46651 21.4948 4.46596 21.5049C4.46485 21.5251 4.46328 21.5552 4.46117 21.5944C4.45695 21.673 4.4508 21.7886 4.44322 21.9361C4.42805 22.231 4.40707 22.6534 4.38371 23.1632C4.33699 24.1832 4.28084 25.5517 4.24351 26.9471C4.23313 27.3351 4.22439 27.7246 4.21752 28.1089C4.23239 28.1577 4.2406 28.2095 4.2406 28.2631C4.2406 28.3227 4.23019 28.3797 4.21205 28.4331C4.19889 29.3159 4.1976 30.1603 4.21547 30.8816C4.22937 31.4429 4.25476 31.9197 4.29343 32.2782C4.31283 32.458 4.33448 32.5979 4.35704 32.6991C4.36647 32.7414 4.37483 32.7701 4.38047 32.7881C4.38404 32.7904 4.38779 32.7934 4.39244 32.7962C4.43619 32.822 4.50641 32.8547 4.60959 32.8907C4.81628 32.9628 5.10273 33.0305 5.45545 33.0913C6.15776 33.2125 7.05324 33.295 7.94585 33.3507C8.83515 33.4061 9.70762 33.4338 10.3588 33.4477C10.6841 33.4547 10.9536 33.4582 11.1414 33.4599C11.2353 33.4608 11.3087 33.4612 11.3585 33.4614C11.3834 33.4616 11.4025 33.4616 11.4151 33.4616H11.4338C11.5731 33.4616 11.7066 33.5172 11.8052 33.616C11.9036 33.7148 11.959 33.8488 11.959 33.9885V36.7696C11.9816 36.8284 11.9946 36.8921 11.9946 36.9589C11.9946 37.0256 11.9816 37.0892 11.959 37.1479V40.3677C11.9817 40.4265 11.9946 40.4902 11.9946 40.557C11.9946 40.6238 11.9816 40.6874 11.959 40.7462V47.7413C12.0949 47.7751 12.2866 47.8087 12.5308 47.838C13.1253 47.9093 13.936 47.9462 14.7671 47.9462C15.5976 47.9462 16.4288 47.9092 17.0631 47.8375C17.3827 47.8013 17.6352 47.7583 17.8074 47.7121C17.8308 47.7058 17.8513 47.6997 17.8693 47.6941C17.8799 47.6302 17.8911 47.5489 17.902 47.4495C17.9291 47.2025 17.9529 46.873 17.9738 46.4848C18.0154 45.71 18.0435 44.7278 18.0622 43.7591C18.0808 42.7915 18.0902 41.842 18.0948 41.134C18.0972 40.7801 18.0984 40.4869 18.0989 40.2821C18.0992 40.1798 18.0994 40.0995 18.0995 40.0449V39.9615C18.0995 39.8164 18.1592 39.6778 18.2645 39.5782C18.3697 39.4787 18.5111 39.427 18.6555 39.4355C22.2412 39.6468 23.9701 39.5437 26.2301 38.9493C26.245 38.8064 26.2641 38.6239 26.2855 38.4071C26.3415 37.8404 26.4161 37.0409 26.4907 36.1115C26.6401 34.2498 26.7886 31.877 26.7886 29.8074C26.7886 29.7583 26.7883 29.7089 26.7882 29.6592C26.7638 29.5984 26.7501 29.5321 26.7501 29.4625C26.7501 29.3944 26.7632 29.3295 26.7867 29.2697C26.7756 27.302 26.7076 25.0257 26.6391 23.1821C26.6017 22.1758 26.5644 21.2999 26.5364 20.6756C26.5223 20.3635 26.5105 20.1143 26.5023 19.9433C26.499 19.8737 26.4962 19.8171 26.4941 19.7744C26.4885 19.7611 26.4833 19.7476 26.4787 19.7337L26.1805 18.8341C26.1628 18.7805 26.1537 18.7244 26.1537 18.6679V18.4C26.1537 18.3822 26.1545 18.3643 26.1563 18.3465L26.299 16.9439ZM18.0995 26.2237C18.0995 23.9729 18.1748 21.7988 18.2499 20.1886C18.2875 19.3831 18.325 18.718 18.3532 18.2539C18.3673 18.0219 18.3791 17.8401 18.3874 17.7161C18.3915 17.654 18.3947 17.6064 18.397 17.5742C18.3981 17.5582 18.3989 17.5459 18.3995 17.5377C18.3996 17.5368 18.3996 17.536 18.3997 17.5353V17.4686C18.3997 17.4525 18.4005 17.4366 18.4019 17.4209C18.388 17.267 18.4288 17.1199 18.4551 17.0355C18.4873 16.9322 18.5319 16.8218 18.5797 16.7144C18.676 16.4985 18.8038 16.2544 18.927 16.031C19.0513 15.8056 19.1761 15.5924 19.2693 15.4362C19.3161 15.3579 19.3552 15.2934 19.3827 15.2484C19.3964 15.2258 19.4073 15.2081 19.4148 15.1959C19.4186 15.1898 19.4215 15.1849 19.4236 15.1816C19.4246 15.18 19.4254 15.1788 19.426 15.1779C19.4262 15.1774 19.4266 15.1768 19.4266 15.1768L19.4268 15.1765L19.427 15.1763C19.5805 14.9295 19.9045 14.8542 20.1506 15.0082C20.3967 15.1623 20.4718 15.4872 20.3183 15.7341L20.3178 15.7348C20.3174 15.7354 20.3168 15.7365 20.3159 15.7378C20.3142 15.7406 20.3116 15.7447 20.3082 15.7502C20.3014 15.7612 20.2913 15.7777 20.2783 15.7989C20.2524 15.8413 20.2152 15.9027 20.1706 15.9774C20.0811 16.1274 19.9629 16.3296 19.8462 16.541C19.7285 16.7544 19.6174 16.9685 19.539 17.1444C19.4995 17.2329 19.4727 17.3019 19.4576 17.3504C19.454 17.3618 19.4517 17.3706 19.4501 17.377C19.45 17.392 19.4493 17.4068 19.448 17.4216C19.4494 17.437 19.4502 17.4527 19.4502 17.4686V17.7684C19.4502 17.8227 19.4418 17.875 19.4266 17.9243C19.4197 18.0313 19.4113 18.1633 19.4018 18.3181C19.3739 18.7779 19.3366 19.4381 19.2993 20.238C19.2246 21.8382 19.15 23.9947 19.15 26.2237C19.15 28.4525 19.2246 30.534 19.2993 32.0588C19.3366 32.821 19.3737 33.4436 19.4017 33.8751C19.4123 34.0389 19.4216 34.1752 19.429 34.2811C19.5885 34.3172 19.889 34.3576 20.4225 34.3576C21.0578 34.3576 21.4427 34.301 21.6626 34.2482C21.6588 34.2031 21.6543 34.1544 21.65 34.102C21.6216 33.758 21.5839 33.2595 21.5462 32.6394C21.4708 31.3995 21.3954 29.6712 21.3954 27.7169C21.3954 25.7628 21.4707 23.9603 21.546 22.6468C21.5837 21.9899 21.6213 21.4545 21.6496 21.083C21.6638 20.8972 21.6757 20.7524 21.684 20.6537C21.6881 20.6043 21.6913 20.5665 21.6936 20.5408C21.6947 20.5281 21.6957 20.5183 21.6963 20.5117C21.6966 20.5084 21.6968 20.5059 21.697 20.5041C21.6971 20.5033 21.6971 20.5026 21.6971 20.5021V20.5014C21.6971 20.5014 21.6971 20.5014 21.7127 20.5028L21.6971 20.5014C21.6997 20.4735 21.7044 20.4462 21.711 20.4199V19.6703C21.711 19.5231 21.7325 19.0171 21.7527 18.5692C21.7631 18.3405 21.7735 18.12 21.7813 17.9569C21.7851 17.8753 21.7882 17.8081 21.7905 17.7612C21.7916 17.7377 21.7926 17.7193 21.7932 17.7068C21.7935 17.7006 21.7938 17.6958 21.7939 17.6926C21.794 17.6909 21.7941 17.6896 21.7941 17.6888V17.6876C21.8083 17.3969 22.0547 17.1727 22.3445 17.1869C22.6252 17.2007 22.8436 17.4332 22.8441 17.7119L22.8434 17.739V17.7402C22.8434 17.741 22.8433 17.7423 22.8433 17.7438C22.8431 17.747 22.8429 17.7517 22.8426 17.7579C22.842 17.7703 22.841 17.7886 22.8398 17.8119C22.8376 17.8586 22.8345 17.9258 22.8306 18.0071C22.8229 18.1697 22.8125 18.3892 22.8022 18.6168C22.7812 19.0815 22.7615 19.5539 22.7615 19.6703V20.4606C22.7615 20.5076 22.7548 20.553 22.7432 20.5964V20.5976C22.7432 20.5976 22.7431 20.5984 22.7431 20.5992C22.7429 20.6006 22.7428 20.6028 22.7425 20.6058C22.742 20.6119 22.7412 20.6211 22.7402 20.6333C22.738 20.6577 22.7348 20.6942 22.7308 20.7422C22.7227 20.8383 22.7112 20.9806 22.6972 21.1634C22.6694 21.5292 22.6321 22.0578 22.5948 22.7074C22.5203 24.0071 22.4459 25.7885 22.4459 27.7169C22.4459 29.645 22.5202 31.3513 22.5946 32.5753C22.6318 33.187 22.6691 33.6778 22.6969 34.0151C22.7108 34.1837 22.7224 34.314 22.7304 34.4017C22.7344 34.4455 22.7375 34.4787 22.7396 34.5008C22.7407 34.5118 22.7415 34.5201 22.742 34.5255C22.7423 34.5282 22.7426 34.5302 22.7427 34.5315C22.7428 34.5321 22.7429 34.5329 22.7429 34.5329C22.7587 34.6908 22.7028 34.8477 22.5905 34.9596L22.2202 34.5859L22.5439 34.9131C22.59 34.96 22.5895 34.9605 22.5895 34.9605C22.5895 34.9605 22.589 34.9612 22.5887 34.9615C22.5881 34.9621 22.5874 34.9626 22.5868 34.9632C22.5855 34.9644 22.5843 34.9657 22.583 34.967C22.5804 34.9695 22.5776 34.972 22.5748 34.9745C22.5693 34.9796 22.5633 34.9849 22.557 34.9903C22.5445 35.001 22.5305 35.0122 22.5148 35.0237C22.4834 35.0468 22.4455 35.0712 22.4002 35.0958C22.3099 35.1449 22.1889 35.1959 22.0266 35.2421C21.7041 35.3339 21.2033 35.4114 20.4225 35.4114C19.6541 35.4114 19.1989 35.3369 18.9176 35.2248C18.7725 35.1669 18.642 35.0867 18.5454 34.9711C18.496 34.912 18.458 34.8466 18.433 34.7769C18.4207 34.7426 18.4121 34.7088 18.4067 34.6763C18.404 34.6601 18.4021 34.6444 18.4009 34.6293C18.4008 34.6282 18.4006 34.6271 18.4006 34.626V34.6257C18.4005 34.6251 18.4005 34.6243 18.4004 34.6233C18.4002 34.6213 18.4 34.6183 18.3997 34.6145C18.3991 34.6068 18.3983 34.5954 18.3971 34.5804C18.3949 34.5503 18.3917 34.5058 18.3876 34.4478C18.3793 34.3318 18.3675 34.1615 18.3534 33.9434C18.3251 33.507 18.2875 32.8789 18.2499 32.1105C18.1747 30.5742 18.0995 28.4746 18.0995 26.2237ZM19.448 34.5451C19.449 34.5577 19.4495 34.5706 19.4495 34.5833C19.4495 34.5829 19.4496 34.5816 19.4495 34.5807C19.4495 34.579 19.4496 34.5771 19.4495 34.5754C19.4495 34.572 19.4493 34.5684 19.4492 34.565L19.448 34.5451ZM19.448 34.5447V34.544C19.448 34.5436 19.4479 34.5431 19.4478 34.5427C19.4479 34.5435 19.448 34.5443 19.448 34.5447ZM23.7678 30.3621V22.6892C23.7268 22.5942 23.713 22.4862 23.7348 22.377C23.771 22.1953 23.7913 21.962 23.8018 21.7611C23.8069 21.6635 23.8096 21.5785 23.8109 21.5183C23.8115 21.4883 23.8117 21.4645 23.8119 21.4486C23.812 21.4408 23.812 21.4349 23.8121 21.4312V21.4265C23.8121 21.4156 23.8124 21.4045 23.8131 21.3936L23.9006 19.9886C23.9188 19.6982 24.1682 19.4775 24.4577 19.4957C24.7472 19.5138 24.9672 19.764 24.9491 20.0544L24.8624 21.4438C24.8624 21.4481 24.8625 21.4532 24.8624 21.4589C24.8622 21.4784 24.8618 21.5062 24.8611 21.5406C24.8596 21.6093 24.8568 21.7055 24.851 21.8164C24.8446 21.938 24.8341 22.0842 24.8173 22.2345C24.8179 22.245 24.8183 22.2555 24.8183 22.2661V30.3621C24.8183 30.6531 24.5831 30.889 24.293 30.889C24.003 30.8889 23.7678 30.6531 23.7678 30.3621ZM11.7706 15.5564C11.715 15.2713 11.9 14.9947 12.1842 14.9383C12.4688 14.8818 12.7452 15.0675 12.8015 15.353L12.2861 15.4552C12.7996 15.3533 12.8015 15.353 12.8015 15.353V15.3533L12.8017 15.3538L12.8018 15.3547C12.802 15.3554 12.802 15.3562 12.8022 15.3571C12.8025 15.3589 12.8031 15.3611 12.8035 15.3636C12.8045 15.3687 12.8055 15.3753 12.807 15.3833C12.8098 15.3996 12.8135 15.4222 12.8177 15.4507C12.8262 15.5079 12.8371 15.5895 12.8476 15.695C12.8688 15.906 12.8892 16.2127 12.8892 16.6117V17.4686C12.8892 17.5384 12.8753 17.6048 12.8507 17.6658C12.8487 17.6886 12.8462 17.7181 12.843 17.754C12.8349 17.8471 12.8233 17.9828 12.8093 18.1522C12.7814 18.4911 12.7442 18.9646 12.7069 19.503C12.6322 20.5835 12.5583 21.9123 12.5583 22.9384C12.5583 23.9636 12.6319 25.2173 12.7066 26.2218C12.7438 26.7225 12.7811 27.1583 12.809 27.4689C12.8229 27.6241 12.8346 27.748 12.8427 27.8328C12.8467 27.8752 12.8499 27.9079 12.8521 27.9299C12.8532 27.9409 12.8539 27.9492 12.8545 27.9547C12.8548 27.9575 12.855 27.9596 12.8552 27.9609C12.8552 27.9615 12.8552 27.9623 12.8552 27.9623L12.8553 27.9626C12.8712 28.1206 12.8151 28.2773 12.7028 28.3892L12.3326 28.0155C12.7029 28.3892 12.7025 28.3897 12.7025 28.3897L12.6996 28.3926C12.6983 28.3939 12.6967 28.3952 12.6951 28.3967C12.6919 28.3998 12.6881 28.4035 12.6837 28.4077C12.6747 28.4161 12.6632 28.4265 12.6491 28.4388C12.6211 28.4632 12.5829 28.495 12.5342 28.5314C12.437 28.604 12.2978 28.6959 12.1169 28.7861C11.7532 28.9673 11.2242 29.1397 10.5349 29.1397C9.84444 29.1397 9.36648 28.9662 9.04631 28.7535C8.88859 28.6487 8.77653 28.539 8.69989 28.4473C8.66174 28.4017 8.63251 28.3608 8.61098 28.3274C8.60021 28.3107 8.5913 28.2958 8.58413 28.2832C8.58057 28.2769 8.57747 28.2712 8.57473 28.266C8.57335 28.2635 8.57198 28.2609 8.5708 28.2587C8.57022 28.2575 8.56962 28.2565 8.56909 28.2554C8.56883 28.2549 8.56865 28.2544 8.5684 28.2539L8.56789 28.253C8.5682 28.2524 8.58296 28.2445 9.03673 28.0155C8.57631 28.2478 8.56755 28.2519 8.56721 28.2516L8.56686 28.2508C8.56662 28.2503 8.56626 28.2497 8.56601 28.2492C8.5655 28.2482 8.565 28.2471 8.56447 28.246C8.56339 28.2438 8.56222 28.2414 8.56105 28.2389C8.55867 28.2339 8.55611 28.2282 8.55336 28.222C8.54786 28.2095 8.54155 28.1947 8.53472 28.1772C8.52104 28.1421 8.50495 28.0961 8.48718 28.0371C8.45172 27.9192 8.40958 27.7478 8.36903 27.5054C8.28808 27.0213 8.2119 26.2442 8.2119 25.0289C8.2119 23.8122 8.28817 22.8943 8.36579 22.2753C8.40459 21.9659 8.44379 21.7313 8.47385 21.5715C8.48025 21.5374 8.48631 21.5068 8.4918 21.4795V20.4606C8.4918 20.4338 8.49389 20.407 8.49796 20.3805L8.67305 19.2389C8.71716 18.9513 8.98529 18.7541 9.27201 18.7983C9.55873 18.8425 9.75537 19.1115 9.71127 19.3991L9.54233 20.5005V21.3034C9.56625 21.3888 9.56939 21.4814 9.54627 21.5737C9.54599 21.5748 9.54548 21.577 9.54473 21.5802C9.54313 21.587 9.54039 21.5984 9.53686 21.6145C9.5298 21.6467 9.51913 21.6974 9.50608 21.7668C9.47997 21.9056 9.44421 22.119 9.40811 22.4069C9.33592 22.9825 9.26243 23.8565 9.26243 25.0289C9.26243 26.2029 9.33617 26.9193 9.40503 27.3311C9.43938 27.5366 9.47204 27.6638 9.49275 27.7326C9.49758 27.7487 9.50225 27.7613 9.50557 27.7711C9.52289 27.7916 9.56036 27.8311 9.62646 27.875C9.75571 27.9609 10.0269 28.086 10.5349 28.086C11.044 28.086 11.414 27.9596 11.6496 27.8422C11.6995 27.8173 11.7435 27.7924 11.7817 27.7693C11.7761 27.7087 11.7696 27.6399 11.7627 27.5635C11.7345 27.2488 11.6967 26.8074 11.659 26.3002C11.5838 25.2888 11.5078 24.0037 11.5078 22.9384C11.5078 21.8739 11.5837 20.5149 11.6588 19.4301C11.6964 18.886 11.7342 18.4077 11.7624 18.0653C11.7765 17.894 11.7883 17.7567 11.7966 17.662C11.8007 17.6147 11.804 17.578 11.8062 17.5531C11.8073 17.5407 11.8082 17.5311 11.8087 17.5246C11.809 17.5215 11.8091 17.5189 11.8093 17.5173C11.8093 17.5165 11.8094 17.5158 11.8094 17.5154L11.8096 17.5149C11.8137 17.4695 11.824 17.426 11.8387 17.385V16.6117C11.8387 16.2487 11.8201 15.9772 11.8024 15.8004C11.7935 15.7121 11.7849 15.6473 11.7788 15.6066C11.7758 15.5864 11.7734 15.5722 11.772 15.5639C11.7713 15.5602 11.7708 15.5576 11.7706 15.5564ZM5.57582 27.6633V23.1656C5.57582 23.0917 5.59114 23.0213 5.61857 22.9574C5.59555 22.8641 5.5972 22.7634 5.62968 22.6653L5.88411 21.8975L5.6791 20.9183C5.61948 20.6336 5.80131 20.3542 6.08519 20.2944C6.36907 20.2346 6.64758 20.417 6.70723 20.7017L6.94148 21.82C6.9606 21.9113 6.95526 22.006 6.92592 22.0946L6.62653 22.9977C6.6218 23.012 6.61625 23.0258 6.61045 23.0394C6.6204 23.0799 6.62635 23.1221 6.62635 23.1656V27.6633C6.62635 27.9543 6.39118 28.1902 6.10109 28.1902C5.81103 28.1902 5.57582 27.9543 5.57582 27.6633ZM14.5228 27.6633V18.9677C14.5228 18.8365 14.5708 18.7166 14.65 18.6244C14.762 18.281 14.8977 17.9429 15.0082 17.6843C15.0714 17.5364 15.1275 17.412 15.1679 17.3242C15.1728 17.3136 15.1775 17.3035 15.1819 17.294V16.2455C15.1819 15.9545 15.4171 15.7186 15.7072 15.7186C15.9973 15.7187 16.2325 15.9545 16.2325 16.2455V17.4121C16.2325 17.4919 16.2142 17.5706 16.1795 17.6423V17.6426C16.1795 17.6426 16.1792 17.6433 16.1789 17.6438C16.1784 17.645 16.1774 17.6468 16.1762 17.6493C16.1737 17.6545 16.1699 17.6625 16.1649 17.673C16.1549 17.6941 16.1402 17.7257 16.1217 17.766C16.0845 17.8466 16.0325 17.9621 15.9738 18.0996C15.8553 18.3768 15.7138 18.7336 15.6108 19.0717C15.601 19.1037 15.5883 19.134 15.5733 19.1626V27.6633C15.5733 27.9543 15.3381 28.1902 15.0481 28.1902C14.758 28.1902 14.5228 27.9543 14.5228 27.6633ZM11.7708 15.5567V15.5571L11.7706 15.5564L11.7708 15.5567Z" fill="#1C7D56"/>
<path d="M1.5758 19.7581C1.5758 19.5156 1.37982 19.319 1.13808 19.319C0.896329 19.319 0.700355 19.5156 0.700355 19.7581C0.700355 20.0006 0.896329 20.1971 1.13808 20.1971V20.8996C0.509534 20.8996 0 20.3885 0 19.7581C0 19.1276 0.509534 18.6165 1.13808 18.6165C1.76662 18.6165 2.27615 19.1276 2.27615 19.7581C2.27615 20.3885 1.76662 20.8996 1.13808 20.8996V20.1971C1.37982 20.1971 1.5758 20.0006 1.5758 19.7581ZM6.1281 19.7581C6.1281 19.5156 5.93213 19.319 5.69038 19.319C5.44864 19.319 5.25266 19.5156 5.25266 19.7581C5.25266 20.0006 5.44864 20.1971 5.69038 20.1971V20.8996C5.06184 20.8996 4.55231 20.3885 4.55231 19.7581C4.55231 19.1276 5.06184 18.6165 5.69038 18.6165C6.31892 18.6165 6.82846 19.1276 6.82846 19.7581C6.82846 20.3885 6.31892 20.8996 5.69038 20.8996V20.1971C5.93213 20.1971 6.1281 20.0006 6.1281 19.7581ZM24.6875 18.8799C24.6875 18.6374 24.4915 18.4409 24.2498 18.4409C24.008 18.4409 23.8121 18.6374 23.8121 18.8799C23.8121 19.1224 24.008 19.319 24.2498 19.319V20.0215C23.6212 20.0215 23.1117 19.5104 23.1117 18.8799C23.1117 18.2495 23.6212 17.7384 24.2498 17.7384C24.8783 17.7384 25.3879 18.2495 25.3879 18.8799C25.3879 19.5104 24.8783 20.0215 24.2498 20.0215V19.319C24.4915 19.319 24.6875 19.1224 24.6875 18.8799ZM9.98005 18.1774C9.98005 17.9349 9.78408 17.7384 9.54233 17.7384C9.30059 17.7384 9.10461 17.9349 9.10461 18.1774C9.10461 18.4199 9.30059 18.6165 9.54233 18.6165V19.319C8.91379 19.319 8.40426 18.8079 8.40426 18.1774C8.40426 17.5469 8.91379 17.0358 9.54233 17.0358C10.1709 17.0358 10.6804 17.5469 10.6804 18.1774C10.6804 18.8079 10.1709 19.319 9.54233 19.319V18.6165C9.78408 18.6165 9.98005 18.4199 9.98005 18.1774ZM23.1117 16.5968C23.1117 16.3543 22.9157 16.1577 22.674 16.1577C22.4322 16.1577 22.2363 16.3543 22.2363 16.5968C22.2363 16.8393 22.4322 17.0358 22.674 17.0358V17.7384C22.0454 17.7384 21.5359 17.2273 21.5359 16.5968C21.5359 15.9663 22.0454 15.4552 22.674 15.4552C23.3025 15.4552 23.8121 15.9663 23.8121 16.5968C23.8121 17.2273 23.3025 17.7384 22.674 17.7384V17.0358C22.9157 17.0358 23.1117 16.8393 23.1117 16.5968ZM27.664 15.8943C27.664 15.6518 27.468 15.4552 27.2263 15.4552C26.9845 15.4552 26.7886 15.6518 26.7886 15.8943C26.7886 16.1368 26.9845 16.3333 27.2263 16.3333V17.0358C26.5977 17.0358 26.0882 16.5247 26.0882 15.8943C26.0882 15.2638 26.5977 14.7527 27.2263 14.7527C27.8548 14.7527 28.3644 15.2638 28.3644 15.8943C28.3644 16.5247 27.8548 17.0358 27.2263 17.0358V16.3333C27.468 16.3333 27.664 16.1368 27.664 15.8943ZM16.1082 15.0161C16.1082 14.7736 15.9122 14.5771 15.6704 14.5771C15.4287 14.5771 15.2327 14.7736 15.2327 15.0161C15.2327 15.2586 15.4287 15.4552 15.6704 15.4552V16.1577C15.0419 16.1577 14.5324 15.6466 14.5324 15.0161C14.5324 14.3857 15.0419 13.8746 15.6704 13.8746C16.299 13.8746 16.8085 14.3857 16.8085 15.0161C16.8085 15.6466 16.299 16.1577 15.6704 16.1577V15.4552C15.9122 15.4552 16.1082 15.2586 16.1082 15.0161ZM12.4313 14.3136C12.4313 14.1193 12.2459 13.8746 11.906 13.8746C11.5662 13.8746 11.3808 14.1193 11.3808 14.3136C11.3808 14.508 11.5662 14.7527 11.906 14.7527V15.4552C11.2291 15.4552 10.6804 14.9441 10.6804 14.3136C10.6804 13.6831 11.2291 13.172 11.906 13.172C12.5829 13.172 13.1317 13.6831 13.1317 14.3136C13.1317 14.9441 12.5829 15.4552 11.906 15.4552V14.7527C12.2459 14.7527 12.4313 14.508 12.4313 14.3136ZM20.8356 14.3136C20.8356 14.0711 20.6396 13.8746 20.3978 13.8746C20.1561 13.8746 19.9601 14.0711 19.9601 14.3136C19.9601 14.5561 20.1561 14.7527 20.3978 14.7527V15.4552C19.7693 15.4552 19.2598 14.9441 19.2598 14.3136C19.2598 13.6831 19.7693 13.172 20.3978 13.172C21.0264 13.172 21.5359 13.6831 21.5359 14.3136C21.5359 14.9441 21.0264 15.4552 20.3978 15.4552V14.7527C20.6396 14.7527 20.8356 14.5561 20.8356 14.3136Z" fill="#1C7D56"/>
<path d="M18.9296 45.1365C22.9339 45.2893 26.1528 45.7844 29.292 47.2955C29.5535 47.4214 29.6638 47.7362 29.5384 47.9986C29.4128 48.2609 29.099 48.3716 28.8375 48.2457C25.885 46.8245 22.8308 46.34 18.8896 46.1896C18.5997 46.1785 18.3736 45.9338 18.3847 45.643C18.3957 45.3523 18.6397 45.1255 18.9296 45.1365ZM10.8355 44.7853C11.1254 44.7742 11.3694 45.001 11.3804 45.2918C11.3914 45.5825 11.1654 45.8273 10.8755 45.8384C6.93423 45.9888 3.88006 46.4732 0.927594 47.8944C0.666063 48.0203 0.352231 47.9096 0.226726 47.6473C0.101247 47.385 0.211591 47.0702 0.473116 46.9443C3.61228 45.4332 6.83113 44.9381 10.8355 44.7853Z" fill="#1C7D56"/>
</svg>
