<svg width="183" height="94" viewBox="0 0 183 94" fill="none" xmlns="http://www.w3.org/2000/svg">
<path d="M80.5628 85.914V82.517H81.14V85.3721H82.6908V85.914H80.5628Z" fill="white"/>
<path d="M84.9958 85.914H84.502V85.5666C84.2841 85.826 83.9967 85.9557 83.6397 85.9557C83.3662 85.9557 83.1413 85.8792 82.9651 85.7264C82.7936 85.569 82.7078 85.3652 82.7078 85.1151C82.7078 84.865 82.8006 84.6751 82.986 84.5455C83.1714 84.4158 83.4264 84.351 83.751 84.351H84.4603V84.2537C84.4603 83.911 84.2679 83.7396 83.8831 83.7396C83.642 83.7396 83.3917 83.8276 83.132 84.0036L82.8886 83.6632C83.2085 83.4131 83.5655 83.2881 83.9596 83.2881C84.2795 83.2881 84.5321 83.3691 84.7176 83.5312C84.903 83.6887 84.9958 83.9272 84.9958 84.2467V85.914ZM84.4533 84.733H83.8414C83.4473 84.733 83.2503 84.8558 83.2503 85.1012C83.2503 85.2262 83.2989 85.3235 83.3963 85.393C83.4937 85.4578 83.6304 85.4902 83.8066 85.4902C83.9874 85.4902 84.1404 85.4416 84.2656 85.3443C84.3907 85.2425 84.4533 85.1105 84.4533 84.9484V84.733Z" fill="white"/>
<path d="M88.0737 84.608C88.0737 84.997 87.9532 85.3189 87.7121 85.5736C87.4711 85.8283 87.1836 85.9557 86.8498 85.9557C86.5207 85.9557 86.2263 85.8121 85.9666 85.525V85.914H85.4242V82.3086H85.9666V83.7813C86.1845 83.4525 86.465 83.2881 86.8081 83.2881C87.1651 83.2881 87.4641 83.4108 87.7052 83.6563C87.9509 83.9017 88.0737 84.219 88.0737 84.608ZM86.7246 85.4694C86.9472 85.4694 87.1349 85.3907 87.2879 85.2332C87.4456 85.0711 87.5244 84.8673 87.5244 84.6219C87.5244 84.3764 87.4456 84.1727 87.2879 84.0106C87.1349 83.8485 86.9495 83.7674 86.7316 83.7674C86.5137 83.7674 86.3306 83.8508 86.1822 84.0175C86.0339 84.1796 85.9597 84.3811 85.9597 84.6219C85.9597 84.8673 86.0339 85.0711 86.1822 85.2332C86.3306 85.3907 86.5114 85.4694 86.7246 85.4694Z" fill="white"/>
<path d="M89.5435 85.4694C89.7799 85.4694 89.9746 85.3907 90.1276 85.2332C90.2852 85.0757 90.3641 84.872 90.3641 84.6219C90.3641 84.3718 90.2852 84.168 90.1276 84.0106C89.9746 83.8531 89.7799 83.7744 89.5435 83.7744C89.307 83.7744 89.1123 83.8531 88.9593 84.0106C88.8063 84.168 88.7298 84.3718 88.7298 84.6219C88.7298 84.872 88.8063 85.0734 88.9593 85.2262C89.1123 85.3883 89.307 85.4694 89.5435 85.4694ZM89.5435 85.9557C89.154 85.9557 88.8295 85.8283 88.5699 85.5736C88.3103 85.3142 88.1805 84.997 88.1805 84.6219C88.1805 84.2468 88.3103 83.9318 88.5699 83.6771C88.8295 83.4178 89.154 83.2881 89.5435 83.2881C89.9329 83.2881 90.2574 83.4178 90.517 83.6771C90.7767 83.9318 90.9065 84.2468 90.9065 84.6219C90.9065 84.9831 90.7767 85.298 90.517 85.5666C90.2574 85.826 89.9329 85.9557 89.5435 85.9557Z" fill="white"/>
<path d="M91.728 84.8025V85.914H91.1856V83.3298H91.728V83.8438C91.8161 83.6817 91.9343 83.5498 92.0827 83.4479C92.2357 83.346 92.3956 83.2927 92.5625 83.2881L92.5695 83.8369H92.5416C92.2774 83.8369 92.0757 83.9226 91.9366 84.0939C91.7975 84.2653 91.728 84.5015 91.728 84.8025Z" fill="white"/>
<path d="M94.8716 85.914H94.3779V85.5666C94.16 85.826 93.8725 85.9557 93.5156 85.9557C93.242 85.9557 93.0172 85.8792 92.841 85.7264C92.6695 85.569 92.5837 85.3652 92.5837 85.1151C92.5837 84.865 92.6764 84.6751 92.8619 84.5455C93.0473 84.4158 93.3023 84.351 93.6268 84.351H94.3362V84.2537C94.3362 83.911 94.1438 83.7396 93.759 83.7396C93.5179 83.7396 93.2675 83.8276 93.0079 84.0036L92.7645 83.6632C93.0844 83.4131 93.4414 83.2881 93.8354 83.2881C94.1553 83.2881 94.408 83.3691 94.5935 83.5312C94.7789 83.6887 94.8716 83.9272 94.8716 84.2467V85.914ZM94.3292 84.733H93.7172C93.3232 84.733 93.1261 84.8558 93.1261 85.1012C93.1261 85.2262 93.1748 85.3235 93.2722 85.393C93.3695 85.4578 93.5063 85.4902 93.6825 85.4902C93.8633 85.4902 94.0163 85.4416 94.1414 85.3443C94.2666 85.2425 94.3292 85.1105 94.3292 84.9484V84.733Z" fill="white"/>
<path d="M95.9677 83.7674V85.0804C95.9677 85.2054 96.0001 85.305 96.065 85.3791C96.1346 85.4485 96.2273 85.4833 96.3432 85.4833C96.4498 85.4833 96.5611 85.4254 96.677 85.3096L96.8995 85.6986C96.7048 85.87 96.4939 85.9557 96.2667 85.9557C96.0303 85.9557 95.8309 85.8746 95.6687 85.7125C95.5064 85.5458 95.4253 85.3305 95.4253 85.0665V83.7674H95.0984V83.3298H95.4253V82.517H95.9677V83.3298H96.6492V83.7674H95.9677Z" fill="white"/>
<path d="M98.1875 85.4694C98.4239 85.4694 98.6186 85.3907 98.7716 85.2332C98.9293 85.0757 99.0081 84.872 99.0081 84.6219C99.0081 84.3718 98.9293 84.168 98.7716 84.0106C98.6186 83.8531 98.4239 83.7744 98.1875 83.7744C97.951 83.7744 97.7563 83.8531 97.6033 84.0106C97.4503 84.168 97.3738 84.3718 97.3738 84.6219C97.3738 84.872 97.4503 85.0734 97.6033 85.2262C97.7563 85.3883 97.951 85.4694 98.1875 85.4694ZM98.1875 85.9557C97.798 85.9557 97.4735 85.8283 97.2139 85.5736C96.9543 85.3142 96.8245 84.997 96.8245 84.6219C96.8245 84.2468 96.9543 83.9318 97.2139 83.6771C97.4735 83.4178 97.798 83.2881 98.1875 83.2881C98.5769 83.2881 98.9014 83.4178 99.1611 83.6771C99.4207 83.9318 99.5505 84.2468 99.5505 84.6219C99.5505 84.9831 99.4207 85.298 99.1611 85.5666C98.9014 85.826 98.5769 85.9557 98.1875 85.9557ZM98.4378 82.9963H97.9441L98.4587 82.2878L99.0289 82.5309L98.4378 82.9963Z" fill="white"/>
<path d="M100.372 84.8025V85.914H99.8296V83.3298H100.372V83.8438C100.46 83.6817 100.578 83.5498 100.727 83.4479C100.88 83.346 101.04 83.2927 101.207 83.2881L101.213 83.8369H101.186C100.921 83.8369 100.72 83.9226 100.581 84.0939C100.442 84.2653 100.372 84.5015 100.372 84.8025Z" fill="white"/>
<path d="M101.965 85.914H101.422V83.3298H101.965V85.914ZM101.353 82.5656C101.353 82.473 101.385 82.3943 101.45 82.3295C101.52 82.26 101.603 82.2253 101.701 82.2253C101.793 82.2253 101.872 82.26 101.937 82.3295C102.007 82.3943 102.041 82.473 102.041 82.5656C102.041 82.6629 102.007 82.7463 101.937 82.8157C101.872 82.8806 101.793 82.913 101.701 82.913C101.603 82.913 101.522 82.8782 101.457 82.8088C101.388 82.7439 101.353 82.6629 101.353 82.5656Z" fill="white"/>
<path d="M103.612 85.4694C103.848 85.4694 104.043 85.3907 104.196 85.2332C104.353 85.0757 104.432 84.872 104.432 84.6219C104.432 84.3718 104.353 84.168 104.196 84.0106C104.043 83.8531 103.848 83.7744 103.612 83.7744C103.375 83.7744 103.18 83.8531 103.027 84.0106C102.874 84.168 102.798 84.3718 102.798 84.6219C102.798 84.872 102.874 85.0734 103.027 85.2262C103.18 85.3883 103.375 85.4694 103.612 85.4694ZM103.612 85.9557C103.222 85.9557 102.898 85.8283 102.638 85.5736C102.378 85.3142 102.249 84.997 102.249 84.6219C102.249 84.2468 102.378 83.9318 102.638 83.6771C102.898 83.4178 103.222 83.2881 103.612 83.2881C104.001 83.2881 104.326 83.4178 104.585 83.6771C104.845 83.9318 104.975 84.2468 104.975 84.6219C104.975 84.9831 104.845 85.298 104.585 85.5666C104.326 85.826 104.001 85.9557 103.612 85.9557Z" fill="white"/>
<path d="M106.087 84.608C106.087 84.219 106.21 83.9017 106.455 83.6563C106.701 83.4108 107.002 83.2881 107.359 83.2881C107.702 83.2881 107.978 83.434 108.187 83.7257V82.3086H108.736V85.914H108.187V85.525C107.992 85.8121 107.7 85.9557 107.311 85.9557C106.972 85.9557 106.682 85.8306 106.441 85.5805C106.205 85.3258 106.087 85.0016 106.087 84.608ZM107.429 85.4694C107.647 85.4694 107.83 85.3907 107.978 85.2332C108.127 85.0757 108.201 84.8743 108.201 84.6288C108.201 84.388 108.124 84.1842 107.971 84.0175C107.823 83.8508 107.64 83.7674 107.422 83.7674C107.204 83.7674 107.016 83.8508 106.859 84.0175C106.706 84.1796 106.629 84.3834 106.629 84.6288C106.629 84.8743 106.708 85.0757 106.866 85.2332C107.023 85.3907 107.211 85.4694 107.429 85.4694Z" fill="white"/>
<path d="M111.59 84.8581H109.559C109.573 85.0433 109.659 85.1938 109.817 85.3096C109.974 85.4254 110.157 85.4833 110.366 85.4833C110.695 85.4833 110.941 85.3814 111.103 85.1776L111.416 85.518C111.138 85.8098 110.774 85.9557 110.324 85.9557C109.953 85.9557 109.643 85.8329 109.392 85.5875C109.142 85.342 109.017 85.0178 109.017 84.6149C109.017 84.2213 109.144 83.9017 109.399 83.6563C109.654 83.4108 109.963 83.2881 110.324 83.2881C110.686 83.2881 110.987 83.3969 111.228 83.6146C111.469 83.8323 111.59 84.1217 111.59 84.4829V84.8581ZM111.047 84.4274C111.047 84.219 110.98 84.0546 110.846 83.9342C110.716 83.8137 110.547 83.7535 110.338 83.7535C110.13 83.7535 109.946 83.8161 109.789 83.9411C109.636 84.0661 109.559 84.2282 109.559 84.4274H111.047Z" fill="white"/>
<path d="M114.102 82.517C114.612 82.517 114.985 82.6166 115.221 82.8157C115.462 83.0102 115.583 83.3136 115.583 83.7257C115.583 84.1333 115.462 84.4343 115.221 84.6288C114.98 84.8187 114.609 84.9136 114.109 84.9136H113.511V85.914H112.933V82.517H114.102ZM114.171 84.3996C114.477 84.3996 114.69 84.3417 114.811 84.2259C114.936 84.1101 114.999 83.9272 114.999 83.6771C114.999 83.4456 114.927 83.2812 114.783 83.1839C114.639 83.0866 114.408 83.038 114.088 83.038H113.511V84.3996H114.171Z" fill="white"/>
<path d="M118.259 84.8581H116.228C116.242 85.0433 116.328 85.1938 116.486 85.3096C116.643 85.4254 116.826 85.4833 117.035 85.4833C117.364 85.4833 117.61 85.3814 117.772 85.1776L118.085 85.518C117.807 85.8098 117.443 85.9557 116.993 85.9557C116.622 85.9557 116.312 85.8329 116.061 85.5875C115.811 85.342 115.686 85.0178 115.686 84.6149C115.686 84.2213 115.813 83.9017 116.068 83.6563C116.323 83.4108 116.632 83.2881 116.993 83.2881C117.355 83.2881 117.656 83.3969 117.897 83.6146C118.138 83.8323 118.259 84.1217 118.259 84.4829V84.8581ZM117.717 84.4274C117.717 84.219 117.649 84.0546 117.515 83.9342C117.385 83.8137 117.216 83.7535 117.007 83.7535C116.799 83.7535 116.615 83.8161 116.458 83.9411C116.305 84.0661 116.228 84.2282 116.228 84.4274H117.717Z" fill="white"/>
<path d="M119.416 85.9557C118.999 85.9557 118.623 85.826 118.29 85.5666L118.554 85.1429C118.851 85.3698 119.143 85.4833 119.43 85.4833C119.551 85.4833 119.646 85.4555 119.715 85.3999C119.789 85.3397 119.826 85.2656 119.826 85.1776C119.826 85.048 119.655 84.9322 119.312 84.8303C119.303 84.8257 119.291 84.821 119.277 84.8164C119.268 84.8118 119.261 84.8094 119.256 84.8094C118.718 84.6659 118.45 84.4227 118.45 84.08C118.45 83.8392 118.54 83.647 118.721 83.5035C118.906 83.3599 119.15 83.2881 119.451 83.2881C119.748 83.2881 120.03 83.3761 120.299 83.5521L120.098 83.955C119.889 83.8161 119.66 83.7466 119.409 83.7466C119.117 83.7466 118.971 83.8392 118.971 84.0245C118.971 84.1032 118.999 84.1611 119.055 84.1981C119.115 84.2305 119.212 84.263 119.347 84.2954C119.551 84.351 119.722 84.4065 119.861 84.4621C119.954 84.5038 120.035 84.5478 120.105 84.5941C120.281 84.7145 120.369 84.8974 120.369 85.1429C120.369 85.3837 120.278 85.5805 120.098 85.7334C119.921 85.8816 119.694 85.9557 119.416 85.9557Z" fill="white"/>
<path d="M120.486 84.608C120.486 84.2143 120.606 83.8971 120.847 83.6563C121.088 83.4108 121.387 83.2881 121.744 83.2881C122.097 83.2881 122.377 83.4525 122.586 83.7813V83.3298H123.135V86.8587H122.586V85.525C122.326 85.8121 122.034 85.9557 121.709 85.9557C121.376 85.9557 121.088 85.8283 120.847 85.5736C120.606 85.3189 120.486 84.997 120.486 84.608ZM121.828 85.4694C122.046 85.4694 122.229 85.3907 122.377 85.2332C122.525 85.0711 122.6 84.8673 122.6 84.6219C122.6 84.3811 122.523 84.1796 122.37 84.0175C122.222 83.8508 122.039 83.7674 121.821 83.7674C121.603 83.7674 121.415 83.8485 121.257 84.0106C121.104 84.1727 121.028 84.3764 121.028 84.6219C121.028 84.8673 121.107 85.0711 121.264 85.2332C121.422 85.3907 121.61 85.4694 121.828 85.4694Z" fill="white"/>
<path d="M125.391 83.3298H125.94V85.914H125.391V85.4416C125.303 85.5991 125.18 85.7241 125.022 85.8167C124.869 85.9093 124.704 85.9557 124.528 85.9557C124.232 85.9557 123.995 85.8653 123.819 85.6847C123.643 85.5041 123.555 85.2471 123.555 84.9136V83.3298H124.097V84.7469C124.097 85.2239 124.294 85.4624 124.688 85.4624C124.888 85.4624 125.054 85.3976 125.189 85.2679C125.323 85.1383 125.391 84.9576 125.391 84.7261V83.3298Z" fill="white"/>
<path d="M126.93 85.914H126.387V83.3298H126.93V85.914ZM126.318 82.5656C126.318 82.473 126.35 82.3943 126.415 82.3295C126.485 82.26 126.568 82.2253 126.666 82.2253C126.758 82.2253 126.837 82.26 126.902 82.3295C126.972 82.3943 127.006 82.473 127.006 82.5656C127.006 82.6629 126.972 82.7463 126.902 82.8157C126.837 82.8806 126.758 82.913 126.666 82.913C126.568 82.913 126.487 82.8782 126.422 82.8088C126.353 82.7439 126.318 82.6629 126.318 82.5656Z" fill="white"/>
<path d="M128.278 85.9557C127.86 85.9557 127.485 85.826 127.151 85.5666L127.415 85.1429C127.712 85.3698 128.004 85.4833 128.291 85.4833C128.412 85.4833 128.507 85.4555 128.577 85.3999C128.651 85.3397 128.688 85.2656 128.688 85.1776C128.688 85.048 128.516 84.9322 128.173 84.8303C128.164 84.8257 128.152 84.821 128.138 84.8164C128.129 84.8118 128.122 84.8094 128.118 84.8094C127.58 84.6659 127.311 84.4227 127.311 84.08C127.311 83.8392 127.401 83.647 127.582 83.5035C127.768 83.3599 128.011 83.2881 128.312 83.2881C128.609 83.2881 128.892 83.3761 129.161 83.5521L128.959 83.955C128.75 83.8161 128.521 83.7466 128.271 83.7466C127.979 83.7466 127.832 83.8392 127.832 84.0245C127.832 84.1032 127.86 84.1611 127.916 84.1981C127.976 84.2305 128.074 84.263 128.208 84.2954C128.412 84.351 128.584 84.4065 128.723 84.4621C128.815 84.5038 128.896 84.5478 128.966 84.5941C129.142 84.7145 129.23 84.8974 129.23 85.1429C129.23 85.3837 129.14 85.5805 128.959 85.7334C128.783 85.8816 128.556 85.9557 128.278 85.9557Z" fill="white"/>
<path d="M131.607 85.914H131.113V85.5666C130.895 85.826 130.608 85.9557 130.251 85.9557C129.977 85.9557 129.753 85.8792 129.576 85.7264C129.405 85.569 129.319 85.3652 129.319 85.1151C129.319 84.865 129.412 84.6751 129.597 84.5455C129.783 84.4158 130.038 84.351 130.362 84.351H131.072V84.2537C131.072 83.911 130.879 83.7396 130.494 83.7396C130.253 83.7396 130.003 83.8276 129.743 84.0036L129.5 83.6632C129.82 83.4131 130.177 83.2881 130.571 83.2881C130.891 83.2881 131.143 83.3691 131.329 83.5312C131.514 83.6887 131.607 83.9272 131.607 84.2467V85.914ZM131.065 84.733H130.453C130.059 84.733 129.862 84.8558 129.862 85.1012C129.862 85.2262 129.91 85.3235 130.008 85.393C130.105 85.4578 130.242 85.4902 130.418 85.4902C130.599 85.4902 130.752 85.4416 130.877 85.3443C131.002 85.2425 131.065 85.1105 131.065 84.9484V84.733Z" fill="white"/>
<path d="M132.926 85.9557C132.508 85.9557 132.133 85.826 131.799 85.5666L132.063 85.1429C132.36 85.3698 132.652 85.4833 132.94 85.4833C133.06 85.4833 133.155 85.4555 133.225 85.3999C133.299 85.3397 133.336 85.2656 133.336 85.1776C133.336 85.048 133.164 84.9322 132.821 84.8303C132.812 84.8257 132.8 84.821 132.787 84.8164C132.777 84.8118 132.77 84.8094 132.766 84.8094C132.228 84.6659 131.959 84.4227 131.959 84.08C131.959 83.8392 132.049 83.647 132.23 83.5035C132.416 83.3599 132.659 83.2881 132.96 83.2881C133.257 83.2881 133.54 83.3761 133.809 83.5521L133.607 83.955C133.399 83.8161 133.169 83.7466 132.919 83.7466C132.627 83.7466 132.481 83.8392 132.481 84.0245C132.481 84.1032 132.508 84.1611 132.564 84.1981C132.624 84.2305 132.722 84.263 132.856 84.2954C133.06 84.351 133.232 84.4065 133.371 84.4621C133.463 84.5038 133.545 84.5478 133.614 84.5941C133.79 84.7145 133.878 84.8974 133.878 85.1429C133.878 85.3837 133.788 85.5805 133.607 85.7334C133.431 85.8816 133.204 85.9557 132.926 85.9557Z" fill="white"/>
<path d="M135.238 82.517H135.816V85.914H135.238V82.517Z" fill="white"/>
<path d="M136.882 85.914H136.34V83.3298H136.882V83.7952C136.97 83.6378 137.091 83.515 137.244 83.427C137.401 83.3344 137.568 83.2881 137.744 83.2881C138.046 83.2881 138.285 83.3784 138.461 83.559C138.637 83.7396 138.725 83.9967 138.725 84.3301V85.914H138.176V84.4968C138.176 84.0198 137.979 83.7813 137.585 83.7813C137.385 83.7813 137.218 83.8462 137.084 83.9758C136.949 84.1009 136.882 84.2792 136.882 84.5107V85.914Z" fill="white"/>
<path d="M139.812 83.7674V85.0804C139.812 85.2054 139.845 85.305 139.91 85.3791C139.979 85.4485 140.072 85.4833 140.188 85.4833C140.294 85.4833 140.406 85.4254 140.522 85.3096L140.744 85.6986C140.549 85.87 140.338 85.9557 140.111 85.9557C139.875 85.9557 139.675 85.8746 139.513 85.7125C139.351 85.5458 139.27 85.3305 139.27 85.0665V83.7674H138.943V83.3298H139.27V82.517H139.812V83.3298H140.494V83.7674H139.812Z" fill="white"/>
<path d="M143.249 84.8581H141.218C141.232 85.0433 141.318 85.1938 141.476 85.3096C141.633 85.4254 141.816 85.4833 142.025 85.4833C142.354 85.4833 142.6 85.3814 142.762 85.1776L143.075 85.518C142.797 85.8098 142.433 85.9557 141.983 85.9557C141.612 85.9557 141.302 85.8329 141.052 85.5875C140.801 85.342 140.676 85.0178 140.676 84.6149C140.676 84.2213 140.803 83.9017 141.058 83.6563C141.313 83.4108 141.622 83.2881 141.983 83.2881C142.345 83.2881 142.646 83.3969 142.887 83.6146C143.128 83.8323 143.249 84.1217 143.249 84.4829V84.8581ZM142.707 84.4274C142.707 84.219 142.639 84.0546 142.505 83.9342C142.375 83.8137 142.206 83.7535 141.997 83.7535C141.789 83.7535 141.606 83.8161 141.448 83.9411C141.295 84.0661 141.218 84.2282 141.218 84.4274H142.707Z" fill="white"/>
<path d="M144.059 84.8025V85.914H143.516V83.3298H144.059V83.8438C144.147 83.6817 144.265 83.5498 144.413 83.4479C144.566 83.346 144.726 83.2927 144.893 83.2881L144.9 83.8369H144.872C144.608 83.8369 144.406 83.9226 144.267 84.0939C144.128 84.2653 144.059 84.5015 144.059 84.8025Z" fill="white"/>
<path d="M144.942 84.608C144.942 84.219 145.065 83.9017 145.311 83.6563C145.556 83.4108 145.858 83.2881 146.215 83.2881C146.558 83.2881 146.834 83.434 147.042 83.7257V82.3086H147.592V85.914H147.042V85.525C146.847 85.8121 146.555 85.9557 146.166 85.9557C145.827 85.9557 145.538 85.8306 145.297 85.5805C145.06 85.3258 144.942 85.0016 144.942 84.608ZM146.284 85.4694C146.502 85.4694 146.685 85.3907 146.834 85.2332C146.982 85.0757 147.056 84.8743 147.056 84.6288C147.056 84.388 146.98 84.1842 146.827 84.0175C146.678 83.8508 146.495 83.7674 146.277 83.7674C146.059 83.7674 145.872 83.8508 145.714 84.0175C145.561 84.1796 145.484 84.3834 145.484 84.6288C145.484 84.8743 145.563 85.0757 145.721 85.2332C145.879 85.3907 146.066 85.4694 146.284 85.4694Z" fill="white"/>
<path d="M148.581 85.914H148.039V83.3298H148.581V85.914ZM147.969 82.5656C147.969 82.473 148.002 82.3943 148.067 82.3295C148.136 82.26 148.22 82.2253 148.317 82.2253C148.41 82.2253 148.489 82.26 148.554 82.3295C148.623 82.3943 148.658 82.473 148.658 82.5656C148.658 82.6629 148.623 82.7463 148.554 82.8157C148.489 82.8806 148.41 82.913 148.317 82.913C148.22 82.913 148.139 82.8782 148.074 82.8088C148.004 82.7439 147.969 82.6629 147.969 82.5656Z" fill="white"/>
<path d="M149.929 85.9557C149.512 85.9557 149.136 85.826 148.803 85.5666L149.067 85.1429C149.363 85.3698 149.656 85.4833 149.943 85.4833C150.064 85.4833 150.159 85.4555 150.228 85.3999C150.302 85.3397 150.339 85.2656 150.339 85.1776C150.339 85.048 150.168 84.9322 149.825 84.8303C149.816 84.8257 149.804 84.821 149.79 84.8164C149.781 84.8118 149.774 84.8094 149.769 84.8094C149.231 84.6659 148.962 84.4227 148.962 84.08C148.962 83.8392 149.053 83.647 149.234 83.5035C149.419 83.3599 149.663 83.2881 149.964 83.2881C150.261 83.2881 150.543 83.3761 150.812 83.5521L150.611 83.955C150.402 83.8161 150.173 83.7466 149.922 83.7466C149.63 83.7466 149.484 83.8392 149.484 84.0245C149.484 84.1032 149.512 84.1611 149.567 84.1981C149.628 84.2305 149.725 84.263 149.86 84.2954C150.064 84.351 150.235 84.4065 150.374 84.4621C150.467 84.5038 150.548 84.5478 150.618 84.5941C150.794 84.7145 150.882 84.8974 150.882 85.1429C150.882 85.3837 150.791 85.5805 150.611 85.7334C150.434 85.8816 150.207 85.9557 149.929 85.9557Z" fill="white"/>
<path d="M150.992 84.6219C150.992 84.2329 151.126 83.9133 151.395 83.6632C151.664 83.4131 151.995 83.2881 152.389 83.2881C152.779 83.2881 153.108 83.4224 153.377 83.691L153.057 84.087C152.834 83.8925 152.61 83.7952 152.382 83.7952C152.151 83.7952 151.951 83.8716 151.784 84.0245C151.622 84.1727 151.541 84.3648 151.541 84.601C151.541 84.8419 151.622 85.0456 151.784 85.2124C151.951 85.3744 152.155 85.4555 152.396 85.4555C152.637 85.4555 152.867 85.3467 153.085 85.129L153.405 85.4763C153.075 85.7959 152.712 85.9557 152.313 85.9557C151.942 85.9557 151.629 85.8329 151.374 85.5875C151.119 85.3374 150.992 85.0155 150.992 84.6219Z" fill="white"/>
<path d="M154.17 85.914H153.628V83.3298H154.17V85.914ZM153.558 82.5656C153.558 82.473 153.591 82.3943 153.656 82.3295C153.725 82.26 153.809 82.2253 153.906 82.2253C153.999 82.2253 154.077 82.26 154.142 82.3295C154.212 82.3943 154.247 82.473 154.247 82.5656C154.247 82.6629 154.212 82.7463 154.142 82.8157C154.077 82.8806 153.999 82.913 153.906 82.913C153.809 82.913 153.727 82.8782 153.663 82.8088C153.593 82.7439 153.558 82.6629 153.558 82.5656Z" fill="white"/>
<path d="M157.277 84.608C157.277 84.997 157.157 85.3189 156.916 85.5736C156.675 85.8283 156.387 85.9557 156.053 85.9557C155.724 85.9557 155.43 85.8121 155.17 85.525V86.8587H154.628V83.3298H155.17V83.7813C155.388 83.4525 155.669 83.2881 156.012 83.2881C156.369 83.2881 156.668 83.4108 156.909 83.6563C157.154 83.9017 157.277 84.219 157.277 84.608ZM155.928 85.4694C156.151 85.4694 156.338 85.3907 156.491 85.2332C156.649 85.0711 156.728 84.8673 156.728 84.6219C156.728 84.3764 156.649 84.1727 156.491 84.0106C156.338 83.8485 156.153 83.7674 155.935 83.7674C155.717 83.7674 155.534 83.8508 155.386 84.0175C155.237 84.1796 155.163 84.3811 155.163 84.6219C155.163 84.8673 155.237 85.0711 155.386 85.2332C155.534 85.3907 155.715 85.4694 155.928 85.4694Z" fill="white"/>
<path d="M158.1 85.914H157.558V82.3086H158.1V85.914Z" fill="white"/>
<path d="M159.1 85.914H158.558V83.3298H159.1V85.914ZM158.488 82.5656C158.488 82.473 158.521 82.3943 158.586 82.3295C158.655 82.26 158.739 82.2253 158.836 82.2253C158.929 82.2253 159.007 82.26 159.072 82.3295C159.142 82.3943 159.177 82.473 159.177 82.5656C159.177 82.6629 159.142 82.7463 159.072 82.8157C159.007 82.8806 158.929 82.913 158.836 82.913C158.739 82.913 158.657 82.8782 158.593 82.8088C158.523 82.7439 158.488 82.6629 158.488 82.5656Z" fill="white"/>
<path d="M160.1 85.914H159.558V83.3298H160.1V83.7952C160.188 83.6378 160.309 83.515 160.462 83.427C160.619 83.3344 160.786 83.2881 160.963 83.2881C161.264 83.2881 161.503 83.3784 161.679 83.559C161.855 83.7396 161.943 83.9967 161.943 84.3301V85.914H161.394V84.4968C161.394 84.0198 161.197 83.7813 160.803 83.7813C160.603 83.7813 160.436 83.8462 160.302 83.9758C160.167 84.1009 160.1 84.2792 160.1 84.5107V85.914Z" fill="white"/>
<path d="M164.456 85.914H163.962V85.5666C163.744 85.826 163.457 85.9557 163.1 85.9557C162.826 85.9557 162.601 85.8792 162.425 85.7264C162.254 85.569 162.168 85.3652 162.168 85.1151C162.168 84.865 162.261 84.6751 162.446 84.5455C162.632 84.4158 162.887 84.351 163.211 84.351H163.92V84.2537C163.92 83.911 163.728 83.7396 163.343 83.7396C163.102 83.7396 162.852 83.8276 162.592 84.0036L162.349 83.6632C162.669 83.4131 163.026 83.2881 163.42 83.2881C163.74 83.2881 163.992 83.3691 164.178 83.5312C164.363 83.6887 164.456 83.9272 164.456 84.2467V85.914ZM163.913 84.733H163.302C162.907 84.733 162.71 84.8558 162.71 85.1012C162.71 85.2262 162.759 85.3235 162.856 85.393C162.954 85.4578 163.091 85.4902 163.267 85.4902C163.448 85.4902 163.601 85.4416 163.726 85.3443C163.851 85.2425 163.913 85.1105 163.913 84.9484V84.733Z" fill="white"/>
<path d="M165.427 84.8025V85.914H164.884V83.3298H165.427V83.8438C165.515 83.6817 165.633 83.5498 165.781 83.4479C165.934 83.346 166.094 83.2927 166.261 83.2881L166.268 83.8369H166.24C165.976 83.8369 165.774 83.9226 165.635 84.0939C165.496 84.2653 165.427 84.5015 165.427 84.8025Z" fill="white"/>
<path d="M168.883 84.8581H166.853C166.867 85.0433 166.952 85.1938 167.11 85.3096C167.268 85.4254 167.451 85.4833 167.659 85.4833C167.989 85.4833 168.234 85.3814 168.397 85.1776L168.709 85.518C168.431 85.8098 168.067 85.9557 167.618 85.9557C167.247 85.9557 166.936 85.8329 166.686 85.5875C166.435 85.342 166.31 85.0178 166.31 84.6149C166.31 84.2213 166.438 83.9017 166.693 83.6563C166.948 83.4108 167.256 83.2881 167.618 83.2881C167.979 83.2881 168.281 83.3969 168.522 83.6146C168.763 83.8323 168.883 84.1217 168.883 84.4829V84.8581ZM168.341 84.4274C168.341 84.219 168.274 84.0546 168.139 83.9342C168.009 83.8137 167.84 83.7535 167.632 83.7535C167.423 83.7535 167.24 83.8161 167.082 83.9411C166.929 84.0661 166.853 84.2282 166.853 84.4274H168.341Z" fill="white"/>
<path d="M170.04 85.9557C169.623 85.9557 169.248 85.826 168.914 85.5666L169.178 85.1429C169.475 85.3698 169.767 85.4833 170.054 85.4833C170.175 85.4833 170.27 85.4555 170.34 85.3999C170.414 85.3397 170.451 85.2656 170.451 85.1776C170.451 85.048 170.279 84.9322 169.936 84.8303C169.927 84.8257 169.915 84.821 169.901 84.8164C169.892 84.8118 169.885 84.8094 169.881 84.8094C169.343 84.6659 169.074 84.4227 169.074 84.08C169.074 83.8392 169.164 83.647 169.345 83.5035C169.531 83.3599 169.774 83.2881 170.075 83.2881C170.372 83.2881 170.655 83.3761 170.924 83.5521L170.722 83.955C170.513 83.8161 170.284 83.7466 170.034 83.7466C169.741 83.7466 169.595 83.8392 169.595 84.0245C169.595 84.1032 169.623 84.1611 169.679 84.1981C169.739 84.2305 169.837 84.263 169.971 84.2954C170.175 84.351 170.346 84.4065 170.486 84.4621C170.578 84.5038 170.659 84.5478 170.729 84.5941C170.905 84.7145 170.993 84.8974 170.993 85.1429C170.993 85.3837 170.903 85.5805 170.722 85.7334C170.546 85.8816 170.319 85.9557 170.04 85.9557Z" fill="white"/>
<path d="M174.683 84.8581H172.652C172.666 85.0433 172.752 85.1938 172.91 85.3096C173.067 85.4254 173.25 85.4833 173.459 85.4833C173.788 85.4833 174.034 85.3814 174.196 85.1776L174.509 85.518C174.231 85.8098 173.867 85.9557 173.417 85.9557C173.046 85.9557 172.736 85.8329 172.485 85.5875C172.235 85.342 172.11 85.0178 172.11 84.6149C172.11 84.2213 172.237 83.9017 172.492 83.6563C172.747 83.4108 173.056 83.2881 173.417 83.2881C173.779 83.2881 174.08 83.3969 174.321 83.6146C174.562 83.8323 174.683 84.1217 174.683 84.4829V84.8581ZM174.14 84.4274C174.14 84.219 174.073 84.0546 173.939 83.9342C173.809 83.8137 173.64 83.7535 173.431 83.7535C173.223 83.7535 173.039 83.8161 172.882 83.9411C172.729 84.0661 172.652 84.2282 172.652 84.4274H174.14Z" fill="white"/>
<path d="M93.321 87.9077V88.4426H91.5059V89.3457H93.1332V89.8528H91.5059V90.7628H93.3766V91.3047H90.9288V87.9077H93.321Z" fill="white"/>
<path d="M94.2391 91.3047H93.6967V88.7205H94.2391V89.1859C94.3272 89.0284 94.4478 88.9057 94.6007 88.8177C94.7584 88.7251 94.9253 88.6788 95.1014 88.6788C95.4028 88.6788 95.6415 88.7691 95.8177 88.9497C95.9939 89.1303 96.082 89.3874 96.082 89.7208V91.3047H95.5326V89.8875C95.5326 89.4105 95.3356 89.172 94.9415 89.172C94.7421 89.172 94.5752 89.2368 94.4408 89.3665C94.3064 89.4916 94.2391 89.6699 94.2391 89.9014V91.3047Z" fill="white"/>
<path d="M98.8939 88.7205V90.9712C98.8939 91.4158 98.7733 91.7562 98.5322 91.9924C98.2912 92.2286 97.969 92.3467 97.5656 92.3467C97.1855 92.3467 96.8331 92.2239 96.5086 91.9785L96.7659 91.5686C97.0255 91.7585 97.2828 91.8535 97.5378 91.8535C98.0941 91.8535 98.3723 91.5756 98.3723 91.0198V90.6864C98.2935 90.8392 98.1776 90.9619 98.0246 91.0546C97.8716 91.1426 97.7024 91.1866 97.5169 91.1866C97.1739 91.1866 96.8911 91.0685 96.6685 90.8323C96.4506 90.5915 96.3417 90.2927 96.3417 89.9361C96.3417 89.5749 96.4506 89.2762 96.6685 89.04C96.8911 88.7992 97.1739 88.6788 97.5169 88.6788C97.86 88.6788 98.1382 88.82 98.3514 89.1025V88.7205H98.8939ZM97.6073 90.6933C97.8252 90.6933 98.0037 90.6192 98.1428 90.471C98.2819 90.3182 98.3514 90.1307 98.3514 89.9084C98.3514 89.6814 98.2796 89.4939 98.1359 89.3457C97.9968 89.1928 97.8183 89.1164 97.6004 89.1164C97.3825 89.1164 97.2063 89.1952 97.0719 89.3526C96.9421 89.5054 96.8772 89.6907 96.8772 89.9084C96.8772 90.1307 96.9444 90.3182 97.0788 90.471C97.2133 90.6192 97.3894 90.6933 97.6073 90.6933Z" fill="white"/>
<path d="M101.752 90.2487H99.7216C99.7355 90.434 99.8213 90.5845 99.9789 90.7003C100.137 90.8161 100.32 90.874 100.528 90.874C100.857 90.874 101.103 90.7721 101.265 90.5683L101.578 90.9087C101.3 91.2005 100.936 91.3463 100.487 91.3463C100.116 91.3463 99.8051 91.2236 99.5547 90.9782C99.3044 90.7327 99.1792 90.4085 99.1792 90.0056C99.1792 89.612 99.3067 89.2924 99.5617 89.047C99.8166 88.8015 100.125 88.6788 100.487 88.6788C100.848 88.6788 101.15 88.7876 101.391 89.0053C101.632 89.2229 101.752 89.5124 101.752 89.8736V90.2487ZM101.21 89.818C101.21 89.6096 101.143 89.4452 101.008 89.3248C100.878 89.2044 100.709 89.1442 100.5 89.1442C100.292 89.1442 100.109 89.2067 99.9511 89.3318C99.7981 89.4568 99.7216 89.6189 99.7216 89.818H101.21Z" fill="white"/>
<path d="M102.562 91.3047H102.019V88.7205H102.562V89.1859C102.65 89.0284 102.77 88.9057 102.923 88.8177C103.081 88.7251 103.248 88.6788 103.424 88.6788C103.725 88.6788 103.964 88.7691 104.14 88.9497C104.316 89.1303 104.405 89.3874 104.405 89.7208V91.3047H103.855V89.8875C103.855 89.4105 103.658 89.172 103.264 89.172C103.065 89.172 102.898 89.2368 102.763 89.3665C102.629 89.4916 102.562 89.6699 102.562 89.9014V91.3047Z" fill="white"/>
<path d="M105.367 91.3047H104.824V87.6993H105.367V89.1859C105.445 89.0284 105.564 88.9057 105.721 88.8177C105.879 88.7251 106.048 88.6788 106.229 88.6788C106.53 88.6788 106.769 88.7691 106.945 88.9497C107.121 89.1303 107.209 89.3874 107.209 89.7208V91.3047H106.66V89.8875C106.66 89.4105 106.463 89.172 106.069 89.172C105.87 89.172 105.703 89.2368 105.568 89.3665C105.434 89.4916 105.367 89.6699 105.367 89.9014V91.3047Z" fill="white"/>
<path d="M109.722 91.3047H109.229V90.9573C109.011 91.2167 108.723 91.3463 108.366 91.3463C108.093 91.3463 107.868 91.2699 107.692 91.1171C107.52 90.9596 107.434 90.7559 107.434 90.5058C107.434 90.2557 107.527 90.0658 107.713 89.9361C107.898 89.8065 108.153 89.7416 108.478 89.7416H109.187V89.6444C109.187 89.3017 108.994 89.1303 108.61 89.1303C108.369 89.1303 108.118 89.2183 107.859 89.3943L107.615 89.0539C107.935 88.8038 108.292 88.6788 108.686 88.6788C109.006 88.6788 109.259 88.7598 109.444 88.9219C109.63 89.0794 109.722 89.3179 109.722 89.6374V91.3047ZM109.18 90.1237H108.568C108.174 90.1237 107.977 90.2464 107.977 90.4919C107.977 90.6169 108.025 90.7142 108.123 90.7837C108.22 90.8485 108.357 90.8809 108.533 90.8809C108.714 90.8809 108.867 90.8323 108.992 90.735C109.117 90.6331 109.18 90.5012 109.18 90.3391V90.1237Z" fill="white"/>
<path d="M110.693 90.1932V91.3047H110.151V88.7205H110.693V89.2345C110.781 89.0724 110.9 88.9404 111.048 88.8386C111.201 88.7367 111.361 88.6834 111.528 88.6788L111.535 89.2276H111.507C111.243 89.2276 111.041 89.3132 110.902 89.4846C110.763 89.656 110.693 89.8921 110.693 90.1932Z" fill="white"/>
<path d="M112.286 91.3047H111.744V88.7205H112.286V91.3047ZM111.674 87.9563C111.674 87.8637 111.707 87.785 111.771 87.7201C111.841 87.6507 111.924 87.6159 112.022 87.6159C112.115 87.6159 112.193 87.6507 112.258 87.7201C112.328 87.785 112.363 87.8637 112.363 87.9563C112.363 88.0536 112.328 88.1369 112.258 88.2064C112.193 88.2712 112.115 88.3037 112.022 88.3037C111.924 88.3037 111.843 88.2689 111.778 88.1995C111.709 88.1346 111.674 88.0536 111.674 87.9563Z" fill="white"/>
<path d="M114.837 91.3047H114.343V90.9573C114.125 91.2167 113.838 91.3463 113.481 91.3463C113.207 91.3463 112.982 91.2699 112.806 91.1171C112.635 90.9596 112.549 90.7559 112.549 90.5058C112.549 90.2557 112.642 90.0658 112.827 89.9361C113.012 89.8065 113.267 89.7416 113.592 89.7416H114.301V89.6444C114.301 89.3017 114.109 89.1303 113.724 89.1303C113.483 89.1303 113.233 89.2183 112.973 89.3943L112.73 89.0539C113.05 88.8038 113.407 88.6788 113.801 88.6788C114.12 88.6788 114.373 88.7598 114.559 88.9219C114.744 89.0794 114.837 89.3179 114.837 89.6374V91.3047ZM114.294 90.1237H113.682C113.288 90.1237 113.091 90.2464 113.091 90.4919C113.091 90.6169 113.14 90.7142 113.237 90.7837C113.335 90.8485 113.471 90.8809 113.648 90.8809C113.828 90.8809 113.981 90.8323 114.107 90.735C114.232 90.6331 114.294 90.5012 114.294 90.3391V90.1237Z" fill="white"/>
<path d="M116.098 89.9987C116.098 89.6096 116.221 89.2924 116.467 89.047C116.713 88.8015 117.014 88.6788 117.371 88.6788C117.714 88.6788 117.99 88.8247 118.198 89.1164V87.6993H118.748V91.3047H118.198V90.9156C118.004 91.2028 117.712 91.3463 117.322 91.3463C116.984 91.3463 116.694 91.2213 116.453 90.9712C116.217 90.7165 116.098 90.3923 116.098 89.9987ZM117.44 90.8601C117.658 90.8601 117.841 90.7813 117.99 90.6239C118.138 90.4664 118.212 90.265 118.212 90.0195C118.212 89.7787 118.136 89.5749 117.983 89.4082C117.835 89.2415 117.651 89.1581 117.434 89.1581C117.216 89.1581 117.028 89.2415 116.87 89.4082C116.717 89.5703 116.641 89.7741 116.641 90.0195C116.641 90.265 116.72 90.4664 116.877 90.6239C117.035 90.7813 117.223 90.8601 117.44 90.8601Z" fill="white"/>
<path d="M121.601 90.2487H119.571C119.585 90.434 119.671 90.5845 119.828 90.7003C119.986 90.8161 120.169 90.874 120.378 90.874C120.707 90.874 120.952 90.7721 121.115 90.5683L121.428 90.9087C121.149 91.2005 120.785 91.3463 120.336 91.3463C119.965 91.3463 119.654 91.2236 119.404 90.9782C119.154 90.7327 119.028 90.4085 119.028 90.0056C119.028 89.612 119.156 89.2924 119.411 89.047C119.666 88.8015 119.974 88.6788 120.336 88.6788C120.697 88.6788 120.999 88.7876 121.24 89.0053C121.481 89.2229 121.601 89.5124 121.601 89.8736V90.2487ZM121.059 89.818C121.059 89.6096 120.992 89.4452 120.857 89.3248C120.728 89.2044 120.558 89.1442 120.35 89.1442C120.141 89.1442 119.958 89.2067 119.8 89.3318C119.647 89.4568 119.571 89.6189 119.571 89.818H121.059Z" fill="white"/>
<path d="M123.404 88.7621C123.404 88.9057 123.457 89.0099 123.564 89.0747C123.671 89.1535 123.898 89.2345 124.245 89.3179C124.612 89.4059 124.878 89.5263 125.045 89.6791C125.217 89.8319 125.302 90.0519 125.302 90.3391C125.302 90.6401 125.189 90.8832 124.962 91.0685C124.739 91.2537 124.447 91.3463 124.085 91.3463C123.562 91.3463 123.089 91.1611 122.667 90.7906L123.028 90.3599C123.381 90.6609 123.738 90.8114 124.099 90.8114C124.28 90.8114 124.426 90.7721 124.537 90.6933C124.649 90.61 124.704 90.5035 124.704 90.3738C124.704 90.2441 124.653 90.1422 124.551 90.0681C124.454 89.994 124.278 89.9269 124.023 89.8667C123.582 89.7648 123.276 89.6444 123.105 89.5054C122.906 89.3526 122.806 89.1188 122.806 88.8038C122.806 88.4982 122.917 88.2597 123.14 88.0883C123.362 87.9123 123.647 87.8243 123.995 87.8243C124.463 87.8243 124.864 87.961 125.198 88.2342L124.892 88.6649C124.79 88.5723 124.653 88.4982 124.482 88.4426C124.31 88.3824 124.141 88.3523 123.974 88.3523C123.803 88.3523 123.664 88.3893 123.557 88.4634C123.455 88.5329 123.404 88.6325 123.404 88.7621Z" fill="white"/>
<path d="M126.79 90.8601C127.027 90.8601 127.221 90.7813 127.374 90.6239C127.532 90.4664 127.611 90.2626 127.611 90.0126C127.611 89.7625 127.532 89.5587 127.374 89.4012C127.221 89.2438 127.027 89.1651 126.79 89.1651C126.554 89.1651 126.359 89.2438 126.206 89.4012C126.053 89.5587 125.976 89.7625 125.976 90.0126C125.976 90.2626 126.053 90.4641 126.206 90.6169C126.359 90.779 126.554 90.8601 126.79 90.8601ZM126.79 91.3463C126.401 91.3463 126.076 91.219 125.816 90.9643C125.557 90.7049 125.427 90.3877 125.427 90.0126C125.427 89.6374 125.557 89.3225 125.816 89.0678C126.076 88.8085 126.401 88.6788 126.79 88.6788C127.18 88.6788 127.504 88.8085 127.764 89.0678C128.023 89.3225 128.153 89.6374 128.153 90.0126C128.153 90.3738 128.023 90.6887 127.764 90.9573C127.504 91.2167 127.18 91.3463 126.79 91.3463Z" fill="white"/>
<path d="M129.1 88.7205H129.781V89.1581H129.1V91.3047H128.557V89.1581H128.231V88.7205H128.557V88.519C128.557 88.255 128.638 88.042 128.801 87.8799C128.963 87.7132 129.162 87.6298 129.399 87.6298C129.635 87.6298 129.846 87.7155 130.032 87.8869L129.809 88.2689C129.698 88.1578 129.587 88.1022 129.475 88.1022C129.359 88.1022 129.267 88.1393 129.197 88.2133C129.132 88.2828 129.1 88.3801 129.1 88.5051V88.7205Z" fill="white"/>
<path d="M130.64 89.1581V90.471C130.64 90.5961 130.672 90.6957 130.737 90.7698C130.807 90.8392 130.9 90.874 131.015 90.874C131.122 90.874 131.233 90.8161 131.349 90.7003L131.572 91.0893C131.377 91.2607 131.166 91.3463 130.939 91.3463C130.703 91.3463 130.503 91.2653 130.341 91.1032C130.179 90.9365 130.098 90.7211 130.098 90.4571V89.1581H129.771V88.7205H130.098V87.9077H130.64V88.7205H131.321V89.1581H130.64Z" fill="white"/>
<path d="M132.881 91.3047H132.255L131.365 88.7205H131.928L132.568 90.6725L133.214 88.7205H133.778L134.417 90.6725L135.064 88.7205H135.627L134.73 91.3047H134.105L133.493 89.5332L132.881 91.3047Z" fill="white"/>
<path d="M137.866 91.3047H137.373V90.9573C137.155 91.2167 136.867 91.3463 136.51 91.3463C136.237 91.3463 136.012 91.2699 135.836 91.1171C135.664 90.9596 135.578 90.7559 135.578 90.5058C135.578 90.2557 135.671 90.0658 135.857 89.9361C136.042 89.8065 136.297 89.7416 136.622 89.7416H137.331V89.6444C137.331 89.3017 137.139 89.1303 136.754 89.1303C136.513 89.1303 136.262 89.2183 136.003 89.3943L135.759 89.0539C136.079 88.8038 136.436 88.6788 136.83 88.6788C137.15 88.6788 137.403 88.7598 137.588 88.9219C137.774 89.0794 137.866 89.3179 137.866 89.6374V91.3047ZM137.324 90.1237H136.712C136.318 90.1237 136.121 90.2464 136.121 90.4919C136.121 90.6169 136.17 90.7142 136.267 90.7837C136.364 90.8485 136.501 90.8809 136.677 90.8809C136.858 90.8809 137.011 90.8323 137.136 90.735C137.261 90.6331 137.324 90.5012 137.324 90.3391V90.1237Z" fill="white"/>
<path d="M138.837 90.1932V91.3047H138.295V88.7205H138.837V89.2345C138.925 89.0724 139.044 88.9404 139.192 88.8386C139.345 88.7367 139.505 88.6834 139.672 88.6788L139.679 89.2276H139.651C139.387 89.2276 139.185 89.3132 139.046 89.4846C138.907 89.656 138.837 89.8921 138.837 90.1932Z" fill="white"/>
<path d="M142.294 90.2487H140.263C140.277 90.434 140.363 90.5845 140.521 90.7003C140.678 90.8161 140.861 90.874 141.07 90.874C141.399 90.874 141.645 90.7721 141.807 90.5683L142.12 90.9087C141.842 91.2005 141.478 91.3463 141.028 91.3463C140.657 91.3463 140.347 91.2236 140.096 90.9782C139.846 90.7327 139.721 90.4085 139.721 90.0056C139.721 89.612 139.848 89.2924 140.103 89.047C140.358 88.8015 140.667 88.6788 141.028 88.6788C141.39 88.6788 141.691 88.7876 141.932 89.0053C142.173 89.2229 142.294 89.5124 142.294 89.8736V90.2487ZM141.751 89.818C141.751 89.6096 141.684 89.4452 141.55 89.3248C141.42 89.2044 141.251 89.1442 141.042 89.1442C140.833 89.1442 140.65 89.2067 140.493 89.3318C140.34 89.4568 140.263 89.6189 140.263 89.818H141.751Z" fill="white"/>
<path d="M144.103 91.3047H143.561V88.7205H144.103V89.1859C144.191 89.0284 144.312 88.9057 144.465 88.8177C144.623 88.7251 144.789 88.6788 144.966 88.6788C145.267 88.6788 145.506 88.7691 145.682 88.9497C145.858 89.1303 145.946 89.3874 145.946 89.7208V91.3047H145.397V89.8875C145.397 89.4105 145.2 89.172 144.806 89.172C144.606 89.172 144.439 89.2368 144.305 89.3665C144.171 89.4916 144.103 89.6699 144.103 89.9014V91.3047Z" fill="white"/>
<path d="M147.555 90.8601C147.791 90.8601 147.986 90.7813 148.139 90.6239C148.297 90.4664 148.376 90.2626 148.376 90.0126C148.376 89.7625 148.297 89.5587 148.139 89.4012C147.986 89.2438 147.791 89.1651 147.555 89.1651C147.319 89.1651 147.124 89.2438 146.971 89.4012C146.818 89.5587 146.741 89.7625 146.741 90.0126C146.741 90.2626 146.818 90.4641 146.971 90.6169C147.124 90.779 147.319 90.8601 147.555 90.8601ZM147.555 91.3463C147.166 91.3463 146.841 91.219 146.581 90.9643C146.322 90.7049 146.192 90.3877 146.192 90.0126C146.192 89.6374 146.322 89.3225 146.581 89.0678C146.841 88.8085 147.166 88.6788 147.555 88.6788C147.944 88.6788 148.269 88.8085 148.529 89.0678C148.788 89.3225 148.918 89.6374 148.918 90.0126C148.918 90.3738 148.788 90.6887 148.529 90.9573C148.269 91.2167 147.944 91.3463 147.555 91.3463Z" fill="white"/>
<path d="M150.733 88.7621C150.733 88.9057 150.786 89.0099 150.892 89.0747C150.999 89.1535 151.226 89.2345 151.574 89.3179C151.94 89.4059 152.207 89.5263 152.374 89.6791C152.545 89.8319 152.631 90.0519 152.631 90.3391C152.631 90.6401 152.517 90.8832 152.29 91.0685C152.068 91.2537 151.776 91.3463 151.414 91.3463C150.89 91.3463 150.417 91.1611 149.995 90.7906L150.357 90.3599C150.709 90.6609 151.066 90.8114 151.428 90.8114C151.609 90.8114 151.755 90.7721 151.866 90.6933C151.977 90.61 152.033 90.5035 152.033 90.3738C152.033 90.2441 151.982 90.1422 151.88 90.0681C151.783 89.994 151.606 89.9269 151.351 89.8667C150.911 89.7648 150.605 89.6444 150.433 89.5054C150.234 89.3526 150.134 89.1188 150.134 88.8038C150.134 88.4982 150.246 88.2597 150.468 88.0883C150.691 87.9123 150.976 87.8243 151.324 87.8243C151.792 87.8243 152.193 87.961 152.527 88.2342L152.221 88.6649C152.119 88.5723 151.982 88.4982 151.81 88.4426C151.639 88.3824 151.47 88.3523 151.303 88.3523C151.131 88.3523 150.992 88.3893 150.885 88.4634C150.784 88.5329 150.733 88.6325 150.733 88.7621Z" fill="white"/>
<path d="M155.336 90.2487H153.305C153.319 90.434 153.405 90.5845 153.562 90.7003C153.72 90.8161 153.903 90.874 154.112 90.874C154.441 90.874 154.687 90.7721 154.849 90.5683L155.162 90.9087C154.884 91.2005 154.52 91.3463 154.07 91.3463C153.699 91.3463 153.388 91.2236 153.138 90.9782C152.888 90.7327 152.763 90.4085 152.763 90.0056C152.763 89.612 152.89 89.2924 153.145 89.047C153.4 88.8015 153.708 88.6788 154.07 88.6788C154.432 88.6788 154.733 88.7876 154.974 89.0053C155.215 89.2229 155.336 89.5124 155.336 89.8736V90.2487ZM154.793 89.818C154.793 89.6096 154.726 89.4452 154.592 89.3248C154.462 89.2044 154.293 89.1442 154.084 89.1442C153.875 89.1442 153.692 89.2067 153.535 89.3318C153.382 89.4568 153.305 89.6189 153.305 89.818H154.793Z" fill="white"/>
<path d="M156.145 90.1932V91.3047H155.603V88.7205H156.145V89.2345C156.233 89.0724 156.351 88.9404 156.5 88.8386C156.653 88.7367 156.813 88.6834 156.98 88.6788L156.987 89.2276H156.959C156.694 89.2276 156.493 89.3132 156.354 89.4846C156.215 89.656 156.145 89.8921 156.145 90.1932Z" fill="white"/>
<path d="M157.863 89.1581V90.471C157.863 90.5961 157.896 90.6957 157.96 90.7698C158.03 90.8392 158.123 90.874 158.239 90.874C158.345 90.874 158.457 90.8161 158.572 90.7003L158.795 91.0893C158.6 91.2607 158.389 91.3463 158.162 91.3463C157.926 91.3463 157.726 91.2653 157.564 91.1032C157.402 90.9365 157.321 90.7211 157.321 90.4571V89.1581H156.994V88.7205H157.321V87.9077H157.863V88.7205H158.545V89.1581H157.863Z" fill="white"/>
<path d="M160.987 91.3047H160.493V90.9573C160.275 91.2167 159.988 91.3463 159.631 91.3463C159.357 91.3463 159.133 91.2699 158.956 91.1171C158.785 90.9596 158.699 90.7559 158.699 90.5058C158.699 90.2557 158.792 90.0658 158.977 89.9361C159.163 89.8065 159.418 89.7416 159.742 89.7416H160.451V89.6444C160.451 89.3017 160.259 89.1303 159.874 89.1303C159.633 89.1303 159.383 89.2183 159.123 89.3943L158.88 89.0539C159.2 88.8038 159.557 88.6788 159.951 88.6788C160.271 88.6788 160.523 88.7598 160.709 88.9219C160.894 89.0794 160.987 89.3179 160.987 89.6374V91.3047ZM160.445 90.1237H159.833C159.439 90.1237 159.241 90.2464 159.241 90.4919C159.241 90.6169 159.29 90.7142 159.387 90.7837C159.485 90.8485 159.622 90.8809 159.798 90.8809C159.979 90.8809 160.132 90.8323 160.257 90.735C160.382 90.6331 160.445 90.5012 160.445 90.3391V90.1237ZM159.923 88.2828C159.761 88.2087 159.663 88.1717 159.631 88.1717C159.529 88.1717 159.473 88.2435 159.464 88.387H159.109C159.109 88.1971 159.146 88.0443 159.221 87.9285C159.299 87.8128 159.406 87.7549 159.54 87.7549C159.619 87.7549 159.74 87.7919 159.902 87.866C160.069 87.9447 160.171 87.9841 160.208 87.9841C160.305 87.9841 160.354 87.9123 160.354 87.7688H160.723C160.718 88.1902 160.567 88.4009 160.271 88.4009C160.197 88.4009 160.081 88.3615 159.923 88.2828Z" fill="white"/>
<path d="M162.605 90.8601C162.841 90.8601 163.036 90.7813 163.189 90.6239C163.346 90.4664 163.425 90.2626 163.425 90.0126C163.425 89.7625 163.346 89.5587 163.189 89.4012C163.036 89.2438 162.841 89.1651 162.605 89.1651C162.368 89.1651 162.173 89.2438 162.02 89.4012C161.867 89.5587 161.791 89.7625 161.791 90.0126C161.791 90.2626 161.867 90.4641 162.02 90.6169C162.173 90.779 162.368 90.8601 162.605 90.8601ZM162.605 91.3463C162.215 91.3463 161.891 91.219 161.631 90.9643C161.371 90.7049 161.242 90.3877 161.242 90.0126C161.242 89.6374 161.371 89.3225 161.631 89.0678C161.891 88.8085 162.215 88.6788 162.605 88.6788C162.994 88.6788 163.319 88.8085 163.578 89.0678C163.838 89.3225 163.968 89.6374 163.968 90.0126C163.968 90.3738 163.838 90.6887 163.578 90.9573C163.319 91.2167 162.994 91.3463 162.605 91.3463Z" fill="white"/>
<path d="M67.5282 71.7634V44.5877H72.1458V67.4287H84.552V71.7634H67.5282Z" fill="#FAFCFE"/>
<path d="M102.992 71.7634H99.042V68.9847C97.2989 71.0595 94.9994 72.0969 92.1435 72.0969C89.9553 72.0969 88.1565 71.4856 86.7471 70.2629C85.3748 69.0033 84.6887 67.3731 84.6887 65.3724C84.6887 63.3718 85.4305 61.8527 86.914 60.8154C88.3976 59.778 90.4374 59.2593 93.0337 59.2593H98.7082V58.4812C98.7082 55.7396 97.1691 54.3688 94.0907 54.3688C92.1621 54.3688 90.1593 55.0727 88.0823 56.4806L86.1351 53.7575C88.6943 51.7568 91.5501 50.7565 94.7026 50.7565C97.2618 50.7565 99.2831 51.4048 100.767 52.7015C102.25 53.9612 102.992 55.8693 102.992 58.4257V71.7634ZM98.6526 62.3158H93.7569C90.6043 62.3158 89.0281 63.2977 89.0281 65.2613C89.0281 66.2616 89.4175 67.0396 90.1964 67.5954C90.9752 68.1141 92.0694 68.3734 93.4787 68.3734C94.9252 68.3734 96.1491 67.9844 97.1505 67.2064C98.1519 66.3913 98.6526 65.3354 98.6526 64.0386V62.3158Z" fill="#FAFCFE"/>
<path d="M127.616 61.3155C127.616 64.4277 126.652 67.0026 124.723 69.0403C122.794 71.078 120.495 72.0969 117.825 72.0969C115.191 72.0969 112.836 70.9484 110.759 68.6513V79.3215H106.42V51.0899H110.759V54.7022C112.502 52.0717 114.746 50.7565 117.491 50.7565C120.347 50.7565 122.739 51.7383 124.667 53.7019C126.633 55.6655 127.616 58.2034 127.616 61.3155ZM116.823 68.2067C118.603 68.2067 120.105 67.5769 121.329 66.3172C122.59 65.0205 123.221 63.3903 123.221 61.4267C123.221 59.4631 122.59 57.8329 121.329 56.5362C120.105 55.2394 118.622 54.5911 116.879 54.5911C115.136 54.5911 113.671 55.2579 112.484 56.5917C111.297 57.8885 110.703 59.5001 110.703 61.4267C110.703 63.3903 111.297 65.0205 112.484 66.3172C113.671 67.5769 115.117 68.2067 116.823 68.2067Z" fill="#FAFCFE"/>
<path d="M149.11 63.3162H132.865C132.976 64.7982 133.662 66.0023 134.923 66.9285C136.184 67.8547 137.649 68.3178 139.318 68.3178C141.951 68.3178 143.917 67.5028 145.215 65.8726L147.719 68.5957C145.493 70.9298 142.582 72.0969 138.984 72.0969C136.017 72.0969 133.532 71.1151 131.529 69.1515C129.527 67.1878 128.525 64.5944 128.525 61.3711C128.525 58.2219 129.545 55.6655 131.585 53.7019C133.625 51.7383 136.091 50.7565 138.984 50.7565C141.877 50.7565 144.288 51.6271 146.217 53.3684C148.145 55.1098 149.11 57.4253 149.11 60.3152V63.3162ZM144.77 59.8706C144.77 58.2034 144.232 56.8881 143.157 55.9248C142.118 54.9616 140.765 54.4799 139.096 54.4799C137.427 54.4799 135.962 54.9801 134.701 55.9804C133.477 56.9807 132.865 58.2775 132.865 59.8706H144.77Z" fill="#FAFCFE"/>
<path d="M158.367 72.0969C155.029 72.0969 152.025 71.0595 149.354 68.9847L151.468 65.5947C153.842 67.4101 156.179 68.3178 158.478 68.3178C159.442 68.3178 160.203 68.0956 160.759 67.651C161.353 67.1693 161.649 66.5765 161.649 65.8726C161.649 64.8352 160.277 63.909 157.532 63.0939C157.458 63.0568 157.365 63.0198 157.254 62.9827C157.18 62.9457 157.124 62.9272 157.087 62.9272C152.785 61.7786 150.634 59.8335 150.634 57.0919C150.634 55.1653 151.357 53.6278 152.804 52.4792C154.287 51.3307 156.234 50.7565 158.645 50.7565C161.019 50.7565 163.281 51.4604 165.432 52.8683L163.819 56.0916C162.15 54.9801 160.314 54.4243 158.311 54.4243C155.975 54.4243 154.806 55.1653 154.806 56.6473C154.806 57.2771 155.029 57.7403 155.474 58.0367C155.956 58.296 156.735 58.5553 157.811 58.8147C159.442 59.2593 160.815 59.7039 161.927 60.1485C162.669 60.4819 163.318 60.8339 163.875 61.2044C165.284 62.1677 165.989 63.6311 165.989 65.5947C165.989 67.5213 165.265 69.0959 163.819 70.3185C162.41 71.5041 160.592 72.0969 158.367 72.0969Z" fill="#FAFCFE"/>
<path d="M175.378 72.0969C172.04 72.0969 169.036 71.0595 166.366 68.9847L168.48 65.5947C170.853 67.4101 173.19 68.3178 175.49 68.3178C176.454 68.3178 177.214 68.0956 177.77 67.651C178.364 67.1693 178.661 66.5765 178.661 65.8726C178.661 64.8352 177.288 63.909 174.544 63.0939C174.47 63.0568 174.377 63.0198 174.266 62.9827C174.191 62.9457 174.136 62.9272 174.099 62.9272C169.796 61.7786 167.645 59.8335 167.645 57.0919C167.645 55.1653 168.368 53.6278 169.815 52.4792C171.298 51.3307 173.246 50.7565 175.656 50.7565C178.03 50.7565 180.293 51.4604 182.444 52.8683L180.83 56.0916C179.161 54.9801 177.325 54.4243 175.323 54.4243C172.986 54.4243 171.818 55.1653 171.818 56.6473C171.818 57.2771 172.04 57.7403 172.485 58.0367C172.967 58.296 173.746 58.5553 174.822 58.8147C176.454 59.2593 177.826 59.7039 178.939 60.1485C179.681 60.4819 180.33 60.8339 180.886 61.2044C182.295 62.1677 183 63.6311 183 65.5947C183 67.5213 182.277 69.0959 180.83 70.3185C179.421 71.5041 177.604 72.0969 175.378 72.0969Z" fill="#FAFCFE"/>
<path d="M86.9213 14.4924C85.0919 11.4554 82.0048 10.2852 78.5915 11.0363C77.3335 11.3131 77.8663 13.2147 79.1234 12.9379C82.3934 12.2181 84.9495 14.0887 85.9784 17.1475C86.7608 19.4726 85.5822 21.8481 83.9785 23.5085C80.8398 26.7593 75.5547 27.0366 72.2168 23.9919C69.8854 21.8647 69.1024 18.379 69.8819 15.4097C70.7805 11.9848 73.9213 10.6696 77.2576 11.0995C78.5334 11.2638 78.5174 9.28965 77.2576 9.12708C66.6586 7.76137 64.7261 21.6331 72.4119 26.6266C77.3906 29.8616 84.0582 27.5635 87.0341 22.8141C88.6666 20.2082 88.4693 17.0646 86.9213 14.4924Z" fill="white"/>
<path d="M66.2874 21.8924C66.2128 21.3731 65.801 20.8474 65.1585 20.8474C65.0428 20.8474 64.9231 20.8648 64.8031 20.8996C63.2049 21.3549 61.7914 21.8411 60.4829 22.3856C59.8091 22.6657 59.6179 23.3255 59.7263 23.8551C59.8365 24.3933 60.2353 24.7556 60.719 24.7556H60.7194C60.8661 24.7556 61.019 24.7224 61.1734 24.6585C62.4643 24.121 63.8626 23.6404 65.4486 23.1882C66.1288 22.994 66.3603 22.3974 66.2874 21.8924Z" fill="white"/>
<path d="M61.5099 6.11312C63.3954 7.34486 65.4322 8.59254 68.1152 10.1587C68.3119 10.2736 68.5164 10.3316 68.7225 10.3319C69.2458 10.3319 69.7176 9.95017 69.8691 9.40388C70.0138 8.88301 69.8085 8.38684 69.3322 8.10919C66.6535 6.54525 64.6216 5.30068 62.7451 4.07422C62.5414 3.94126 62.3283 3.87342 62.1124 3.87342C61.6264 3.87342 61.1763 4.23624 61.0175 4.75634C60.8551 5.2884 61.0436 5.8085 61.5099 6.11312Z" fill="white"/>
<path d="M78.5514 29.6631C78.2101 29.6631 77.8947 29.789 77.6866 30.0084C77.4872 30.2191 77.3925 30.5024 77.4145 30.8272C77.5121 32.273 77.6104 33.7188 77.7144 35.1634C77.7687 35.91 78.3962 36.2999 78.9889 36.2999C79.3306 36.2999 79.6456 36.1736 79.8529 35.9542C80.0518 35.7435 80.1451 35.4602 80.1214 35.1355C80.0174 33.6904 79.9197 32.2458 79.8221 30.8C79.7717 30.0534 79.1446 29.6631 78.5514 29.6631Z" fill="white"/>
<path d="M69.7795 27.0907C69.3689 27.0907 69.0169 27.288 68.7874 27.6463C67.1224 30.2483 65.4269 32.8123 63.6922 35.4285C63.4521 35.7908 63.4259 36.183 63.618 36.5338C63.8331 36.9265 64.2933 37.1896 64.7638 37.1896H64.7642C65.1736 37.1896 65.5274 36.9959 65.7608 36.6439C67.4919 34.034 69.1844 31.4747 70.8592 28.8565C71.0937 28.4907 71.1145 28.0938 70.9178 27.7417C70.7003 27.3527 70.2421 27.0907 69.7795 27.0907Z" fill="white"/>
<path d="M85.9492 9.88924C86.3583 9.88924 86.7125 9.69769 86.9478 9.34987C87.5637 8.43875 88.1579 7.54045 88.6591 6.57027C88.8604 6.18056 88.8476 5.7677 88.6238 5.40784C88.3877 5.02824 87.9563 4.78299 87.5245 4.78299C87.1167 4.78299 86.7681 5.00492 86.5684 5.39206C86.0782 6.34033 85.4907 7.22892 84.8812 8.1308C84.6383 8.49043 84.609 8.88067 84.7991 9.23075C85.0124 9.6241 85.4746 9.88885 85.9492 9.88924Z" fill="white"/>
<path d="M93.8444 30.2543C92.0775 28.8672 90.5467 27.7813 89.0263 26.8358C88.8255 26.7104 88.6161 26.6472 88.4037 26.6472C87.9014 26.6472 87.4416 27.0185 87.2859 27.55C87.1314 28.0772 87.3279 28.5859 87.7985 28.8791C89.2457 29.7795 90.6776 30.7881 92.1756 31.9641C92.4061 32.1447 92.6759 32.2403 92.9555 32.2403H92.956C93.505 32.2403 94.0321 31.878 94.2086 31.3801C94.3571 30.9625 94.2239 30.553 93.8444 30.2543Z" fill="white"/>
<path d="M77.3206 7.7177C77.6636 7.7177 77.9763 7.59127 78.1781 7.37104C78.3718 7.15976 78.4562 6.87643 78.4227 6.55208C78.233 4.7188 78.1214 2.87363 78.0233 1.14114C77.9808 0.392035 77.3574 0 76.7638 0C76.4228 0 76.1065 0.125653 75.8961 0.345022C75.6946 0.555533 75.5974 0.838544 75.6154 1.16321C75.7139 2.90394 75.8261 4.75703 76.0162 6.59272C76.0924 7.33102 76.7302 7.7177 77.3206 7.7177Z" fill="white"/>
<path d="M93.6835 15.9305C92.9844 16.0221 90.9189 16.027 90.5119 16.0274C89.7427 16.0274 89.3402 16.625 89.3402 17.2154C89.3406 17.8049 89.7427 18.4025 90.5115 18.4025H90.5119C90.9238 18.4025 93.014 18.3968 93.7376 18.3023C94.4524 18.2085 94.9147 17.7431 94.9147 17.1163C94.9146 16.5298 94.3543 15.8392 93.6835 15.9305Z" fill="white"/>
<path d="M50.6603 32.5046C50.717 31.9494 51.2134 31.5449 51.7692 31.6015C52.3252 31.6581 52.7301 32.1543 52.6734 32.7096L52.4039 35.3487V35.6481L52.9267 37.2185C52.9273 37.2204 52.9277 37.2223 52.9283 37.2241C52.9973 37.3521 53.0407 37.4967 53.0485 37.6515V37.6535C53.0486 37.6549 53.0487 37.6573 53.0489 37.6601C53.0491 37.6657 53.0496 37.6741 53.0502 37.6851C53.0513 37.7072 53.053 37.74 53.0551 37.7831C53.0594 37.8694 53.0653 37.9969 53.0732 38.1618C53.0891 38.4917 53.1117 38.9716 53.1388 39.5723C53.1837 40.5692 53.241 41.8993 53.3005 43.4295H54.839C55.3977 43.4295 55.8508 43.882 55.8508 44.4402C55.8508 44.9984 55.3978 45.4509 54.839 45.451H53.3756C53.4177 46.6371 53.4589 47.8965 53.4952 49.1817H54.2642C54.823 49.1817 55.2761 49.6343 55.2761 50.1925C55.2761 50.7507 54.8231 51.2032 54.2642 51.2032H53.5469C53.5809 52.6594 53.607 54.117 53.619 55.5091H55.9878C56.5466 55.5091 56.9996 55.9617 56.9997 56.5199C56.9997 57.0781 56.5466 57.5306 55.9878 57.5306H53.6253C53.6182 59.2953 53.5586 61.1569 53.4695 62.9871H54.839C55.3977 62.9872 55.8508 63.4397 55.8508 63.9979C55.8508 64.5561 55.3978 65.0086 54.839 65.0086H53.3595C53.2653 66.5741 53.156 68.079 53.0465 69.4373C52.9017 71.235 52.7567 72.7811 52.648 73.8781C52.5937 74.4266 52.5484 74.8631 52.5166 75.1629C52.5007 75.3126 52.4883 75.4283 52.4797 75.5067C52.4754 75.5459 52.4721 75.576 52.4698 75.5962C52.4687 75.6063 52.4678 75.614 52.4672 75.6192C52.4669 75.6218 52.4667 75.6238 52.4665 75.6252C52.4664 75.6258 52.4665 75.6268 52.4665 75.6268L52.4662 75.6271C52.4202 76.0375 52.1291 76.379 51.7307 76.4892C46.9931 77.7996 43.5491 78.0761 36.8856 77.7286C36.8843 78.0641 36.883 78.4679 36.88 78.9236C36.8733 79.9327 36.8614 81.198 36.8412 82.5448H38.7535C39.3123 82.5448 39.7653 82.9974 39.7653 83.5555C39.7653 84.1137 39.3123 84.5663 38.7535 84.5663H36.8039C36.7681 86.2429 36.7175 87.9201 36.6439 89.2838C36.6029 90.043 36.5546 90.718 36.4963 91.2467C36.4673 91.5102 36.4343 91.7513 36.3958 91.9548C36.3631 92.1281 36.3093 92.3748 36.2038 92.5842C36.0168 92.9554 35.6864 93.146 35.5105 93.2344C35.299 93.3406 35.0593 93.4199 34.8251 93.4824C34.3519 93.6087 33.7514 93.705 33.0955 93.7789C31.7744 93.9277 30.0929 94 28.4461 94C26.8006 94 25.1516 93.9276 23.8979 93.7779C23.2793 93.704 22.7095 93.6061 22.2734 93.4716C22.0624 93.4065 21.8162 93.3134 21.6025 93.1695C21.4176 93.0451 21.0132 92.7135 21.0132 92.1298V78.814H19.7955C19.2367 78.814 18.7837 78.3615 18.7837 77.8033C18.7837 77.2451 19.2367 76.7925 19.7955 76.7925H21.0132V71.9115H18.6467C18.0879 71.9115 17.6349 71.4589 17.6349 70.9007C17.6349 70.3425 18.0879 69.89 18.6467 69.89H21.0132V66.2043C20.7027 66.2003 20.3305 66.1951 19.9111 66.1862C18.6405 66.1592 16.9305 66.1049 15.1807 65.9964C13.4372 65.8882 11.6268 65.7245 10.166 65.4735C9.43863 65.3486 8.76362 65.1963 8.21485 65.0057C7.94022 64.9103 7.67185 64.7968 7.4349 64.6576C7.20684 64.5235 6.94554 64.3295 6.75573 64.0469C6.57239 63.7739 6.47745 63.435 6.41813 63.1701C6.35169 62.8733 6.29992 62.5224 6.25838 62.1389C6.17506 61.3698 6.12465 60.3911 6.09732 59.2926C6.06701 58.0739 6.06527 56.6842 6.08151 55.2298H4.28446C3.72567 55.2298 3.27263 54.7773 3.27263 54.219C3.27264 53.6609 3.72568 53.2083 4.28446 53.2083H6.11445C6.12537 52.6861 6.13732 52.1618 6.15134 51.6402C6.17092 50.9112 6.19374 50.1861 6.21754 49.4775H3.71004C3.15122 49.4775 2.69821 49.025 2.69821 48.4668C2.69823 47.9086 3.15124 47.456 3.71004 47.456H6.29099C6.33537 46.3141 6.38075 45.2556 6.42274 44.3428C6.46793 43.3605 6.50863 42.5461 6.53802 41.9772C6.55271 41.6928 6.56472 41.4697 6.57293 41.3175C6.57423 41.2933 6.57511 41.2709 6.57623 41.2504L6.26201 40.2041L4.17643 39.4782C3.64872 39.2946 3.37005 38.7183 3.55392 38.1911C3.73777 37.664 4.31441 37.3857 4.84209 37.5693L7.41579 38.4649L7.47244 38.4866C7.75114 38.6027 7.96439 38.8379 8.05181 39.1288L8.55772 40.8134C8.57127 40.8585 8.58128 40.904 8.58835 40.9493C8.60361 41.0289 8.61087 41.1114 8.60614 41.1961V41.1971C8.60614 41.1971 8.60588 41.1985 8.60581 41.1997C8.60568 41.2021 8.60542 41.2057 8.60515 41.2105C8.60461 41.2203 8.60391 41.235 8.60285 41.2543C8.60072 41.293 8.59769 41.3507 8.59362 41.4261C8.58549 41.5768 8.57365 41.7986 8.55904 42.0815C8.52981 42.6472 8.48941 43.4576 8.44442 44.4356C8.35441 46.3923 8.24625 49.0175 8.17433 51.6945C8.15434 52.4388 8.13751 53.186 8.12427 53.9233C8.15292 54.0169 8.16873 54.1161 8.16873 54.219C8.16873 54.3333 8.14869 54.4427 8.11373 54.5451C8.08839 56.2387 8.0859 57.8586 8.12032 59.2422C8.1471 60.3189 8.19601 61.2337 8.27051 61.9214C8.30787 62.2663 8.34958 62.5347 8.39304 62.7288C8.4112 62.81 8.4273 62.865 8.43816 62.8996C8.44505 62.904 8.45228 62.9098 8.46122 62.9151C8.54551 62.9646 8.68077 63.0273 8.87952 63.0964C9.27767 63.2347 9.82947 63.3646 10.5089 63.4813C11.8618 63.7137 13.5868 63.8721 15.3062 63.9788C17.0193 64.0851 18.6999 64.1383 19.9543 64.165C20.5809 64.1784 21.1 64.1851 21.4618 64.1884C21.6426 64.19 21.7842 64.1909 21.8801 64.1913C21.9281 64.1916 21.9647 64.1916 21.9892 64.1917H22.0251C22.2934 64.1917 22.5507 64.2983 22.7404 64.4878C22.9302 64.6773 23.0369 64.9344 23.0369 65.2024V70.5375C23.0804 70.6503 23.1054 70.7726 23.1054 70.9007C23.1054 71.0287 23.0803 71.1507 23.0369 71.2633V77.44C23.0804 77.5529 23.1054 77.6751 23.1054 77.8033C23.1054 77.9313 23.0804 78.0534 23.0369 78.1662V91.5853C23.2987 91.6502 23.6679 91.7147 24.1383 91.7709C25.2834 91.9076 26.8452 91.9785 28.4461 91.9785C30.0459 91.9785 31.647 91.9075 32.8689 91.7699C33.4846 91.7005 33.971 91.6179 34.3027 91.5294C34.3478 91.5173 34.3873 91.5055 34.4219 91.4948C34.4423 91.3723 34.4638 91.2162 34.4848 91.0256C34.537 90.5518 34.583 89.9196 34.6232 89.1749C34.7034 87.6885 34.7575 85.8044 34.7935 83.9461C34.8294 82.0899 34.8474 80.2682 34.8564 78.9101C34.8609 78.2313 34.8631 77.6687 34.8643 77.2759C34.8648 77.0795 34.8651 76.9255 34.8653 76.8208V76.6609C34.8653 76.3826 34.9804 76.1165 35.1831 75.9256C35.3858 75.7347 35.6583 75.6355 35.9364 75.6518C42.8436 76.0571 46.174 75.8594 50.5275 74.719C50.5562 74.445 50.593 74.0947 50.6342 73.679C50.742 72.5917 50.8858 71.0581 51.0295 69.2751C51.3173 65.7038 51.6032 61.1517 51.6032 57.1816C51.6032 57.0873 51.6027 56.9925 51.6026 56.8973C51.5555 56.7806 51.5291 56.6534 51.5291 56.5199C51.5291 56.3893 51.5545 56.2647 51.5996 56.1501C51.5783 52.3752 51.4473 48.0085 51.3154 44.4718C51.2433 42.5414 51.1714 40.861 51.1174 39.6635C51.0904 39.0648 51.0676 38.5867 51.0519 38.2586C51.0455 38.1251 51.0401 38.0164 51.0361 37.9345C51.0252 37.9091 51.0153 37.8831 51.0064 37.8565L50.432 36.1308C50.3978 36.028 50.3803 35.9203 50.3803 35.812V35.298C50.3803 35.2638 50.3817 35.2295 50.3852 35.1954L50.6603 32.5046ZM34.8653 50.3067C34.8653 45.9889 35.0104 41.8181 35.1551 38.7291C35.2275 37.184 35.2997 35.908 35.354 35.0177C35.3812 34.5726 35.404 34.2238 35.4199 33.9859C35.4279 33.8669 35.4341 33.7755 35.4384 33.7138C35.4405 33.683 35.4422 33.6595 35.4433 33.6437C35.4434 33.6421 35.4435 33.6406 35.4436 33.6391V33.5111C35.4436 33.4803 35.4452 33.4497 35.4479 33.4197C35.4211 33.1245 35.4996 32.8422 35.5504 32.6803C35.6125 32.4823 35.6983 32.2704 35.7905 32.0644C35.9759 31.6501 36.222 31.1818 36.4594 30.7533C36.6988 30.321 36.9392 29.912 37.1188 29.6122C37.2088 29.462 37.2841 29.3384 37.3372 29.2519C37.3637 29.2088 37.3846 29.1747 37.3991 29.1513C37.4064 29.1395 37.412 29.1302 37.4159 29.124C37.4178 29.1208 37.4195 29.1184 37.4205 29.1167C37.421 29.1159 37.4218 29.1147 37.4218 29.1147L37.4222 29.1141L37.4225 29.1138C37.7183 28.6402 38.3423 28.4959 38.8164 28.7913C39.2904 29.0868 39.4352 29.7101 39.1395 30.1837L39.1385 30.185C39.1378 30.1862 39.1365 30.1884 39.1349 30.191C39.1317 30.1962 39.1266 30.2041 39.1201 30.2147C39.107 30.2358 39.0874 30.2675 39.0624 30.3081C39.0125 30.3895 38.9409 30.5072 38.8549 30.6506C38.6826 30.9382 38.4548 31.3261 38.2301 31.7318C38.0034 32.1411 37.7892 32.5519 37.6382 32.8893C37.5622 33.0591 37.5106 33.1914 37.4815 33.2844C37.4746 33.3063 37.4701 33.3233 37.467 33.3354C37.4668 33.3642 37.4655 33.3927 37.463 33.421C37.4656 33.4506 37.4673 33.4808 37.4673 33.5111V34.0863C37.4673 34.1904 37.4511 34.2908 37.4218 34.3853C37.4085 34.5907 37.3922 34.8439 37.3741 35.1408C37.3202 36.0229 37.2483 37.2895 37.1765 38.8238C37.0326 41.8937 36.8889 46.0307 36.8889 50.3067C36.8889 54.5823 37.0327 58.5754 37.1765 61.5006C37.2483 62.9627 37.3199 64.157 37.3737 64.9849C37.3942 65.2991 37.4122 65.5605 37.4264 65.7637C37.7337 65.8329 38.3125 65.9105 39.3401 65.9105C40.5639 65.9105 41.3055 65.8019 41.729 65.7006C41.7216 65.6141 41.713 65.5206 41.7047 65.4202C41.65 64.7603 41.5774 63.804 41.5047 62.6143C41.3595 60.2358 41.2142 56.9203 41.2142 53.1711C41.2142 49.4224 41.3593 45.9646 41.5044 43.4449C41.5769 42.1846 41.6495 41.1576 41.704 40.4449C41.7313 40.0886 41.7542 39.8107 41.7702 39.6214C41.7782 39.5267 41.7843 39.454 41.7886 39.4049C41.7908 39.3803 41.7928 39.3617 41.7939 39.3489C41.7945 39.3426 41.7949 39.3378 41.7952 39.3345C41.7954 39.3328 41.7955 39.3314 41.7956 39.3305V39.3292C41.7956 39.3292 41.7956 39.3291 41.8255 39.3318L41.7956 39.3292C41.8005 39.2758 41.8095 39.2234 41.8222 39.1729V37.7348C41.8222 37.4525 41.8636 36.4817 41.9026 35.6225C41.9225 35.1837 41.9427 34.7608 41.9576 34.4478C41.9651 34.2915 41.971 34.1624 41.9754 34.0724C41.9776 34.0275 41.9795 33.9921 41.9807 33.9681C41.9812 33.9562 41.9817 33.947 41.982 33.9408C41.9821 33.9377 41.9822 33.9352 41.9823 33.9336V33.9313C42.0096 33.3737 42.4844 32.9436 43.0426 32.9709C43.5832 32.9973 44.0041 33.4433 44.005 33.978L44.0037 34.03V34.0323C44.0036 34.0338 44.0035 34.0362 44.0033 34.0392C44.003 34.0453 44.0026 34.0544 44.002 34.0662C44.0009 34.09 43.9989 34.1251 43.9967 34.1698C43.9924 34.2594 43.9864 34.3883 43.979 34.5442C43.9641 34.8562 43.9441 35.2773 43.9243 35.7139C43.8838 36.6054 43.8459 37.5116 43.8459 37.7348V39.2509C43.8459 39.3411 43.8329 39.4282 43.8106 39.5115V39.5138C43.8106 39.5138 43.8104 39.5154 43.8103 39.5167C43.8101 39.5195 43.8098 39.5238 43.8093 39.5296C43.8083 39.5411 43.8068 39.5588 43.8047 39.5822C43.8006 39.629 43.7944 39.699 43.7866 39.7911C43.771 39.9755 43.7489 40.2484 43.722 40.5992C43.6684 41.3009 43.5965 42.315 43.5248 43.5611C43.3812 46.0544 43.2379 49.4718 43.2379 53.1711C43.2379 56.87 43.3811 60.1433 43.5244 62.4913C43.5961 63.6649 43.6678 64.6065 43.7214 65.2534C43.7482 65.5769 43.7704 65.8268 43.7859 65.995C43.7937 66.0791 43.7996 66.1429 43.8037 66.1852C43.8058 66.2064 43.8073 66.2222 43.8083 66.2326C43.8089 66.2378 43.8094 66.2417 43.8097 66.2441C43.8098 66.2453 43.81 66.2467 43.81 66.2467C43.8405 66.5497 43.7327 66.8507 43.5165 67.0653L42.8031 66.3484L43.4266 66.9762C43.5155 67.0662 43.5145 67.067 43.5145 67.067C43.5145 67.067 43.5135 67.0684 43.5129 67.069C43.5117 67.0701 43.5105 67.0711 43.5093 67.0723C43.5069 67.0746 43.5045 67.0771 43.502 67.0795C43.497 67.0843 43.4916 67.0891 43.4862 67.094C43.4755 67.1038 43.4641 67.1139 43.452 67.1242C43.4278 67.1448 43.4008 67.1663 43.3706 67.1884C43.3101 67.2326 43.2372 67.2793 43.1499 67.3266C42.9759 67.4208 42.7429 67.5186 42.4303 67.6072C41.8089 67.7835 40.8442 67.932 39.3401 67.932C37.8599 67.932 36.9832 67.7892 36.4413 67.574C36.1618 67.463 35.9104 67.3091 35.7243 67.0874C35.6292 66.9741 35.5559 66.8485 35.5079 66.7149C35.4842 66.6491 35.4676 66.5841 35.4571 66.5218C35.4519 66.4908 35.4483 66.4607 35.4459 66.4316C35.4458 66.4296 35.4454 66.4275 35.4453 66.4254V66.4247C35.4452 66.4237 35.4451 66.4221 35.445 66.4201C35.4447 66.4163 35.4442 66.4107 35.4436 66.4034C35.4425 66.3885 35.4408 66.3666 35.4387 66.3379C35.4344 66.2803 35.4282 66.1948 35.4202 66.0835C35.4043 65.861 35.3816 65.5344 35.3544 65.1159C35.3 64.2788 35.2275 63.0737 35.1551 61.5996C35.0103 58.6525 34.8653 54.6248 34.8653 50.3067ZM37.463 66.2701C37.4649 66.2944 37.4659 66.3191 37.466 66.3435C37.466 66.3427 37.466 66.3402 37.466 66.3385C37.4659 66.3352 37.466 66.3317 37.466 66.3283C37.4658 66.3217 37.4656 66.3149 37.4653 66.3083L37.463 66.2701ZM37.463 66.2694V66.2681C37.4629 66.2673 37.4628 66.2664 37.4627 66.2655C37.4628 66.2672 37.4629 66.2687 37.463 66.2694ZM45.7842 58.2456V43.5262C45.7052 43.344 45.6788 43.1369 45.7207 42.9274C45.7905 42.5788 45.8295 42.1312 45.8498 41.7459C45.8597 41.5585 45.8648 41.3955 45.8672 41.28C45.8685 41.2224 45.8689 41.1767 45.8692 41.1464C45.8694 41.1313 45.8695 41.12 45.8695 41.1128V41.1039C45.8695 41.0829 45.8702 41.0618 45.8715 41.0408L46.0402 38.3454C46.0751 37.7884 46.5556 37.365 47.1133 37.3998C47.6709 37.4347 48.0947 37.9147 48.0599 38.4718L47.8929 41.1372C47.8928 41.1454 47.893 41.1551 47.8929 41.1661C47.8925 41.2035 47.8916 41.2567 47.8902 41.3227C47.8874 41.4546 47.882 41.6392 47.8708 41.8518C47.8585 42.0851 47.8384 42.3655 47.8059 42.654C47.8071 42.674 47.8079 42.6942 47.8079 42.7145V58.2456C47.8079 58.8038 47.3549 59.2564 46.7961 59.2564C46.2373 59.2563 45.7842 58.8038 45.7842 58.2456ZM22.6739 29.8429C22.5668 29.296 22.9231 28.7653 23.4707 28.6571C24.0189 28.5488 24.5513 28.905 24.6597 29.4526L23.667 29.6487C24.656 29.4533 24.6597 29.4526 24.6597 29.4526V29.4533L24.66 29.4543L24.6604 29.4559C24.6606 29.4573 24.6607 29.4589 24.661 29.4605C24.6617 29.4639 24.6627 29.4682 24.6636 29.473C24.6654 29.4827 24.6675 29.4954 24.6702 29.5109C24.6757 29.5422 24.6828 29.5854 24.691 29.6402C24.7074 29.7498 24.7282 29.9063 24.7486 30.1087C24.7894 30.5135 24.8287 31.1019 24.8287 31.8673V33.5111C24.8286 33.645 24.8019 33.7726 24.7546 33.8895C24.7507 33.9331 24.7457 33.9899 24.7397 34.0586C24.7241 34.2373 24.7017 34.4977 24.6748 34.8226C24.621 35.4727 24.5493 36.3811 24.4775 37.414C24.3335 39.4867 24.1913 42.0359 24.1913 44.0043C24.1913 45.971 24.3331 48.376 24.4769 50.303C24.5486 51.2635 24.6204 52.0996 24.6742 52.6954C24.701 52.9931 24.7235 53.2308 24.7391 53.3935C24.7469 53.4749 24.753 53.5376 24.7572 53.5798C24.7593 53.6008 24.7607 53.6169 24.7618 53.6275C24.7623 53.6327 24.7629 53.6367 24.7631 53.6393C24.7632 53.6405 24.7631 53.6419 24.7631 53.6419L24.7634 53.6426C24.794 53.9456 24.6859 54.2462 24.4696 54.4609L23.7566 53.7439C24.4698 54.4609 24.469 54.4619 24.469 54.4619L24.4634 54.4675C24.4609 54.4699 24.4579 54.4724 24.4548 54.4754C24.4487 54.4813 24.4414 54.4884 24.4328 54.4964C24.4155 54.5124 24.3933 54.5325 24.3662 54.556C24.3122 54.6029 24.2386 54.6639 24.1449 54.7336C23.9576 54.8731 23.6895 55.0492 23.3409 55.2222C22.6403 55.5699 21.6214 55.9007 20.2935 55.9007C18.9635 55.9007 18.0428 55.5679 17.426 55.1597C17.1222 54.9587 16.9064 54.7483 16.7587 54.5724C16.6852 54.4849 16.6289 54.4065 16.5875 54.3424C16.5667 54.3104 16.5496 54.2817 16.5358 54.2575C16.5289 54.2455 16.5229 54.2345 16.5176 54.2246C16.515 54.2197 16.5123 54.2149 16.5101 54.2105C16.5089 54.2083 16.5078 54.2063 16.5068 54.2042C16.5063 54.2033 16.5059 54.2022 16.5054 54.2013L16.5045 54.1996C16.5051 54.1985 16.5335 54.1833 17.4076 53.7439C16.5207 54.1897 16.5038 54.1976 16.5031 54.197L16.5025 54.1954C16.502 54.1944 16.5013 54.1934 16.5008 54.1924C16.4999 54.1904 16.4989 54.1883 16.4979 54.1861C16.4958 54.1819 16.4935 54.1774 16.4913 54.1727C16.4867 54.163 16.4818 54.152 16.4765 54.1401C16.4659 54.1163 16.4537 54.0878 16.4406 54.0542C16.4142 53.987 16.3832 53.8986 16.349 53.7854C16.2807 53.5594 16.1995 53.2306 16.1214 52.7654C15.9655 51.8367 15.8187 50.346 15.8187 48.0147C15.8187 45.6806 15.9656 43.9196 16.1151 42.7323C16.1899 42.1387 16.2654 41.6885 16.3233 41.382C16.3356 41.3167 16.3473 41.2579 16.3579 41.2056V39.2509C16.3579 39.1994 16.3619 39.1481 16.3697 39.0972L16.707 36.9073C16.792 36.3556 17.3085 35.9772 17.8608 36.062C18.4131 36.1469 18.7919 36.6629 18.707 37.2146L18.3815 39.3276V40.8677C18.4276 41.0317 18.4337 41.2093 18.3891 41.3862C18.3886 41.3884 18.3876 41.3926 18.3862 41.3987C18.3831 41.4118 18.3778 41.4337 18.371 41.4645C18.3574 41.5263 18.3369 41.6237 18.3117 41.7567C18.2614 42.0231 18.1925 42.4324 18.123 42.9846C17.9839 44.0889 17.8424 45.7656 17.8424 48.0147C17.8424 50.2667 17.9844 51.6411 18.1171 52.4311C18.1832 52.8252 18.2461 53.0694 18.286 53.2014C18.2953 53.2322 18.3043 53.2564 18.3107 53.2751C18.3441 53.3145 18.4163 53.3902 18.5436 53.4745C18.7926 53.6392 19.315 53.8792 20.2935 53.8792C21.2742 53.8792 21.987 53.6368 22.4407 53.4116C22.537 53.3639 22.6216 53.3161 22.6953 53.2718C22.6845 53.1555 22.672 53.0234 22.6588 52.877C22.6043 52.2732 22.5314 51.4264 22.4588 50.4534C22.3141 48.5133 22.1677 46.048 22.1677 44.0043C22.1677 41.9622 22.3139 39.3551 22.4585 37.2741C22.531 36.2303 22.6037 35.3126 22.6581 34.6558C22.6853 34.3273 22.7081 34.0638 22.724 33.8823C22.7319 33.7915 22.7381 33.7211 22.7424 33.6733C22.7446 33.6494 22.7462 33.6311 22.7474 33.6187C22.7479 33.6126 22.7481 33.6077 22.7484 33.6046C22.7485 33.603 22.7486 33.6018 22.7487 33.6009L22.749 33.6C22.757 33.5129 22.7768 33.4295 22.805 33.3509V31.8673C22.805 31.171 22.7693 30.6501 22.7352 30.3111C22.7181 30.1415 22.7014 30.0172 22.6897 29.9393C22.6839 29.9005 22.6793 29.8731 22.6765 29.8573C22.6753 29.8501 22.6743 29.8452 22.6739 29.8429ZM10.7408 53.0685V44.4402C10.7408 44.2983 10.7703 44.1633 10.8231 44.0408C10.7788 43.8616 10.782 43.6685 10.8445 43.4805L11.3347 42.0074L10.9397 40.1291C10.8249 39.5828 11.1752 39.0469 11.722 38.9321C12.2688 38.8173 12.8053 39.1672 12.9202 39.7135L13.3715 41.8587C13.4083 42.0338 13.398 42.2157 13.3415 42.3855L12.7648 44.1181C12.7557 44.1455 12.745 44.172 12.7338 44.1981C12.753 44.2757 12.7644 44.3566 12.7645 44.4402V53.0685C12.7645 53.6267 12.3114 54.0792 11.7526 54.0792C11.1939 54.0791 10.7408 53.6266 10.7408 53.0685ZM27.9755 53.0685V36.3871C27.9755 36.1353 28.068 35.9054 28.2205 35.7284C28.4362 35.0696 28.6977 34.421 28.9106 33.925C29.0323 33.6413 29.1403 33.4026 29.2182 33.2341C29.2276 33.2138 29.2367 33.1944 29.2452 33.1762V31.1649C29.2452 30.6066 29.6982 30.1541 30.257 30.1541C30.8158 30.1542 31.2689 30.6067 31.2689 31.1649V33.4029C31.2689 33.5559 31.2337 33.7068 31.1667 33.8444V33.8451C31.1667 33.8451 31.1663 33.8463 31.1658 33.8474C31.1647 33.8496 31.1628 33.8531 31.1605 33.8579C31.1557 33.8678 31.1484 33.8831 31.1388 33.9033C31.1195 33.9438 31.0912 34.0044 31.0554 34.0816C30.9839 34.2364 30.8836 34.4579 30.7705 34.7216C30.5423 35.2535 30.2697 35.938 30.0713 36.5865C30.0525 36.6479 30.0279 36.706 29.9991 36.7609V53.0685C29.9991 53.6267 29.5461 54.0792 28.9873 54.0792C28.4285 54.0792 27.9755 53.6267 27.9755 53.0685ZM22.6742 29.8435V29.8442L22.6739 29.8429L22.6742 29.8435Z" fill="white"/>
<path d="M3.03548 37.9032C3.03548 37.438 2.65798 37.0609 2.19229 37.0609C1.72661 37.0609 1.3491 37.438 1.3491 37.9032C1.3491 38.3684 1.72661 38.7455 2.19229 38.7455V40.0932C0.981524 40.0932 0 39.1127 0 37.9032C0 36.6937 0.981524 35.7133 2.19229 35.7133C3.40307 35.7133 4.38459 36.6937 4.38459 37.9032C4.38459 39.1127 3.40307 40.0932 2.19229 40.0932V38.7455C2.65798 38.7455 3.03548 38.3684 3.03548 37.9032ZM11.8047 37.9032C11.8047 37.438 11.4272 37.0609 10.9615 37.0609C10.4958 37.0609 10.1183 37.438 10.1183 37.9032C10.1183 38.3684 10.4958 38.7455 10.9615 38.7455V40.0932C9.7507 40.0932 8.76918 39.1127 8.76918 37.9032C8.76918 36.6937 9.7507 35.7133 10.9615 35.7133C12.1722 35.7133 13.1538 36.6937 13.1538 37.9032C13.1538 39.1127 12.1722 40.0932 10.9615 40.0932V38.7455C11.4272 38.7455 11.8047 38.3684 11.8047 37.9032ZM47.5559 36.2186C47.5559 35.7535 47.1784 35.3763 46.7127 35.3763C46.2471 35.3763 45.8695 35.7535 45.8695 36.2186C45.8695 36.6838 46.2471 37.0609 46.7127 37.0609V38.4086C45.502 38.4086 44.5204 37.4281 44.5204 36.2186C44.5204 35.0092 45.502 34.0287 46.7127 34.0287C47.9235 34.0287 48.905 35.0092 48.905 36.2186C48.905 37.4281 47.9235 38.4086 46.7127 38.4086V37.0609C47.1784 37.0609 47.5559 36.6838 47.5559 36.2186ZM19.2247 34.871C19.2247 34.4058 18.8472 34.0287 18.3815 34.0287C17.9159 34.0287 17.5384 34.4058 17.5384 34.871C17.5384 35.3362 17.9159 35.7133 18.3815 35.7133V37.0609C17.1708 37.0609 16.1893 36.0805 16.1893 34.871C16.1893 33.6615 17.1708 32.681 18.3815 32.681C19.5923 32.681 20.5738 33.6615 20.5738 34.871C20.5738 36.0805 19.5923 37.0609 18.3815 37.0609V35.7133C18.8472 35.7133 19.2247 35.3362 19.2247 34.871ZM44.5204 31.8387C44.5204 31.3735 44.1429 30.9964 43.6773 30.9964C43.2116 30.9964 42.8341 31.3735 42.8341 31.8387C42.8341 32.3039 43.2116 32.681 43.6773 32.681V34.0287C42.4665 34.0287 41.485 33.0482 41.485 31.8387C41.485 30.6292 42.4665 29.6487 43.6773 29.6487C44.888 29.6487 45.8695 30.6292 45.8695 31.8387C45.8695 33.0482 44.888 34.0287 43.6773 34.0287V32.681C44.1429 32.681 44.5204 32.3039 44.5204 31.8387ZM53.2896 30.491C53.2896 30.0259 52.9121 29.6487 52.4464 29.6487C51.9808 29.6487 51.6032 30.0259 51.6032 30.491C51.6032 30.9562 51.9808 31.3333 52.4464 31.3333V32.681C51.2357 32.681 50.2541 31.7005 50.2541 30.491C50.2541 29.2816 51.2357 28.3011 52.4464 28.3011C53.6572 28.3011 54.6387 29.2816 54.6387 30.491C54.6387 31.7005 53.6572 32.681 52.4464 32.681V31.3333C52.9121 31.3333 53.2896 30.9562 53.2896 30.491ZM31.0294 28.8064C31.0294 28.3413 30.6519 27.9642 30.1862 27.9642C29.7205 27.9642 29.343 28.3413 29.343 28.8064C29.343 29.2716 29.7205 29.6487 30.1862 29.6487V30.9964C28.9754 30.9964 27.9939 30.0159 27.9939 28.8064C27.9939 27.597 28.9754 26.6165 30.1862 26.6165C31.397 26.6165 32.3785 27.597 32.3785 28.8064C32.3785 30.0159 31.397 30.9964 30.1862 30.9964V29.6487C30.6519 29.6487 31.0294 29.2716 31.0294 28.8064ZM23.9466 27.4588C23.9466 27.0859 23.5895 26.6165 22.9348 26.6165C22.2801 26.6165 21.9229 27.0859 21.9229 27.4588C21.9229 27.8317 22.2801 28.3011 22.9348 28.3011V29.6487C21.6309 29.6487 20.5738 28.6683 20.5738 27.4588C20.5738 26.2493 21.6309 25.2688 22.9348 25.2688C24.2387 25.2688 25.2957 26.2493 25.2957 27.4588C25.2957 28.6683 24.2387 29.6487 22.9348 29.6487V28.3011C23.5895 28.3011 23.9466 27.8317 23.9466 27.4588ZM40.1359 27.4588C40.1359 26.9936 39.7583 26.6165 39.2927 26.6165C38.827 26.6165 38.4495 26.9936 38.4495 27.4588C38.4495 27.924 38.827 28.3011 39.2927 28.3011V29.6487C38.0819 29.6487 37.1004 28.6683 37.1004 27.4588C37.1004 26.2493 38.0819 25.2688 39.2927 25.2688C40.5034 25.2688 41.485 26.2493 41.485 27.4588C41.485 28.6683 40.5034 29.6487 39.2927 29.6487V28.3011C39.7583 28.3011 40.1359 27.924 40.1359 27.4588Z" fill="white"/>
<path d="M36.4644 86.5885C44.178 86.8816 50.3785 87.8314 56.4256 90.7302C56.9293 90.9717 57.1419 91.5756 56.9002 92.0788C56.6584 92.5821 56.0539 92.7944 55.5501 92.553C49.8627 89.8265 43.9794 88.8972 36.3873 88.6087C35.8289 88.5874 35.3934 88.1179 35.4146 87.5601C35.4359 87.0023 35.906 86.5672 36.4644 86.5885ZM20.8726 85.9146C21.431 85.8934 21.901 86.3284 21.9223 86.8862C21.9435 87.444 21.508 87.9136 20.9497 87.9348C13.3575 88.2233 7.47421 89.1527 1.78684 91.8791C1.28305 92.1206 0.678507 91.9082 0.436746 91.405C0.195034 90.9017 0.40759 90.2979 0.91137 90.0564C6.95839 87.1575 13.1589 86.2078 20.8726 85.9146Z" fill="white"/>
</svg>
