<svg width="708" height="535" viewBox="0 0 708 535" fill="none" xmlns="http://www.w3.org/2000/svg">
<path d="M120.657 367.269L102.065 367.666L92.6347 367.822C89.4911 367.893 86.3193 367.822 83.1616 367.893H82.5244V367.255L82.4536 351.408V350.7H83.1616L101.909 350.785C108.154 350.785 114.399 350.941 120.657 351.012H121.04V351.394C121.04 354.085 120.912 356.747 120.856 359.396L120.657 367.269ZM120.657 367.269L120.459 359.254C120.459 356.62 120.289 354.014 120.261 351.423L120.657 351.805C114.399 351.876 108.154 352.031 101.909 352.031L83.1616 352.131L83.8696 351.423L83.7847 367.269L83.1616 366.632C86.2485 366.632 89.3212 366.632 92.4222 366.717L101.74 366.873L120.657 367.269Z" fill="#EBEBEB"/>
<path d="M99.7427 387.252L81.1507 387.719L71.7201 387.875C68.5624 387.945 65.4047 387.875 62.2471 387.945H61.6099V387.308V371.461V370.725H62.3037H80.9949C87.2395 370.725 93.484 370.881 99.7427 370.951H100.125V371.334C100.125 374.025 99.9976 376.687 99.941 379.335L99.7427 387.252ZM99.7427 387.252L99.5303 379.222C99.5303 376.588 99.3746 373.982 99.3463 371.39L99.7427 371.773C93.484 371.844 87.2395 371.999 80.9949 371.999L62.3037 372.141L62.9975 371.433L62.9267 387.28L62.3037 386.643C65.3906 386.643 68.4633 386.643 71.5643 386.728L80.8816 386.883L99.7427 387.252Z" fill="#EBEBEB"/>
<path d="M141.571 371.405H104.076V387.251H141.571V371.405Z" fill="#EBEBEB"/>
<path d="M624.838 371.405H587.342V387.251H624.838V371.405Z" fill="#EBEBEB"/>
<path d="M308.291 328.636H345.787V312.79H308.291V328.636Z" fill="#EBEBEB"/>
<path d="M329.206 292.836L347.783 292.439L357.228 292.283C360.372 292.283 363.544 292.283 366.701 292.283H367.324V292.836L367.395 308.683V309.391H366.744L347.996 309.306C341.751 309.306 335.493 309.136 329.248 309.065H328.852V308.683C328.852 305.992 328.965 303.315 329.036 300.681L329.206 292.836ZM329.206 292.836L329.404 300.837C329.475 303.485 329.56 306.091 329.588 308.683L329.206 308.3C335.45 308.3 341.709 308.074 347.953 308.06L366.701 307.975L365.993 308.683V292.836L366.63 293.473C363.544 293.473 360.457 293.473 357.356 293.388L348.053 293.232L329.206 292.836Z" fill="#EBEBEB"/>
<path d="M480.675 430.416H646.007L651.332 325.493H475.351L480.675 430.416Z" fill="#EBEBEB"/>
<path d="M633.957 373.557H488.222L486.211 337.006H636.307L633.957 373.557ZM489.525 372.141H632.541L634.707 338.422H487.712L489.525 372.141Z" fill="#DBDBDB"/>
<path d="M631.975 415.49H492.414L490.771 382.479H634.042L631.975 415.49ZM493.759 414.074H630.658L632.541 383.895H492.258L493.759 414.074Z" fill="#DBDBDB"/>
<path d="M577.883 359.396H546.916L545.769 350.488H579.045L577.883 359.396ZM548.147 357.979H576.637L577.416 351.904H547.369L548.147 357.979Z" fill="#DBDBDB"/>
<path d="M577.883 403.438H546.916L545.769 394.531H579.045L577.883 403.438ZM548.147 402.022H576.637L577.416 395.947H547.369L548.147 402.022Z" fill="#DBDBDB"/>
<path d="M503.6 430.416L502 441.845L498.771 464.815H492.456V430.416H503.6Z" fill="#EBEBEB"/>
<path d="M503.6 430.416L502 441.845H492.456V430.416H503.6Z" fill="#DBDBDB"/>
<path d="M623.082 430.416L624.696 441.845L627.925 464.815H634.226V430.416H623.082Z" fill="#EBEBEB"/>
<path d="M623.082 430.416L624.696 441.845H634.226V430.416H623.082Z" fill="#DBDBDB"/>
<path d="M651.331 464.815L577.006 465.155L502.666 465.282L354 465.523L205.334 465.282L131.008 465.169L56.668 464.815L131.008 464.461L205.334 464.347L354 464.107L502.666 464.347L577.006 464.475L651.331 464.815Z" fill="#263238"/>
<path d="M118.392 463.894L361.293 464.928C420.326 418.563 426.429 349.879 384.303 308.244C358.815 283.05 326.445 288.134 295.618 284.169H295.534C284.8 282.753 274.294 280.274 264.268 274.992C232.536 258.253 214.708 218.756 187.946 185.519C184.614 181.355 181.125 177.314 177.482 173.396C155.534 149.959 111.822 149.194 88.9674 182.162C30.8973 265.929 57.4898 390.551 118.392 463.894Z" fill="#FF8567"/>
<path opacity="0.1" d="M112.997 272.245C119.355 371.914 234.447 409.117 306.324 379.264C368.826 353.292 348.365 294.039 295.619 284.126H295.534C284.8 282.71 274.294 280.232 264.268 274.95C232.536 258.21 214.708 218.714 187.946 185.476C148.171 164.8 108.324 199.27 112.997 272.245Z" fill="black"/>
<path d="M331.259 479.585C327.507 478.169 242.858 410.547 241.258 405.945C240.649 404.189 249.754 391.288 261.252 376.007C263.744 372.707 266.322 369.323 268.955 365.896C286.061 343.605 304.738 320.352 304.738 320.352L361.491 365.443L324.151 409.74L315.966 419.469C315.966 419.469 336.782 459.872 337.999 465.126C339.217 470.38 334.998 480.959 331.259 479.585Z" fill="#EB9481"/>
<path d="M331.245 479.585C327.507 478.169 242.858 410.562 241.258 405.945C240.763 404.529 246.71 395.706 255.121 384.263C267.44 398.977 310.345 442.779 322.069 448.642C329.503 452.367 328.031 445.059 325.255 437.78C330.919 449.209 337.334 462.294 337.999 465.126C339.175 470.366 335.012 480.959 331.245 479.585Z" fill="#263238"/>
<path d="M418.811 278.674C414.931 308.159 342.262 393.298 333.851 403.056L331.939 405.279L271.872 359.126L272.552 358.234L325.496 288.913C325.496 288.913 237.888 339.994 194.134 316.811C174.48 306.403 159.895 287.893 159.895 287.893L217.045 257.432C217.045 257.432 232.861 262.544 242.972 261.071C277.819 255.959 355.898 226.318 374.419 227.083C398.321 228.032 422.379 251.654 418.811 278.674Z" fill="#263238"/>
<path d="M333.369 307.252C328.061 304.37 322.434 302.118 316.604 300.54L316.873 300.171C327.026 303.315 337.815 307.153 344.287 316.089C347.26 320.224 349.115 325.719 347.94 330.817C347.411 333.185 345.999 335.261 343.991 336.622C341.982 337.983 339.53 338.526 337.136 338.139C323.684 336.638 321.333 319.842 310.827 313.781C309.793 313.157 308.678 312.681 307.513 312.365L307.782 312.011C309.952 312.675 311.968 313.762 313.715 315.211C318.756 319.332 321.489 325.337 325.468 330.35C329.447 335.363 335.691 339.47 342.078 337.105C349.158 334.513 348.62 325.337 345.943 319.715C343.267 314.092 338.509 310.255 333.369 307.252ZM321.248 383.541C319.851 385.164 318.921 387.135 318.557 389.245C318.193 391.355 318.409 393.525 319.181 395.522L319.804 395.989C319.575 395.414 319.391 394.822 319.252 394.219C317.439 387.053 322.084 381.544 328.866 379.958C335.295 378.457 341.823 380.072 348.322 379.477C350.621 379.31 352.871 378.729 354.963 377.763L355.572 377.013C349.526 380.426 342.191 378.825 335.635 378.825C330.622 378.825 324.817 379.661 321.248 383.541ZM292.928 331.525C295.845 341.226 305.318 348.788 314.551 351.918C320.169 353.799 326.161 354.285 332.01 353.334C339.09 352.216 346.722 349.341 353.745 352.003C360.769 354.666 363.431 363.332 361.208 370.017L361.859 369.181C362.58 366.358 362.555 363.396 361.788 360.585C361.277 358.564 360.29 356.693 358.911 355.129C357.532 353.565 355.8 352.353 353.859 351.592C347.515 349.185 340.548 351.309 334.176 352.513C327.509 353.941 320.58 353.535 314.126 351.338C307.872 349.146 302.348 345.264 298.167 340.122C295.981 337.436 294.324 334.361 293.282 331.058L292.928 331.525ZM283.951 368.445L284.277 368.7C284.767 367.219 285.354 365.771 286.032 364.366C288.27 359.863 292.829 356.422 298.04 358.291C303.888 360.359 307.456 367.354 307.612 373.231C307.604 377.302 306.994 381.349 305.8 385.241L306.154 385.51C307.166 381.999 307.802 378.391 308.051 374.747C308.168 372.155 307.743 369.567 306.805 367.148C305.866 364.73 304.434 362.533 302.6 360.698C299.385 357.583 294.826 356.252 290.719 358.461C287.293 360.274 285.523 363.941 284.277 367.453C284.163 367.765 284.05 368.105 283.951 368.445ZM393.224 237.605C394.404 236.472 395.775 235.556 397.273 234.9L396.849 234.617C396.531 234.75 396.223 234.907 395.928 235.085C393.569 236.355 391.659 238.321 390.456 240.715C389.252 243.11 388.815 245.816 389.202 248.467C390.009 255.01 393.974 260.83 393.45 267.6C393.44 269.222 393.003 270.813 392.183 272.213C391.363 273.613 390.188 274.771 388.777 275.573C387.163 276.244 385.403 276.489 383.667 276.283C381.931 276.077 380.278 275.428 378.865 274.397C372.734 270.149 371.46 261.17 371.318 254.33C371.241 250.325 371.679 246.327 372.621 242.434C373.428 239.106 374.745 235.906 375.311 232.521C375.623 230.751 375.623 228.939 375.311 227.168H374.943C375.609 230.978 374.405 234.773 373.315 238.384C371.101 245.209 370.401 252.433 371.261 259.556C372.012 265.221 373.867 271.862 379.078 275.134C383.142 277.64 388.82 277.669 391.822 273.604C394.824 269.54 394.017 263.493 392.544 258.919C390.349 251.767 386.937 243.582 393.224 237.605ZM391.057 330.477C391.284 330.18 391.496 329.868 391.694 329.585C393.011 322.717 393.11 315.268 398.774 310.679C400.843 309.079 403.322 308.097 405.925 307.847C406.038 307.663 406.166 307.479 406.265 307.281C404.139 307.501 402.081 308.156 400.219 309.207C392.572 313.498 392.841 322.575 391.057 330.407V330.477ZM363.289 335.321C366.617 341.637 375.042 345.347 381.853 343.223L382.391 342.486C379.481 343.543 376.308 343.632 373.343 342.741C370.505 341.96 367.941 340.403 365.939 338.244C363.938 336.084 362.579 333.409 362.015 330.52C361.448 327.292 361.557 323.982 362.334 320.799C363.112 317.615 364.541 314.628 366.532 312.025C370.653 306.488 376.699 302.721 382.986 300.101C393.847 295.583 407.058 295.045 416.361 287.355L416.757 286.293C414.836 288.022 412.688 289.48 410.371 290.627C403.929 293.841 396.764 295.102 389.896 297.141C383.815 298.801 378.067 301.498 372.904 305.114C363.912 311.784 357.639 324.473 363.289 335.321ZM313.135 242.392L312.738 242.534C314.152 244.033 315.388 245.692 316.42 247.476C323.401 259.386 322.466 274.142 329.164 286.208C331.797 290.924 335.607 295.215 340.747 297.198C342.957 298.089 345.323 298.53 347.706 298.494C350.09 298.457 352.441 297.944 354.623 296.985C356.793 295.936 358.614 294.284 359.869 292.227C361.125 290.171 361.762 287.796 361.703 285.387C361.703 279.934 358.871 274.666 355.275 270.701C350.786 265.73 344.895 262.303 339.855 257.956C334.372 253.503 330.55 247.331 329.008 240.438C328.838 239.545 328.696 238.653 328.611 237.747L328.229 237.86C328.597 241.47 329.644 244.978 331.316 248.198C334.148 253.863 338.877 257.941 343.833 261.708C349.186 265.801 354.907 269.738 358.319 275.686C361.533 281.351 362.808 288.899 357.979 294.096C354.085 298.231 347.643 298.869 342.403 297.367C336.244 295.611 331.826 290.612 328.965 285.061C322.749 272.939 323.641 258.225 316.335 246.598C315.423 245.071 314.35 243.647 313.135 242.349V242.392ZM280.255 264.357C280.828 270.435 282.681 276.323 285.693 281.634C288.85 286.874 293.406 291.131 298.847 293.926C301.904 295.513 305.081 296.858 308.349 297.948L308.887 297.679C304.589 296.304 300.461 294.446 296.582 292.142C290.717 288.466 286.185 283.006 283.653 276.564C280.426 268.753 279.641 260.147 281.402 251.88L280.977 252.008C280.078 256.045 279.834 260.2 280.255 264.314V264.357ZM247.984 319.856L248.423 319.771C250.236 314.107 253.648 309.065 259.95 307.762C262.559 307.24 265.257 307.373 267.802 308.149C270.347 308.925 272.66 310.32 274.534 312.209L274.888 312.081C273.166 310.289 271.053 308.918 268.715 308.074C266.357 307.213 263.83 306.923 261.339 307.228C258.848 307.533 256.464 308.425 254.385 309.83C251.23 312.38 248.984 315.882 247.984 319.814V319.856ZM206.92 321.386C207.303 321.484 207.69 321.56 208.082 321.612C208.506 321.584 208.932 321.584 209.356 321.612C210.634 321.64 211.895 321.919 213.066 322.434C213.434 322.434 213.802 322.519 214.185 322.547C211.955 321.318 209.37 320.893 206.864 321.343L206.92 321.386ZM250.108 275.374C249.825 280.317 250.108 285.401 253.294 289.536C255.985 293.076 260.53 293.785 263.603 290.23C267.539 285.656 268.035 278.093 267.695 272.372C267.265 266.995 266.23 261.684 264.608 256.539L264.169 256.653C264.622 258.168 265.033 259.669 265.415 261.17C267.242 268.605 268.247 276.522 266.109 283.999C265.161 287.398 263.362 291.646 259.383 292.184C256.424 292.581 254.13 290.329 252.756 287.936C249.556 282.441 250.377 276.026 250.972 269.993C251.312 266.495 251.751 262.912 251.963 259.457C251.824 259.495 251.682 259.523 251.539 259.542C251.156 264.781 250.377 270.035 250.052 275.332L250.108 275.374ZM215.034 266.608C215.671 273.463 214.765 280.274 215.034 287.114C215.275 292.779 216.903 298.642 221.788 302.083C223.761 303.556 226.217 304.228 228.665 303.966C231.112 303.703 233.37 302.525 234.986 300.667C239.092 296.107 239.134 289.805 237.888 284.14C236.217 276.507 233.64 269.03 231.403 261.553C231.318 261.269 231.233 260.958 231.134 260.66L230.638 260.575C230.738 260.944 230.851 261.298 230.95 261.652C232.083 265.49 233.187 269.313 234.32 273.137C236.416 280.218 239.984 288.8 237.152 296.206C236.598 297.835 235.684 299.317 234.478 300.543C233.272 301.769 231.804 302.707 230.185 303.287C228.488 303.684 226.716 303.632 225.045 303.135C223.374 302.639 221.861 301.715 220.656 300.455C214.992 295.13 215.317 286.902 215.643 279.765C216.079 273.457 215.76 267.119 214.694 260.887C214.581 260.264 214.411 259.584 214.227 258.904L213.816 259.117C214.38 261.569 214.768 264.058 214.977 266.566L215.034 266.608ZM165.474 284.948C172.087 291.731 176.406 301.106 186.573 303.075C190.523 303.825 195.139 303.315 197.901 300.016C201.71 295.399 199.84 288.686 197.745 283.786C195.904 279.453 193.355 275.459 191.104 271.324L190.736 271.522C191.288 272.585 191.897 273.647 192.477 274.666C195.961 280.798 201.101 288.686 199.331 296.093C197.83 302.395 191.175 303.811 185.638 302.381C176.335 300.016 172.101 291.221 165.913 284.749L165.474 284.948Z" fill="#455A64"/>
<path d="M344.47 263.096C342.501 265.305 340.68 267.642 339.019 270.092C337.135 272.542 335.238 274.978 333.355 277.428C333.695 276.706 334.02 276.012 334.36 275.275C335.535 272.839 336.484 270.305 337.872 267.968C337.885 267.954 337.896 267.937 337.902 267.919C337.908 267.901 337.91 267.882 337.907 267.862C337.905 267.843 337.898 267.825 337.888 267.809C337.877 267.793 337.863 267.779 337.847 267.769C337.83 267.759 337.811 267.753 337.792 267.751C337.773 267.75 337.754 267.752 337.736 267.759C337.718 267.766 337.701 267.777 337.688 267.791C337.675 267.805 337.665 267.822 337.659 267.84C336.243 270.163 334.558 272.358 333.341 274.808C332.76 275.955 332.208 277.116 331.698 278.292C331.429 278.943 331.132 279.595 330.891 280.246C330.756 280.556 330.638 280.872 330.537 281.195C329.697 282.328 328.875 283.475 328.073 284.636C326.289 287.228 324.717 289.947 322.919 292.51C322.82 292.652 323.032 292.779 323.131 292.652C324.958 290.244 327.011 287.992 328.866 285.571C330.721 283.149 332.548 280.643 334.318 278.122C336.088 275.601 337.73 273.179 339.458 270.715C341.35 268.29 343.09 265.751 344.669 263.11C344.669 263.097 344.668 263.084 344.664 263.072C344.66 263.06 344.653 263.048 344.645 263.038C344.636 263.028 344.626 263.02 344.614 263.014C344.602 263.009 344.59 263.005 344.577 263.004C344.563 263.003 344.55 263.005 344.538 263.009C344.526 263.013 344.514 263.02 344.504 263.028C344.494 263.037 344.486 263.047 344.481 263.059C344.475 263.071 344.471 263.083 344.47 263.096Z" fill="#37474F"/>
<path d="M283.88 348.618C287.179 351.677 290.733 354.51 294.217 357.37C297.7 360.231 301.226 363.035 304.752 365.867C311.832 371.532 318.827 377.197 325.992 382.776C329.914 385.821 333.865 388.838 337.943 391.67C338.127 391.797 338.325 391.5 338.169 391.358C331.486 385.283 324.363 379.717 317.298 374.081C310.232 368.445 303.138 362.752 296.058 357.257C292.149 354.226 288.255 351.111 284.163 348.321C283.922 348.236 283.738 348.491 283.88 348.618Z" fill="#37474F"/>
<path d="M235.424 195.12C235.465 195.855 235.308 196.586 234.969 197.239C234.63 197.892 234.122 198.441 233.499 198.831C232.457 199.544 231.369 200.187 230.242 200.757C230.412 196.636 230.086 192.387 229.845 188.337C229.562 183.564 228.967 178.905 228.288 174.175H228.175C228.543 178.948 228.755 183.749 228.996 188.535C229.208 192.713 229.109 196.961 229.35 201.139C228.189 201.691 227.013 202.173 225.81 202.555C225.81 201.139 225.81 199.624 225.81 198.165C225.81 193.761 225.413 189.413 225.187 185.023C225.187 184.91 225.031 184.91 225.045 185.023C225.201 189.272 225.045 193.633 225.045 197.91C225.045 199.567 225.045 201.21 224.96 202.867C224.139 203.15 223.318 203.405 222.511 203.66L220.896 204.113C220.896 201.281 220.656 198.321 220.556 195.489C220.372 190.914 219.933 186.368 219.693 181.794C219.693 181.764 219.681 181.735 219.66 181.714C219.638 181.693 219.609 181.681 219.579 181.681C219.549 181.681 219.521 181.693 219.499 181.714C219.478 181.735 219.466 181.764 219.466 181.794C219.679 186.34 219.608 190.928 219.721 195.489C219.806 198.42 219.721 201.422 219.848 204.382C212.585 206.089 205.075 206.483 197.674 205.543C193.375 205.037 189.117 204.232 184.93 203.136C183.925 202.867 181.333 202.116 178.799 201.337C178.799 199.921 178.714 198.505 178.699 197.245C178.699 194.2 178.487 191.127 178.544 188.096C178.544 187.997 178.43 187.997 178.43 188.096C178.275 191.141 177.949 194.171 177.878 197.245C177.878 198.477 177.878 199.751 177.793 201.026C176.887 200.757 176.009 200.473 175.244 200.204C175.528 194.455 175.244 188.606 175.145 182.871C175.145 182.729 174.975 182.729 174.961 182.871C174.749 188.535 174.197 194.2 174.267 199.864C173.683 199.693 173.118 199.46 172.582 199.171C171.322 198.123 172.172 175.379 172.243 170.068C172.384 160.155 173.517 145.583 176.321 136.08C177.429 131.958 179.435 128.13 182.193 124.872C184.952 121.614 188.396 119.005 192.279 117.231C196.017 115.56 200.378 115.815 204.372 115.943C208.538 116.115 212.584 117.391 216.096 119.639C219.678 121.602 222.729 124.407 224.989 127.81C227.212 131.596 228.93 135.658 230.1 139.89C233.06 149.93 234.15 177.489 234.872 187.261C235.056 189.909 235.382 192.529 235.424 195.12Z" fill="#263238"/>
<path d="M185.496 196.083C200.038 223.628 223.346 255.095 230.808 259.216C240.267 264.427 291.923 262.232 294.528 261.836C300.843 260.816 303.024 215.428 296.256 216.221C285.905 217.439 249.117 225.115 246.342 223.458C243.566 221.801 223.02 206.464 201.483 188.861C186.558 176.71 176.462 178.99 185.496 196.083Z" fill="#EB9481"/>
<path d="M287.717 259.853C293.837 261.854 300.093 263.411 306.437 264.512C311.435 265.121 325.907 266.467 327.11 261.014C327.946 257.304 319.535 255.506 313.616 254.104C310.501 253.367 306.394 250.903 306.946 248.878C307.924 245.352 315.981 247.462 321.39 249.487C331.854 253.48 346.212 261.397 351.267 255.591C353.165 253.396 350.064 250.478 345.773 247.816C352.485 250.648 359.48 252.702 361.703 250.351C362.963 249.005 362.794 247.518 361.703 245.89C362.529 246.118 363.403 246.097 364.217 245.83C365.03 245.563 365.747 245.062 366.277 244.389C367.905 241.995 366.447 239.092 363.771 236.317C364.129 236.222 364.461 236.044 364.739 235.798C365.016 235.552 365.233 235.245 365.371 234.9C368.514 227.82 344.57 212.922 337.051 212.398C314.904 210.811 291.13 217.68 291.13 217.68C283.837 225.61 287.689 259.853 287.717 259.853Z" fill="#EB9481"/>
<path d="M315.853 235.099C321.061 235.064 326.217 236.141 330.976 238.257C336.966 240.933 341.242 244.53 346.453 248C346.595 248.085 346.453 248.297 346.326 248.212C343.833 246.57 333.582 240.508 331.061 239.177C326.359 236.715 321.159 235.354 315.853 235.198C315.853 235.198 315.768 235.099 315.853 235.099Z" fill="#263238"/>
<path d="M318.359 225.398C324.276 225.817 330.135 226.832 335.847 228.429C342.007 230.397 347.175 234.405 352.358 238.243C355.426 240.546 358.451 242.906 361.434 245.323C361.562 245.423 361.434 245.649 361.292 245.536C356.082 241.571 350.753 237.756 345.306 234.093C340.275 230.659 334.616 228.253 328.654 227.012C325.255 226.318 321.8 225.879 318.345 225.455L318.359 225.398Z" fill="#263238"/>
<path d="M323.046 216.504C328.71 216.745 333.581 216.915 338.877 219.054C345.957 221.886 353.122 227.366 355.657 229.321C358.489 231.487 361.193 233.739 363.898 236.033C363.997 236.118 363.898 236.317 363.728 236.217C357.595 231.23 351.149 226.642 344.428 222.481C341.253 220.456 337.786 218.932 334.148 217.963C330.494 217.18 326.78 216.706 323.046 216.547V216.504Z" fill="#263238"/>
<path d="M206.453 236.402L222.78 200.658C214.846 194.433 206.547 188.687 197.929 183.451C183.344 174.543 176.321 179.599 185.185 200.856C190.557 213.651 197.718 225.619 206.453 236.402Z" fill="#455A64"/>
<path d="M217.555 198.264C216.039 200.771 214.892 203.532 213.604 206.152C212.315 208.772 211.126 211.18 209.979 213.729C207.591 219.016 205.311 224.345 203.14 229.717C203.14 229.802 203.253 229.887 203.295 229.788C205.844 224.647 208.336 219.493 210.744 214.21C211.947 211.619 213.08 208.999 214.213 206.379C215.346 203.759 216.747 201.054 217.71 198.278C217.739 198.25 217.597 198.179 217.555 198.264Z" fill="#263238"/>
<path opacity="0.1" d="M185.213 200.856C190.577 213.649 197.728 225.617 206.453 236.402L220.089 206.52L184.689 179.613C180.271 181.1 179.832 188.039 185.213 200.856Z" fill="black"/>
<path d="M130.725 299.775C134.053 300.95 230.355 276.04 230.355 276.04L220.032 242.548C220.032 242.548 225.909 232.04 223.615 221.702C220.542 207.894 195.819 184.641 193.879 183.253C186.02 177.73 178.515 177.588 171.789 180.93C143.738 194.823 130.725 299.775 130.725 299.775Z" fill="#455A64"/>
<path d="M189.447 239.276C193.58 238.633 197.754 238.292 201.936 238.257C204.018 238.257 206.071 238.384 208.152 238.526C209.186 238.611 210.205 238.653 211.239 238.682C212.324 238.755 213.413 238.693 214.482 238.497C214.567 238.497 214.609 238.611 214.482 238.639C213.503 238.94 212.505 239.172 211.494 239.333C210.508 239.454 209.514 239.51 208.52 239.503C206.425 239.503 204.272 239.418 202.205 239.404C197.957 239.404 193.709 239.404 189.461 239.63C189.291 239.645 189.263 239.305 189.447 239.276Z" fill="#263238"/>
<path d="M180.37 245.352C183.616 244.172 186.925 243.174 190.282 242.364C191.953 241.967 193.638 241.67 195.352 241.415L197.801 241.089C198.708 240.99 199.614 241.004 200.52 240.877C200.605 240.877 200.647 241.004 200.52 241.018C199.67 241.16 198.849 241.443 198.014 241.627L195.507 242.18C193.822 242.562 192.151 242.958 190.466 243.312C187.096 244.035 183.755 244.729 180.413 245.621C180.243 245.677 180.2 245.408 180.37 245.352Z" fill="#263238"/>
<path d="M160.15 192.911C146.754 212.667 118.08 280.713 131.943 291.221C145.806 301.729 213.165 277.584 231.53 266.056C236.996 262.629 210.828 229.108 203.904 229.108C198.169 229.108 172.03 245.012 170.996 243.454C169.835 241.684 173.489 227.664 177.538 201.72C182.225 171.754 167.853 181.568 160.15 192.911Z" fill="#EB9481"/>
<path d="M231.318 214.083C245.152 210.5 249.259 211.704 259.312 202.47C265.925 196.409 272.623 198.023 269.465 206.804C264.325 221.149 247.446 229.533 240.763 230.751L231.318 214.083Z" fill="#EB9481"/>
<path d="M195.55 231.941C195.55 231.941 210.333 221.334 224.691 216.051C234.603 212.398 257.117 206.86 281.572 226.842C287.363 231.587 292.277 242.42 279.986 238.172C271.263 235.113 266.647 230.539 261.252 229.675C261.252 229.675 265.84 244.233 260.87 249.869C256.518 254.788 251.819 259.388 246.809 263.634C245.813 262.9 244.867 262.101 243.977 261.241C243.977 261.241 238.823 266.056 228.118 266.283L195.55 231.941Z" fill="#EB9481"/>
<path d="M234.716 214.097C239.899 216.065 250.816 220.455 258.491 227.14C266.987 234.575 281.444 251.215 275.894 257.417C271.83 261.992 265.769 256.143 265.769 256.143C265.769 256.143 270.286 264.258 265.698 267.586C261.535 270.63 257.103 265.815 257.103 265.815C257.103 265.815 259.001 271.211 254.413 273.363C248.905 275.941 245.917 264.201 238.001 262.034C236.246 261.496 234.716 214.097 234.716 214.097Z" fill="#EB9481"/>
<path d="M249.216 234.844C253.776 237.506 262.597 246.173 265.882 255.902C265.953 256.129 265.882 256.299 265.727 256.115C261.078 248.389 255.511 241.257 249.145 234.872C249.145 234.872 249.089 234.773 249.216 234.844Z" fill="#263238"/>
<path d="M241.896 243.666C245.591 246.371 254.286 255.746 257.273 265.688C257.344 265.914 257.202 266.084 257.103 265.886C252.861 257.952 247.73 250.526 241.811 243.751C241.811 243.751 241.839 243.638 241.896 243.666Z" fill="#263238"/>
<path d="M261.238 229.59C265.982 230.411 269.224 232.309 273.401 234.546C275.455 235.679 277.568 236.7 279.731 237.605C281.713 238.398 284.644 239.602 286.443 237.789C286.851 237.246 287.105 236.603 287.177 235.927C287.249 235.251 287.137 234.569 286.853 233.952C286.083 232.154 285.032 230.49 283.738 229.023C283.738 229.023 283.738 228.882 283.837 228.938C285.078 230.261 286.179 231.709 287.122 233.258C287.746 234.324 288.037 235.552 287.958 236.784C287.576 239.39 284.63 240.069 282.436 239.616C281.126 239.303 279.85 238.862 278.626 238.299C277.451 237.789 276.29 237.223 275.143 236.628C272.793 235.41 270.513 234.051 268.191 232.804C265.895 231.641 263.531 230.619 261.111 229.746C261.096 229.717 261.139 229.576 261.238 229.59Z" fill="#263238"/>
<path d="M272.707 244.601C269.19 239.389 265.33 234.417 261.153 229.717C261.153 229.646 261.153 229.561 261.238 229.604C265.203 232.578 271.985 240.933 273.656 243.638C275.327 246.343 277.253 249.784 277.621 252.956C278.187 257.743 275.115 259.018 273.968 259.4C272.603 259.811 271.138 259.741 269.819 259.202C268.258 258.475 266.861 257.439 265.712 256.157C265.712 256.157 265.712 256.001 265.797 256.058C267.681 257.757 270.654 259.287 273.217 258.649C273.795 258.532 274.343 258.3 274.83 257.967C275.316 257.633 275.731 257.206 276.049 256.709C276.625 255.473 276.736 254.07 276.361 252.758C275.617 249.851 274.382 247.092 272.707 244.601Z" fill="#263238"/>
<path d="M171.025 243.412C168.927 244.945 166.748 246.363 164.497 247.66C162.271 249.011 159.979 250.249 157.629 251.37C159.571 249.614 161.693 248.066 163.959 246.754C166.196 245.406 168.563 244.286 171.025 243.412Z" fill="#263238"/>
<path d="M137.777 228.868L177 225.908C178.623 215.956 179.649 205.917 180.073 195.843C180.823 178.764 172.993 175.039 158.705 193.095C150.069 203.967 143.022 216.011 137.777 228.868Z" fill="#455A64"/>
<path d="M176.533 220.172C173.602 220.059 170.642 220.385 167.711 220.526C164.78 220.668 162.132 220.781 159.343 221.008C153.551 221.461 147.802 222.027 142.039 222.736C141.94 222.736 141.94 222.92 142.039 222.905C147.769 222.669 153.499 222.348 159.229 221.942C162.061 221.744 164.893 221.475 167.725 221.206C170.557 220.937 173.616 220.852 176.505 220.356C176.632 220.328 176.632 220.172 176.533 220.172Z" fill="#263238"/>
<path d="M178.076 222.027C178.317 220.611 178.501 219.195 178.671 217.779C178.671 217.482 178.671 217.184 178.77 216.887C179.374 215.198 179.884 213.477 180.299 211.732C180.299 211.732 180.299 211.647 180.2 211.732C179.707 213.017 179.282 214.326 178.926 215.655C179.152 213.474 179.351 211.293 179.379 209.098H179.266C178.742 211.93 178.416 214.763 177.991 217.595C177.793 219.011 176.943 225.752 176.858 225.766C176.773 225.78 173.602 226.12 173.403 226.205C173.205 226.29 173.276 226.474 173.403 226.474L177.453 226.177C177.453 226.177 177.878 223.203 178.076 222.027Z" fill="#263238"/>
<path d="M323.726 262.19H215.458V267.033H323.726V262.19Z" fill="#C7C7C7"/>
<path d="M323.726 262.19V267.047H258.788L262.498 262.19H323.726Z" fill="#A6A6A6"/>
<path d="M274.846 267.047H380.366L389.145 195.375H283.639L274.846 267.047Z" fill="#A6A6A6"/>
<path d="M280.368 267.047H385.888L394.668 195.375H289.162L280.368 267.047Z" fill="#C7C7C7"/>
<path d="M331.104 231.204C331.085 232.043 331.234 232.877 331.542 233.657C331.851 234.437 332.312 235.148 332.899 235.747C333.486 236.346 334.188 236.822 334.961 237.146C335.735 237.47 336.566 237.636 337.405 237.634C339.118 237.627 340.761 236.95 341.983 235.749C343.205 234.548 343.91 232.917 343.947 231.204C343.964 230.365 343.813 229.532 343.503 228.752C343.193 227.973 342.73 227.263 342.141 226.665C341.553 226.067 340.85 225.593 340.076 225.271C339.301 224.949 338.47 224.785 337.631 224.789C335.922 224.796 334.283 225.471 333.063 226.669C331.844 227.867 331.141 229.495 331.104 231.204Z" fill="white"/>
<path d="M178.416 183.309C178.501 185.08 184.661 197.57 192.491 198.59C195.054 198.916 197.461 185.051 197.461 185.051L197.872 184.074L203.621 170.309L186.544 154.731C186.544 154.731 178.416 182.559 178.416 183.309Z" fill="#EB9481"/>
<path d="M203.692 170.309L197.929 184.074C194.324 181.939 191.208 179.071 188.781 175.656C186.354 172.241 184.671 168.354 183.839 164.248C185.255 159.405 186.402 155.383 186.558 154.802C186.564 154.774 186.564 154.745 186.558 154.717L188.753 156.572L203.692 170.309Z" fill="#263238"/>
<path d="M225.994 151.403C223.629 177.475 207.756 179.004 202.134 178.48C197.023 178.013 179.719 175.761 179.379 149.591C179.039 123.42 191.911 116.282 203.635 116.75C215.36 117.217 228.359 125.346 225.994 151.403Z" fill="#EB9481"/>
<path d="M222.694 147.693C222.122 147.505 221.559 147.288 221.009 147.041C220.384 146.9 219.825 146.551 219.423 146.05C219.324 145.869 219.287 145.66 219.318 145.455C219.349 145.251 219.445 145.062 219.593 144.917C219.935 144.688 220.33 144.553 220.741 144.526C221.151 144.498 221.561 144.58 221.93 144.761C222.734 145.009 223.417 145.55 223.841 146.277C223.932 146.448 223.97 146.643 223.951 146.836C223.932 147.029 223.857 147.212 223.735 147.363C223.613 147.514 223.449 147.625 223.264 147.684C223.079 147.743 222.881 147.746 222.694 147.693Z" fill="#263238"/>
<path d="M204.669 146.857C205.292 146.857 205.872 146.857 206.481 146.772C207.122 146.83 207.764 146.676 208.308 146.333C208.459 146.194 208.558 146.007 208.589 145.804C208.62 145.601 208.58 145.393 208.478 145.215C208.233 144.885 207.904 144.626 207.526 144.467C207.147 144.308 206.732 144.253 206.325 144.308C205.482 144.298 204.665 144.601 204.031 145.158C203.894 145.292 203.798 145.464 203.756 145.652C203.714 145.84 203.728 146.036 203.796 146.216C203.863 146.396 203.982 146.552 204.137 146.666C204.292 146.78 204.477 146.847 204.669 146.857Z" fill="#263238"/>
<path d="M207.713 151.318C207.713 151.318 207.557 151.318 207.557 151.46C207.359 153.23 206.849 155.227 205.178 155.595C205.178 155.595 205.108 155.694 205.178 155.694C207.161 155.68 207.812 153.032 207.713 151.318Z" fill="#263238"/>
<path d="M206.382 149.251C203.55 148.642 202.573 154.306 205.179 154.915C207.784 155.524 208.747 149.803 206.382 149.251Z" fill="#263238"/>
<path d="M205.221 149.35C204.669 149.591 204.088 150.072 203.479 150.015C202.871 149.959 202.361 149.279 202.063 148.599C202.063 148.599 201.979 148.599 201.964 148.599C201.752 149.676 201.964 150.865 203.097 151.233C204.23 151.602 205.065 150.738 205.533 149.704C205.561 149.591 205.448 149.265 205.221 149.35Z" fill="#263238"/>
<path d="M218.135 152.706C218.135 152.706 218.262 152.819 218.248 152.89C217.866 154.632 217.71 156.7 219.197 157.564C219.197 157.564 219.197 157.677 219.197 157.663C217.271 157.025 217.498 154.306 218.135 152.706Z" fill="#263238"/>
<path d="M220.047 151.219C222.879 151.531 222.072 157.224 219.424 156.884C216.776 156.544 217.64 150.908 220.047 151.219Z" fill="#263238"/>
<path d="M221.179 151.715C221.576 152.083 221.944 152.706 222.482 152.819C223.02 152.933 223.643 152.395 224.125 151.871H224.21C224.082 152.961 223.558 154.037 222.482 154.094C221.406 154.151 220.925 153.117 220.825 151.998C220.811 151.856 221.01 151.573 221.179 151.715Z" fill="#263238"/>
<path d="M213.42 160.679C213.42 160.679 213.264 163.37 213.023 164.602C213.023 164.715 212.698 164.715 212.273 164.602C211.176 164.59 210.104 164.275 209.175 163.693C208.246 163.111 207.495 162.284 207.005 161.302C206.997 161.275 206.998 161.246 207.008 161.219C207.018 161.192 207.037 161.17 207.061 161.155C207.086 161.14 207.115 161.134 207.143 161.138C207.171 161.141 207.198 161.155 207.218 161.175C208.585 162.551 210.356 163.454 212.273 163.752C212.429 163.427 212.372 159.136 212.57 159.164C213.51 159.436 214.41 159.831 215.246 160.339C215.714 154.76 215.246 149.152 215.841 143.614C215.841 143.416 216.153 143.402 216.181 143.614C216.818 149.614 216.86 155.662 216.308 161.671C216.223 162.407 213.816 160.991 213.42 160.679Z" fill="#263238"/>
<path d="M179.691 151.092C183.939 152.126 186.261 142.354 186.261 142.354C186.261 142.354 194.955 143.77 199.897 131.775C199.03 135.487 197.095 138.864 194.332 141.49C194.332 141.49 210.078 143.345 218.659 131.577C218.659 131.577 214.991 137.695 212.202 139.621C212.202 139.621 218.928 138.884 222.935 134.169C222.935 134.169 224.351 142.028 226.121 144.422C226.121 144.422 229.93 117.514 204.584 116.212C204.584 116.212 188.824 114.668 181.206 126.125C173.588 137.582 179.691 151.092 179.691 151.092Z" fill="#263238"/>
<path d="M183.344 151.97C183.344 151.97 179.096 142.92 175.145 144.28C171.195 145.64 173.29 158.045 177.283 160.41C177.777 160.745 178.332 160.978 178.917 161.094C179.503 161.21 180.105 161.208 180.689 161.086C181.273 160.964 181.826 160.727 182.317 160.387C182.807 160.047 183.224 159.612 183.542 159.107L183.344 151.97Z" fill="#EB9481"/>
<path d="M175.853 147.82C175.853 147.82 175.754 147.891 175.853 147.934C178.685 149.69 179.719 152.749 180.314 155.836C180.192 155.504 180 155.203 179.751 154.952C179.502 154.701 179.202 154.507 178.871 154.384C178.54 154.26 178.187 154.209 177.834 154.235C177.482 154.261 177.14 154.362 176.83 154.533C176.745 154.533 176.83 154.717 176.83 154.717C177.391 154.628 177.966 154.716 178.474 154.97C178.981 155.224 179.397 155.631 179.662 156.133C180.084 156.974 180.416 157.857 180.653 158.767C180.738 159.065 181.248 159.008 181.206 158.682C181.206 158.682 181.206 158.682 181.206 158.612C181.914 154.83 179.832 148.939 175.853 147.82Z" fill="#263238"/>
<path d="M550.697 402.9C549.281 406.653 481.313 491.085 476.767 492.671C475.011 493.28 462.14 484.103 446.904 472.575C443.604 470.083 440.22 467.491 436.808 464.843C414.576 447.665 391.382 428.915 391.382 428.915L436.694 372.268L480.874 409.754L490.573 417.982C490.573 417.982 531.042 397.278 536.296 396.088C541.549 394.899 552.084 399.161 550.697 402.9Z" fill="#EB9481"/>
<path d="M550.711 402.9C549.295 406.639 481.398 491.085 476.767 492.671C475.238 493.209 465.213 486.256 452.511 476.796C465.468 467.378 514.659 422.981 521.272 411.043C524.741 404.727 519.672 404.784 513.456 406.525C523.594 401.526 533.79 396.683 536.253 396.117C541.507 394.941 552.084 399.161 550.711 402.9Z" fill="#263238"/>
<path d="M478.466 401.243L431.356 464.815L272.368 354.481L257.046 343.818C257.046 343.818 252.699 346.735 246.172 350.346C237.095 355.359 223.785 361.675 212.032 363.446C192.293 366.377 159.328 366.066 142.648 343.818C128.629 325.082 136.248 300.639 136.248 300.639L157.912 291.335C157.912 291.335 209.2 248.609 242.419 247.32C256.579 246.754 277.069 257.446 296.1 268.563C315.131 279.68 478.466 401.243 478.466 401.243Z" fill="#263238"/>
<path d="M473.185 397.32C473.44 400.153 473.685 402.947 473.921 405.704C473.921 406.2 474.006 406.695 474.063 407.191L473.567 407.828C473.213 404.189 472.902 400.535 472.576 396.867C472.787 397.007 472.991 397.158 473.185 397.32ZM445.955 377.14L445.403 376.744C445.516 378.612 445.805 380.466 446.267 382.281C447.824 388.639 451.138 394.616 454.154 400.379C457.837 406.997 461.095 413.841 463.91 420.871L464.236 420.461C462.149 415.068 459.733 409.809 457 404.713C453.588 398.17 449.736 391.571 447.442 384.504C446.654 382.118 446.155 379.645 445.955 377.14ZM425.876 449.053C425.129 452.332 423.476 455.335 421.105 457.72L421.444 457.946C423.345 456.116 424.799 453.872 425.692 451.39C427.802 445.484 426.953 438.984 426.103 432.979C425.14 426.423 423.271 418.676 425.678 412.233C426.186 410.599 427.201 409.169 428.576 408.151C429.951 407.132 431.614 406.578 433.325 406.568C436.321 406.835 439.093 408.27 441.042 410.562C446.253 416.226 445.191 423.633 443.222 430.388C441.495 436.364 439.088 442.241 439.484 448.586C439.571 450.084 439.814 451.569 440.206 453.018L440.546 452.551C437.474 440.896 446.947 429.793 445.233 417.968C444.852 415.621 443.908 413.4 442.483 411.497C441.058 409.593 439.193 408.062 437.049 407.035C436.046 406.529 434.95 406.232 433.829 406.161C432.708 406.09 431.584 406.248 430.525 406.624C429.466 406.999 428.494 407.586 427.669 408.348C426.843 409.11 426.18 410.032 425.721 411.057C423.186 416.297 424.22 422.882 424.999 428.434C425.876 435.132 427.448 442.269 425.876 449.053ZM386.342 433.588L386.795 433.9C387.289 431.307 388.152 428.799 389.358 426.451C392.448 420.571 397.078 415.642 402.753 412.19C408.049 408.919 414.081 406.823 419.278 403.467C424.324 400.303 428.124 395.497 430.04 389.857C432.142 384.144 432.917 378.028 432.305 371.971C432.051 369.879 431.518 367.831 430.719 365.882C430.549 365.726 430.365 365.598 430.181 365.457C432.133 370.265 432.721 375.518 431.88 380.638C430.96 387.719 428.581 395.111 423.158 400.054C418.343 404.43 412.085 406.752 406.378 409.698C396.834 414.626 388.622 422.953 386.342 433.588ZM382.094 398.793C385.974 401.371 390.972 402.079 394.838 399.19C399.086 396.003 400.247 390.098 400.204 385.028C400.204 378.16 397.925 370.413 401.62 364.111C403.002 361.987 404.848 360.204 407.019 358.897C409.189 357.589 411.628 356.791 414.152 356.563C415.47 356.422 416.799 356.422 418.117 356.563L417.494 356.11C416.075 356.015 414.651 356.077 413.246 356.294C408.986 356.895 405.101 359.055 402.343 362.355C398.477 367.227 398.916 373.685 399.397 379.533C399.907 385.651 400.388 393.143 395.645 397.859C390.675 402.843 383.439 400.294 379.148 395.791C369.548 385.694 373.754 368.884 383.75 360.797C390.717 355.133 399.44 352.612 407.369 348.661L406.973 348.364C405.84 348.93 404.707 349.468 403.56 349.978C393.578 354.467 382.165 358.333 376.656 368.572C371.417 378.386 372.196 392.236 382.08 398.793H382.094ZM386.682 340.376C388.032 339.055 389.118 337.488 389.882 335.76L389.471 335.476C389.161 336.22 388.786 336.936 388.352 337.615C385.096 342.727 379.007 344.313 373.357 342.699C370.519 341.918 367.955 340.36 365.953 338.201C363.952 336.042 362.593 333.367 362.029 330.477C361.152 325.814 361.766 320.992 363.785 316.698L363.502 316.5C360.67 322.405 360.047 329.132 363.247 335.278C367.452 343.223 379.715 347.032 386.667 340.376H386.682ZM354.708 408.352C353.406 408.48 352.089 408.664 350.786 408.834L351.324 409.216H351.593C358.673 408.211 366.574 407.8 371.417 414.187C373.869 417.43 375.035 421.465 374.688 425.516L375.141 425.842C375.36 423.513 375.096 421.163 374.365 418.941C373.634 416.718 372.452 414.671 370.893 412.927C366.744 408.31 360.556 407.772 354.694 408.409L354.708 408.352ZM355.884 376.786C349.795 380.411 342.332 378.769 335.649 378.769C330.636 378.769 324.831 379.604 321.262 383.484C320.342 384.473 319.625 385.632 319.153 386.897L319.592 387.195C320.437 385.32 321.723 383.677 323.34 382.407C324.958 381.137 326.859 380.277 328.88 379.902C335.309 378.4 341.837 380.015 348.336 379.42C353.25 379.009 357.979 377.083 360.486 372.622C362.472 368.908 362.944 364.569 361.802 360.514C361.291 358.493 360.305 356.622 358.925 355.058C357.546 353.495 355.814 352.282 353.873 351.522C347.529 349.114 340.562 351.238 334.19 352.442C327.524 353.87 320.594 353.464 314.14 351.267C307.886 349.075 302.362 345.193 298.182 340.051C293.622 334.386 290.521 326.271 293.834 319.247C294.487 317.68 295.47 316.273 296.718 315.122C297.965 313.97 299.447 313.103 301.061 312.578C302.675 312.053 304.383 311.884 306.069 312.082C307.755 312.28 309.378 312.84 310.826 313.724C321.333 319.785 323.684 336.581 337.136 338.082C339.53 338.469 341.982 337.927 343.991 336.566C345.999 335.205 347.411 333.128 347.94 330.761C349.115 325.662 347.26 320.168 344.287 316.033C337.405 306.502 325.595 302.791 314.89 299.492C308.589 297.552 302.146 295.555 296.581 292.043C290.716 288.367 286.185 282.907 283.653 276.465C281.522 271.184 280.407 265.548 280.368 259.853C280.258 259.778 280.139 259.716 280.014 259.669C279.982 261.22 280.044 262.771 280.198 264.314C280.771 270.392 282.624 276.281 285.636 281.591C288.794 286.832 293.349 291.088 298.79 293.884C309.75 299.718 322.537 300.965 333.313 307.252C338.453 310.255 343.225 314.333 345.887 319.771C348.549 325.209 349.073 334.57 342.021 337.162C335.635 339.527 329.277 335.207 325.411 330.407C321.546 325.606 318.699 319.389 313.658 315.268C309.41 311.826 303.746 310.099 298.776 313.03C296.534 314.456 294.719 316.462 293.525 318.835C292.331 321.209 291.802 323.862 291.994 326.512C292.617 338.592 303.732 348.264 314.494 351.918C320.113 353.799 326.105 354.285 331.953 353.334C339.033 352.216 346.665 349.341 353.689 352.003C363.601 355.713 364.96 371.419 355.869 376.843L355.884 376.786ZM285.848 363.771L286.202 364.026C288.482 359.65 292.957 356.407 298.054 358.234C303.902 360.302 307.471 367.298 307.626 373.175C307.667 375 307.544 376.824 307.258 378.627L307.612 378.882C307.859 377.478 308.01 376.058 308.065 374.633C308.182 372.042 307.757 369.454 306.819 367.035C305.88 364.616 304.448 362.42 302.614 360.585C299.399 357.47 294.84 356.138 290.733 358.348C288.562 359.61 286.847 361.529 285.834 363.828L285.848 363.771ZM245.322 347.613C245.322 348.689 245.209 349.808 245.124 350.898L245.648 350.629C246.37 341.325 245.577 331.724 247.616 322.703C249.16 315.905 252.544 309.207 259.964 307.663C263.231 307.035 266.612 307.425 269.651 308.78C272.689 310.135 275.239 312.389 276.956 315.239C278.616 318.112 279.59 321.33 279.801 324.642C280.013 327.953 279.455 331.269 278.173 334.329C275.681 340.532 271.221 345.659 267.1 350.814L267.384 351.012C274.69 341.764 283.413 331.37 279.009 318.822C278.201 316.357 276.852 314.103 275.061 312.226C273.27 310.35 271.083 308.897 268.658 307.975C266.301 307.137 263.779 306.869 261.299 307.191C258.819 307.514 256.449 308.418 254.385 309.83C249.273 313.568 247.517 320.394 246.597 326.314C245.492 333.338 245.676 340.518 245.308 347.67L245.322 347.613ZM194.431 355.643C194.811 358.653 194.962 361.687 194.884 364.72H195.281C195.607 354.085 191.472 343.138 195.04 332.772C197.051 326.937 202.786 321.272 209.313 321.442C215.841 321.612 219.679 327.9 220.571 333.82C221.987 343.251 216.549 353.065 217.201 362.369L217.611 362.27C217.505 361.031 217.505 359.785 217.611 358.546C218.163 351.465 221.194 344.71 221.264 337.558C221.264 332.8 220.033 327.503 216.478 324.076C214.762 322.473 212.585 321.449 210.255 321.149C207.925 320.849 205.56 321.289 203.494 322.405C190.863 328.721 193.143 344.214 194.417 355.699L194.431 355.643ZM250.066 275.275C249.783 280.218 250.066 285.302 253.252 289.437C255.942 292.977 260.488 293.685 263.56 290.131C267.497 285.557 267.992 277.994 267.653 272.273C267.228 265.192 265.231 258.508 263.178 251.809L262.626 251.611C263.617 254.783 264.594 257.941 265.373 261.071C267.199 268.506 268.205 276.422 266.067 283.9C265.118 287.299 263.32 291.547 259.341 292.085C256.381 292.482 254.087 290.23 252.714 287.837C249.514 282.342 250.335 275.927 250.93 269.894C251.553 263.394 252.501 256.837 251.921 250.308C251.921 249.614 251.793 248.892 251.68 248.212L251.255 248.127C251.61 250.57 251.752 253.039 251.68 255.506C251.553 262.176 250.462 268.761 250.052 275.332L250.066 275.275ZM214.992 266.509C215.629 273.363 214.723 280.175 214.992 287.015C215.232 292.68 216.861 298.543 221.746 301.984C223.719 303.457 226.175 304.129 228.622 303.866C231.07 303.604 233.328 302.426 234.943 300.568C239.049 296.008 239.092 289.706 237.846 284.041C236.175 276.408 233.598 268.931 231.361 261.454C230.082 257.636 229.037 253.743 228.231 249.798L227.877 249.912C227.877 250.068 227.877 250.195 227.877 250.351C228.645 254.139 229.634 257.879 230.837 261.553C231.969 265.39 233.074 269.214 234.207 273.038C236.302 280.119 239.871 288.701 237.039 296.107C236.485 297.736 235.571 299.218 234.365 300.444C233.159 301.67 231.691 302.608 230.072 303.188C228.374 303.585 226.603 303.533 224.931 303.036C223.26 302.54 221.747 301.616 220.542 300.356C214.878 295.031 215.204 286.803 215.53 279.665C215.966 273.358 215.647 267.02 214.581 260.788C214.227 259.012 213.725 257.269 213.08 255.576L212.783 255.718C213.926 259.238 214.662 262.878 214.977 266.566L214.992 266.509ZM186.558 303.032C190.509 303.783 195.125 303.273 197.886 299.973C201.695 295.357 199.826 288.644 197.731 283.744C195.493 278.49 192.251 273.746 189.744 268.633C189.608 268.705 189.48 268.791 189.362 268.888C190.325 270.857 191.387 272.755 192.463 274.624C195.946 280.756 201.086 288.644 199.316 296.05C197.815 302.352 191.16 303.769 185.624 302.338C176.448 300.002 172.214 291.42 166.154 284.976L165.814 285.231C172.2 291.972 176.561 301.092 186.558 303.032ZM135.384 327.348C135.369 327.46 135.369 327.575 135.384 327.688C136.475 327.6 137.541 327.312 138.528 326.838C143.781 324.345 146.429 318.468 151.003 315.07C156.667 310.92 164.568 309.277 170.827 312.874C176.675 316.231 180.045 323.156 177.708 329.67C175.669 335.335 170.628 339.243 166.38 343.336C162.388 346.996 159.454 351.663 157.884 356.846C158.001 356.932 158.13 356.998 158.267 357.045C159.649 352.324 162.207 348.031 165.701 344.568C169.481 340.674 174.013 337.261 176.745 332.503C178.052 330.378 178.757 327.938 178.784 325.443C178.812 322.949 178.161 320.494 176.901 318.341C175.538 316.036 173.62 314.109 171.323 312.734C169.026 311.359 166.421 310.58 163.747 310.467C160.855 310.408 157.982 310.941 155.304 312.032C152.626 313.123 150.198 314.749 148.171 316.811C144.588 320.578 141.218 326.824 135.384 327.348Z" fill="#455A64"/>
<path d="M257.047 343.818C257.047 343.818 252.7 346.735 246.172 350.346C234.617 336.524 210.163 311.402 209.356 310.509L257.047 343.818Z" fill="#37474F"/>
<path d="M176.759 277.06C173.701 279.184 170.727 281.45 167.711 283.631C164.695 285.812 161.665 287.808 158.833 290.145C156.001 292.482 153.169 295.087 150.521 297.651C149.218 298.897 147.915 300.143 146.655 301.432C145.341 302.673 144.125 304.013 143.016 305.44C142.917 305.581 143.115 305.737 143.243 305.652C144.683 304.629 146.055 303.513 147.349 302.31C148.765 301.106 150.181 299.874 151.597 298.67C154.344 296.319 157.162 294.039 159.909 291.689C162.656 289.338 165.176 286.803 167.881 284.438C170.586 282.073 173.828 279.552 176.83 277.159C176.873 277.116 176.83 277.017 176.759 277.06Z" fill="#37474F"/>
<path d="M462.324 394.8C459.492 398.283 456.858 402.008 454.225 405.662C451.591 409.315 448.957 412.997 446.352 416.694C441.141 424.086 435.888 431.436 430.776 438.899C427.944 443.006 425.211 447.127 422.62 451.375C422.506 451.56 422.818 451.744 422.945 451.588C428.609 444.507 433.721 437.086 438.918 429.694C444.114 422.302 449.311 414.881 454.409 407.418C457.241 403.325 460.073 399.246 462.607 394.998C462.721 394.8 462.452 394.616 462.324 394.8Z" fill="#37474F"/>
<path d="M337.008 399.615C329.093 393.369 320.894 387.492 312.696 381.643C304.497 375.795 296.369 369.988 288.1 364.352C285.721 362.723 283.314 361.137 280.921 359.551C278.528 357.965 276.035 356.492 273.699 354.835C273.557 354.736 273.444 354.963 273.572 355.062C275.724 356.606 277.82 358.333 279.873 359.934C281.926 361.534 283.894 363.007 285.933 364.522C289.898 367.468 293.905 370.342 297.913 373.246C306.04 379.109 314.225 384.915 322.48 390.579C327.181 393.808 331.854 397.037 336.64 400.096C336.867 400.28 337.207 399.827 337.008 399.615Z" fill="#37474F"/>
<path d="M387.772 334.018C380.465 327.957 372.635 322.504 364.974 316.911C357.314 311.317 349.511 305.581 341.723 299.917L318.6 283.163C311.124 277.754 303.676 272.259 295.774 267.458C291.441 264.843 287 262.431 282.45 260.221C278.034 257.939 273.429 256.044 268.686 254.557C268.545 254.557 268.474 254.727 268.601 254.798C272.495 256.978 276.587 258.805 280.524 260.901C284.46 262.997 288.255 265.15 292.036 267.444C299.881 272.202 307.286 277.612 314.692 283.022C330.155 294.139 345.575 305.298 361.137 316.259C369.845 322.391 378.384 328.863 387.418 334.499C387.701 334.669 387.984 334.23 387.772 334.018Z" fill="#37474F"/>
<ellipse cx="347.808" cy="182.809" rx="6.19242" ry="6.19691" fill="#FDAF9B"/>
<ellipse cx="364.321" cy="168.349" rx="8.25656" ry="8.26255" fill="#FF8567"/>
<ellipse cx="344.711" cy="150.791" rx="9.28863" ry="9.29537" fill="#F06442"/>
<ellipse cx="366.901" cy="130.652" rx="10.8367" ry="10.8446" fill="#D64B29"/>
<path d="M598.628 360.401C596.726 365.275 595.275 370.315 594.295 375.455C594.409 375.724 594.295 376.673 594.154 376.404C594.041 377.239 592.738 376.956 592.851 376.12C592.922 375.582 592.993 375.044 593.078 374.52C590.472 370.484 586.366 367.666 583.166 364.055C580.602 361.213 578.885 357.71 578.21 353.943C576.355 343.577 580.206 333.211 577.757 322.788C575.647 313.809 571.002 305.723 567.236 297.396C563.271 288.601 560.609 279.51 561.274 269.766C561.77 262.303 563.71 252.489 569.954 247.518C576.581 242.236 583.548 247.448 587.598 253.183C599.308 269.894 603.429 289.862 603.839 309.83C604.052 320.904 604.321 332.064 602.834 343.067C602.009 348.97 600.601 354.777 598.628 360.401Z" fill="#FF8567"/>
<path d="M593.927 379.477C595.749 369.237 596.72 358.863 596.83 348.463C596.83 348.463 596.83 348.463 596.9 348.349C597.948 339.994 599.492 331.724 600.044 323.298C600.597 314.189 600.312 305.05 599.194 295.994C599.194 295.881 599.024 295.895 599.039 295.994C599.754 304.857 599.796 313.762 599.166 322.632C598.84 327.39 598.316 332.12 597.566 336.794C597.325 338.323 597.014 339.852 596.745 341.396C595.739 317.517 589.616 294.132 578.79 272.825C578.634 272.542 578.124 272.825 578.266 273.08C585.907 289.192 591.009 306.39 593.389 324.062C588.235 311.515 579.583 300.738 573.565 288.573C573.565 288.573 573.423 288.573 573.451 288.573C578.563 301.942 588.164 313.087 593.629 326.314C594.281 331.54 594.691 336.794 594.876 342.048C595.081 349.25 594.84 356.458 594.153 363.63C591.024 355.926 587.711 348.519 585.332 340.476C585.319 340.432 585.289 340.396 585.249 340.375C585.209 340.354 585.163 340.349 585.119 340.362C585.076 340.375 585.04 340.405 585.019 340.445C584.997 340.485 584.993 340.532 585.006 340.575C586.875 348.873 589.608 357.894 593.998 365.273C593.502 370.342 592.808 375.412 591.973 380.44C589.75 393.879 586.04 406.993 583.548 420.361C583.536 420.44 583.554 420.521 583.6 420.586C583.645 420.651 583.714 420.697 583.792 420.713C583.87 420.729 583.951 420.715 584.019 420.674C584.087 420.632 584.136 420.566 584.156 420.489C588.34 407.056 591.605 393.353 593.927 379.477Z" fill="#263238"/>
<path d="M590.571 273.647C590.571 273.548 590.387 273.647 590.416 273.647C592.157 280.728 592.823 287.808 593.871 295.003C593.884 295.062 593.918 295.114 593.965 295.152C594.013 295.19 594.072 295.21 594.133 295.21C594.193 295.21 594.252 295.19 594.3 295.152C594.347 295.114 594.381 295.062 594.395 295.003C594.423 287.837 592.625 280.487 590.571 273.647Z" fill="#263238"/>
<path d="M650.284 308.895C648.218 312.729 645.91 316.428 643.374 319.969C638.064 327.588 632.655 334.499 630.814 343.818C630.233 348.012 629.193 352.129 627.713 356.096C626.179 359.45 624.161 362.561 621.723 365.329C616.158 371.844 609.489 377.268 604.25 384.079C598.809 391.192 594.509 399.109 591.506 407.545C591.35 408.012 590.614 407.8 590.77 407.347C590.775 407.309 590.775 407.271 590.77 407.234C590.761 407.219 590.756 407.201 590.756 407.184C590.756 407.167 590.761 407.15 590.77 407.134C592.186 386.883 595.938 366.731 604.122 348.052C607.739 339.844 611.882 331.877 616.527 324.204C620.372 317.389 625.537 311.41 631.72 306.615C635.827 303.627 644.648 298.118 649.633 302.027C652.026 303.938 651.558 306.488 650.284 308.895Z" fill="#FF8567"/>
<path d="M625.192 352.485C621.02 357.951 616.513 363.154 611.698 368.062C609.475 370.413 607.223 372.722 605 375.143C603.952 376.248 602.791 377.352 601.814 378.556C602.579 376.489 603.315 374.421 604.08 372.353C607.761 362.44 611.344 352.428 616.257 343.025C621.226 333.954 626.874 325.272 633.15 317.052C633.306 316.826 632.952 316.627 632.796 316.84C627.783 323.397 622.728 329.939 618.367 336.949C615.955 340.866 613.78 344.923 611.853 349.1C614.479 340.071 617.744 331.24 621.624 322.674C621.624 322.589 621.553 322.519 621.511 322.604C616.714 331.166 613.301 340.434 611.4 350.063C610.239 352.584 609.163 355.147 608.129 357.739C603.768 368.686 599.775 379.788 595.98 390.962C596.708 383.44 598.13 376.002 600.228 368.742C600.228 368.572 600.03 368.501 599.973 368.657C597.186 376.17 595.683 384.098 595.527 392.109C594.092 396.357 592.676 400.606 591.279 404.854C588.319 413.946 584.879 423.151 582.783 432.47C582.776 432.494 582.775 432.519 582.778 432.544C582.781 432.569 582.789 432.593 582.802 432.614C582.814 432.636 582.831 432.655 582.851 432.67C582.871 432.686 582.893 432.697 582.917 432.703C582.942 432.71 582.967 432.712 582.992 432.708C583.016 432.705 583.04 432.697 583.062 432.684C583.084 432.672 583.103 432.655 583.118 432.635C583.133 432.616 583.145 432.593 583.151 432.569C585.077 427.626 586.465 422.443 588.135 417.402C589.806 412.36 591.534 407.319 593.275 402.291C595.824 394.97 598.444 387.69 601.106 380.397C602.635 377.791 605.354 375.611 607.365 373.501C609.375 371.39 611.868 368.884 614.077 366.519C618.211 362.157 621.999 357.479 625.405 352.527C625.433 352.485 625.263 352.385 625.192 352.485Z" fill="#263238"/>
<path d="M626.962 343.959C621.927 349.15 617.438 354.845 613.567 360.953C613.567 361.038 613.638 361.137 613.694 361.067C618.197 355.402 622.629 349.737 627.132 344.073C627.203 343.988 627.047 343.818 626.962 343.959Z" fill="#263238"/>
<path d="M542.994 316.911C545.132 321.683 547.553 327.404 545.826 332.701C544.764 336.043 541.96 338.55 541.139 342.005C539.312 349.596 546.449 355.501 551.631 359.721C564.517 370.272 582.656 380.383 583.222 399.204C583.222 399.87 584.397 399.827 584.383 399.204C584.39 399.162 584.39 399.119 584.383 399.076C584.383 399.076 584.454 399.076 584.468 398.977C587.262 389.814 588.186 380.182 587.187 370.654C586.139 360.868 582.868 351.833 578.833 342.911C571.993 327.815 564.673 312.322 553.245 300.101C550.074 296.716 543.503 290.542 540.006 297.056C536.508 303.57 540.374 311.09 542.994 316.911Z" fill="#FF8567"/>
<path d="M552.495 348.406C560.623 359.325 574.641 366.434 581.367 378.4C578.736 360.986 572.047 344.433 561.84 330.081C561.799 330.005 561.785 329.917 561.802 329.832C561.819 329.747 561.866 329.67 561.933 329.616C562.001 329.562 562.085 329.534 562.172 329.536C562.259 329.538 562.342 329.57 562.407 329.628C569.983 338.742 575.707 349.248 579.257 360.557C577.874 352.776 575.779 345.14 572.999 337.742C572.899 337.459 573.31 337.261 573.437 337.544C576.987 345.675 579.229 354.317 580.079 363.148C587.824 389.461 585.672 419.144 580.687 445.484C580.687 445.867 580.036 445.81 580.093 445.484C582.925 424.596 584.808 403.254 581.948 382.267C581.877 381.828 581.806 381.403 581.749 380.964C574.415 368.062 560.509 360.982 552.325 348.604C552.24 348.434 552.41 348.293 552.495 348.406Z" fill="#263238"/>
<path d="M551.263 339.64C555.624 344.582 559.887 349.553 564.248 354.524C564.248 354.524 564.248 354.666 564.163 354.609C559.095 350.35 554.648 345.402 550.952 339.909C550.824 339.682 551.093 339.442 551.263 339.64Z" fill="#263238"/>
<path d="M552.523 320.408C556.048 327.85 560.173 334.992 564.857 341.764C564.857 341.849 564.786 341.963 564.715 341.878C559.333 335.55 555.115 328.32 552.254 320.522C552.247 320.504 552.243 320.485 552.243 320.466C552.243 320.447 552.246 320.428 552.253 320.41C552.261 320.392 552.271 320.376 552.285 320.363C552.298 320.349 552.314 320.338 552.332 320.331C552.35 320.323 552.369 320.319 552.388 320.319C552.407 320.319 552.426 320.323 552.444 320.33C552.461 320.337 552.478 320.348 552.491 320.361C552.505 320.375 552.516 320.391 552.523 320.408Z" fill="#263238"/>
<path d="M566.457 464.815H608.908L603.188 407.687H572.984L566.457 464.815Z" fill="#455A64"/>
<path d="M571.922 416.977H604.122L603.188 407.687H572.984L571.922 416.977Z" fill="#263238"/>
<path d="M567.788 410.477H607.577V401.357H567.788V410.477Z" fill="#455A64"/>
</svg>
